NotoSerifTamilSlanted-CondensedLightItalic.ufo
<glyph name="exclam" format="2">
  <advance width="205"/>
  <unicode hex="0021"/>
  <outline>
    <contour>
      <point x="60" y="167" type="line"/>
      <point x="84" y="167" type="line"/>
      <point x="204" y="714" type="line"/>
      <point x="174" y="714" type="line"/>
    </contour>
    <contour>
      <point x="41" y="-6" type="curve" smooth="yes"/>
      <point x="57" y="-6"/>
      <point x="73" y="10"/>
      <point x="73" y="41" type="curve" smooth="yes"/>
      <point x="73" y="63"/>
      <point x="62" y="72"/>
      <point x="48" y="72" type="curve" smooth="yes"/>
      <point x="29" y="72"/>
      <point x="14" y="54"/>
      <point x="14" y="26" type="curve" smooth="yes"/>
      <point x="14" y="4"/>
      <point x="24" y="-6"/>
    </contour>
  </outline>
</glyph>
<glyph name="numbersign" format="2">
  <advance width="440"/>
  <unicode hex="0023"/>
  <outline>
    <contour>
      <point x="44" y="0" type="line"/>
      <point x="72" y="0" type="line"/>
      <point x="132" y="219" type="line"/>
      <point x="264" y="219" type="line"/>
      <point x="204" y="0" type="line"/>
      <point x="232" y="0" type="line"/>
      <point x="292" y="219" type="line"/>
      <point x="378" y="219" type="line"/>
      <point x="383" y="244" type="line"/>
      <point x="299" y="244" type="line"/>
      <point x="365" y="483" type="line"/>
      <point x="451" y="483" type="line"/>
      <point x="455" y="508" type="line"/>
      <point x="372" y="508" type="line"/>
      <point x="429" y="714" type="line"/>
      <point x="401" y="714" type="line"/>
      <point x="344" y="508" type="line"/>
      <point x="212" y="508" type="line"/>
      <point x="269" y="714" type="line"/>
      <point x="241" y="714" type="line"/>
      <point x="184" y="508" type="line"/>
      <point x="95" y="508" type="line"/>
      <point x="91" y="483" type="line"/>
      <point x="177" y="483" type="line"/>
      <point x="111" y="244" type="line"/>
      <point x="23" y="244" type="line"/>
      <point x="18" y="219" type="line"/>
      <point x="104" y="219" type="line"/>
    </contour>
    <contour>
      <point x="139" y="244" type="line"/>
      <point x="205" y="483" type="line"/>
      <point x="337" y="483" type="line"/>
      <point x="271" y="244" type="line"/>
    </contour>
  </outline>
</glyph>
<glyph name="percent" format="2">
  <advance width="693"/>
  <unicode hex="0025"/>
  <outline>
    <contour>
      <point x="130" y="0" type="line"/>
      <point x="160" y="0" type="line"/>
      <point x="595" y="714" type="line"/>
      <point x="565" y="714" type="line"/>
    </contour>
    <contour>
      <point x="164" y="283" type="curve" smooth="yes"/>
      <point x="270" y="283"/>
      <point x="320" y="456"/>
      <point x="320" y="576" type="curve" smooth="yes"/>
      <point x="320" y="665"/>
      <point x="289" y="721"/>
      <point x="229" y="721" type="curve" smooth="yes"/>
      <point x="126" y="721"/>
      <point x="73" y="548"/>
      <point x="73" y="426" type="curve" smooth="yes"/>
      <point x="73" y="333"/>
      <point x="106" y="283"/>
    </contour>
    <contour>
      <point x="166" y="308" type="curve" smooth="yes"/>
      <point x="122" y="308"/>
      <point x="101" y="344"/>
      <point x="101" y="426" type="curve" smooth="yes"/>
      <point x="101" y="528"/>
      <point x="144" y="696"/>
      <point x="227" y="696" type="curve" smooth="yes"/>
      <point x="271" y="696"/>
      <point x="292" y="653"/>
      <point x="292" y="576" type="curve" smooth="yes"/>
      <point x="292" y="476"/>
      <point x="247" y="308"/>
    </contour>
    <contour>
      <point x="497" y="-6" type="curve" smooth="yes"/>
      <point x="605" y="-6"/>
      <point x="653" y="167"/>
      <point x="653" y="287" type="curve" smooth="yes"/>
      <point x="653" y="376"/>
      <point x="622" y="432"/>
      <point x="562" y="432" type="curve" smooth="yes"/>
      <point x="459" y="432"/>
      <point x="406" y="259"/>
      <point x="406" y="137" type="curve" smooth="yes"/>
      <point x="406" y="42"/>
      <point x="442" y="-6"/>
    </contour>
    <contour>
      <point x="499" y="19" type="curve" smooth="yes"/>
      <point x="455" y="19"/>
      <point x="434" y="55"/>
      <point x="434" y="137" type="curve" smooth="yes"/>
      <point x="434" y="239"/>
      <point x="477" y="407"/>
      <point x="560" y="407" type="curve" smooth="yes"/>
      <point x="604" y="407"/>
      <point x="625" y="364"/>
      <point x="625" y="287" type="curve" smooth="yes"/>
      <point x="625" y="187"/>
      <point x="582" y="19"/>
    </contour>
  </outline>
</glyph>
<glyph name="quotesingle" format="2">
  <advance width="119"/>
  <unicode hex="0027"/>
  <outline>
    <contour>
      <point x="99" y="530" type="line"/>
      <point x="119" y="530" type="line"/>
      <point x="163" y="714" type="line"/>
      <point x="133" y="714" type="line"/>
    </contour>
  </outline>
</glyph>
<glyph name="parenleft" format="2">
  <advance width="221"/>
  <unicode hex="0028"/>
  <outline>
    <contour>
      <point x="114" y="-119" type="curve"/>
      <point x="119" y="-96" type="line"/>
      <point x="85" y="-56"/>
      <point x="54" y="44"/>
      <point x="54" y="149" type="curve" smooth="yes"/>
      <point x="54" y="300"/>
      <point x="100" y="539"/>
      <point x="291" y="713" type="curve"/>
      <point x="296" y="738" type="line"/>
      <point x="93" y="583"/>
      <point x="26" y="348"/>
      <point x="26" y="151" type="curve" smooth="yes"/>
      <point x="26" y="32"/>
      <point x="60" y="-63"/>
    </contour>
  </outline>
</glyph>
<glyph name="parenright" format="2">
  <advance width="221"/>
  <unicode hex="0029"/>
  <outline>
    <contour>
      <point x="-68" y="-119" type="line"/>
      <point x="135" y="36"/>
      <point x="202" y="271"/>
      <point x="202" y="468" type="curve" smooth="yes"/>
      <point x="202" y="587"/>
      <point x="168" y="682"/>
      <point x="114" y="738" type="curve"/>
      <point x="109" y="715" type="line"/>
      <point x="143" y="675"/>
      <point x="174" y="575"/>
      <point x="174" y="470" type="curve" smooth="yes"/>
      <point x="174" y="319"/>
      <point x="128" y="80"/>
      <point x="-63" y="-94" type="curve"/>
    </contour>
  </outline>
</glyph>
<glyph name="plus" format="2">
  <advance width="425"/>
  <unicode hex="002B"/>
  <outline>
    <contour>
      <point x="214" y="143" type="line"/>
      <point x="244" y="143" type="line"/>
      <point x="244" y="344" type="line"/>
      <point x="391" y="344" type="line"/>
      <point x="391" y="372" type="line"/>
      <point x="244" y="372" type="line"/>
      <point x="244" y="572" type="line"/>
      <point x="214" y="572" type="line"/>
      <point x="214" y="372" type="line"/>
      <point x="66" y="372" type="line"/>
      <point x="66" y="344" type="line"/>
      <point x="214" y="344" type="line"/>
    </contour>
  </outline>
</glyph>
<glyph name="comma" format="2">
  <advance width="146"/>
  <unicode hex="002C"/>
  <outline>
    <contour>
      <point x="-47" y="-138" type="line"/>
      <point x="41" y="-113"/>
      <point x="60" y="-52"/>
      <point x="60" y="15" type="curve" smooth="yes"/>
      <point x="60" y="51"/>
      <point x="46" y="73"/>
      <point x="26" y="73" type="curve" smooth="yes"/>
      <point x="6" y="73"/>
      <point x="-4" y="59"/>
      <point x="-4" y="42" type="curve" smooth="yes"/>
      <point x="-4" y="11"/>
      <point x="31" y="12"/>
      <point x="31" y="-22" type="curve" smooth="yes"/>
      <point x="31" y="-60"/>
      <point x="8" y="-98"/>
      <point x="-48" y="-117" type="curve"/>
    </contour>
  </outline>
</glyph>
<glyph name="hyphen" format="2">
  <advance width="244"/>
  <unicode hex="002D"/>
  <outline>
    <contour>
      <point x="17" y="255" type="line"/>
      <point x="221" y="255" type="line"/>
      <point x="227" y="281" type="line"/>
      <point x="23" y="281" type="line"/>
    </contour>
  </outline>
</glyph>
<glyph name="one" format="2">
  <advance width="424"/>
  <unicode hex="0031"/>
  <outline>
    <contour>
      <point x="45" y="0" type="line"/>
      <point x="292" y="0" type="line"/>
      <point x="297" y="20" type="line"/>
      <point x="232" y="20" type="line" smooth="yes"/>
      <point x="200" y="20"/>
      <point x="196" y="23"/>
      <point x="196" y="47" type="curve" smooth="yes"/>
      <point x="196" y="55"/>
      <point x="199" y="78"/>
      <point x="204" y="101" type="curve" smooth="yes"/>
      <point x="335" y="718" type="line"/>
      <point x="327" y="718" type="line"/>
      <point x="283" y="679" type="line" smooth="yes"/>
      <point x="226" y="627"/>
      <point x="178" y="598"/>
      <point x="142" y="589" type="curve"/>
      <point x="142" y="581"/>
      <point x="144" y="568"/>
      <point x="165" y="568" type="curve" smooth="yes"/>
      <point x="195" y="568"/>
      <point x="229" y="597"/>
      <point x="297" y="666" type="curve"/>
      <point x="299" y="666" type="line"/>
      <point x="292" y="641"/>
      <point x="276" y="574"/>
      <point x="256" y="478" type="curve" smooth="yes"/>
      <point x="176" y="101" type="line" smooth="yes"/>
      <point x="160" y="26"/>
      <point x="157" y="20"/>
      <point x="115" y="20" type="curve" smooth="yes"/>
      <point x="50" y="20" type="line"/>
    </contour>
  </outline>
</glyph>
<glyph name="two" format="2">
  <advance width="424"/>
  <unicode hex="0032"/>
  <outline>
    <contour>
      <point x="-3" y="0" type="line"/>
      <point x="310" y="0" type="line"/>
      <point x="334" y="103" type="line"/>
      <point x="314" y="103" type="line"/>
      <point x="311" y="91" type="line" smooth="yes"/>
      <point x="295" y="26"/>
      <point x="293" y="25"/>
      <point x="235" y="25" type="curve" smooth="yes"/>
      <point x="31" y="25" type="line"/>
      <point x="242" y="261" type="line" smooth="yes"/>
      <point x="347" y="379"/>
      <point x="395" y="474"/>
      <point x="395" y="580" type="curve" smooth="yes"/>
      <point x="395" y="665"/>
      <point x="350" y="724"/>
      <point x="261" y="724" type="curve" smooth="yes"/>
      <point x="168" y="724"/>
      <point x="114" y="655"/>
      <point x="114" y="595" type="curve" smooth="yes"/>
      <point x="114" y="571"/>
      <point x="127" y="564"/>
      <point x="139" y="564" type="curve"/>
      <point x="139" y="651"/>
      <point x="190" y="699"/>
      <point x="259" y="699" type="curve" smooth="yes"/>
      <point x="330" y="699"/>
      <point x="367" y="650"/>
      <point x="367" y="578" type="curve" smooth="yes"/>
      <point x="367" y="494"/>
      <point x="340" y="409"/>
      <point x="216" y="270" type="curve" smooth="yes"/>
      <point x="6" y="33" type="line"/>
    </contour>
  </outline>
</glyph>
<glyph name="three" format="2">
  <advance width="424"/>
  <unicode hex="0033"/>
  <outline>
    <contour>
      <point x="129" y="-10" type="curve" smooth="yes"/>
      <point x="239" y="-10"/>
      <point x="335" y="65"/>
      <point x="335" y="227" type="curve" smooth="yes"/>
      <point x="335" y="305"/>
      <point x="287" y="361"/>
      <point x="242" y="375" type="curve"/>
      <point x="346" y="401"/>
      <point x="391" y="487"/>
      <point x="391" y="584" type="curve" smooth="yes"/>
      <point x="391" y="669"/>
      <point x="339" y="724"/>
      <point x="267" y="724" type="curve" smooth="yes"/>
      <point x="182" y="724"/>
      <point x="116" y="666"/>
      <point x="116" y="573" type="curve" smooth="yes"/>
      <point x="116" y="551"/>
      <point x="128" y="540"/>
      <point x="140" y="540" type="curve"/>
      <point x="140" y="628"/>
      <point x="174" y="699"/>
      <point x="265" y="699" type="curve" smooth="yes"/>
      <point x="321" y="699"/>
      <point x="363" y="656"/>
      <point x="363" y="584" type="curve" smooth="yes"/>
      <point x="363" y="459"/>
      <point x="287" y="389"/>
      <point x="195" y="389" type="curve" smooth="yes"/>
      <point x="169" y="389" type="line"/>
      <point x="161" y="364" type="line"/>
      <point x="192" y="364" type="line" smooth="yes"/>
      <point x="260" y="364"/>
      <point x="307" y="300"/>
      <point x="307" y="227" type="curve" smooth="yes"/>
      <point x="307" y="87"/>
      <point x="225" y="15"/>
      <point x="131" y="15" type="curve" smooth="yes"/>
      <point x="48" y="15"/>
      <point x="28" y="65"/>
      <point x="28" y="132" type="curve"/>
      <point x="18" y="132"/>
      <point x="2" y="124"/>
      <point x="2" y="102" type="curve" smooth="yes"/>
      <point x="2" y="50"/>
      <point x="33" y="-10"/>
    </contour>
  </outline>
</glyph>
<glyph name="four" format="2">
  <advance width="424"/>
  <unicode hex="0034"/>
  <outline>
    <contour>
      <point x="95" y="0" type="line"/>
      <point x="328" y="0" type="line"/>
      <point x="333" y="20" type="line"/>
      <point x="287" y="20" type="line" smooth="yes"/>
      <point x="255" y="20"/>
      <point x="249" y="27"/>
      <point x="249" y="46" type="curve" smooth="yes"/>
      <point x="249" y="60"/>
      <point x="252" y="74"/>
      <point x="255" y="90" type="curve" smooth="yes"/>
      <point x="387" y="714" type="line"/>
      <point x="365" y="714" type="line"/>
      <point x="5" y="230" type="line"/>
      <point x="1" y="214" type="line"/>
      <point x="397" y="214" type="line"/>
      <point x="406" y="239" type="line"/>
      <point x="29" y="239" type="line"/>
      <point x="35" y="232" type="line"/>
      <point x="309" y="599" type="line" smooth="yes"/>
      <point x="323" y="617"/>
      <point x="344" y="648"/>
      <point x="353" y="665" type="curve"/>
      <point x="344" y="634"/>
      <point x="332" y="586"/>
      <point x="318" y="520" type="curve" smooth="yes"/>
      <point x="227" y="90" type="line" smooth="yes"/>
      <point x="214" y="27"/>
      <point x="210" y="20"/>
      <point x="162" y="20" type="curve" smooth="yes"/>
      <point x="100" y="20" type="line"/>
    </contour>
  </outline>
</glyph>
<glyph name="six" format="2">
  <advance width="424"/>
  <unicode hex="0036"/>
  <outline>
    <contour>
      <point x="182" y="-10" type="curve" smooth="yes"/>
      <point x="295" y="-10"/>
      <point x="364" y="119"/>
      <point x="364" y="268" type="curve" smooth="yes"/>
      <point x="364" y="356"/>
      <point x="326" y="428"/>
      <point x="237" y="428" type="curve" smooth="yes"/>
      <point x="177" y="428"/>
      <point x="132" y="394"/>
      <point x="109" y="372" type="curve"/>
      <point x="149" y="560"/>
      <point x="241" y="699"/>
      <point x="334" y="699" type="curve" smooth="yes"/>
      <point x="390" y="699"/>
      <point x="407" y="652"/>
      <point x="407" y="591" type="curve"/>
      <point x="426" y="591"/>
      <point x="433" y="603"/>
      <point x="433" y="621" type="curve" smooth="yes"/>
      <point x="433" y="667"/>
      <point x="403" y="724"/>
      <point x="335" y="724" type="curve" smooth="yes"/>
      <point x="188" y="724"/>
      <point x="62" y="460"/>
      <point x="62" y="199" type="curve" smooth="yes"/>
      <point x="62" y="39"/>
      <point x="116" y="-10"/>
    </contour>
    <contour>
      <point x="183" y="15" type="curve" smooth="yes"/>
      <point x="128" y="15"/>
      <point x="90" y="79"/>
      <point x="90" y="195" type="curve" smooth="yes"/>
      <point x="90" y="231"/>
      <point x="92" y="277"/>
      <point x="102" y="335" type="curve"/>
      <point x="135" y="371"/>
      <point x="183" y="403"/>
      <point x="237" y="403" type="curve" smooth="yes"/>
      <point x="302" y="403"/>
      <point x="336" y="345"/>
      <point x="336" y="267" type="curve" smooth="yes"/>
      <point x="336" y="131"/>
      <point x="271" y="15"/>
    </contour>
  </outline>
</glyph>
<glyph name="seven" format="2">
  <advance width="424"/>
  <unicode hex="0037"/>
  <outline>
    <contour>
      <point x="86" y="0" type="line"/>
      <point x="116" y="0" type="line"/>
      <point x="450" y="705" type="line"/>
      <point x="452" y="714" type="line"/>
      <point x="130" y="714" type="line"/>
      <point x="96" y="587" type="line"/>
      <point x="116" y="587" type="line"/>
      <point x="135" y="651" type="line" smooth="yes"/>
      <point x="145" y="684"/>
      <point x="151" y="689"/>
      <point x="187" y="689" type="curve" smooth="yes"/>
      <point x="417" y="689" type="line"/>
    </contour>
  </outline>
</glyph>
<glyph name="eight" format="2">
  <advance width="424"/>
  <unicode hex="0038"/>
  <outline>
    <contour>
      <point x="177" y="-10" type="curve" smooth="yes"/>
      <point x="282" y="-10"/>
      <point x="362" y="68"/>
      <point x="362" y="201" type="curve" smooth="yes"/>
      <point x="362" y="276"/>
      <point x="326" y="328"/>
      <point x="247" y="374" type="curve"/>
      <point x="342" y="419"/>
      <point x="417" y="480"/>
      <point x="417" y="586" type="curve" smooth="yes"/>
      <point x="417" y="662"/>
      <point x="370" y="724"/>
      <point x="281" y="724" type="curve" smooth="yes"/>
      <point x="170" y="724"/>
      <point x="108" y="632"/>
      <point x="108" y="538" type="curve" smooth="yes"/>
      <point x="108" y="470"/>
      <point x="133" y="419"/>
      <point x="198" y="376" type="curve"/>
      <point x="97" y="331"/>
      <point x="15" y="267"/>
      <point x="15" y="151" type="curve" smooth="yes"/>
      <point x="15" y="59"/>
      <point x="73" y="-10"/>
    </contour>
    <contour>
      <point x="177" y="15" type="curve" smooth="yes"/>
      <point x="91" y="15"/>
      <point x="43" y="74"/>
      <point x="43" y="151" type="curve" smooth="yes"/>
      <point x="43" y="259"/>
      <point x="130" y="323"/>
      <point x="220" y="361" type="curve"/>
      <point x="302" y="313"/>
      <point x="334" y="276"/>
      <point x="334" y="199" type="curve" smooth="yes"/>
      <point x="334" y="85"/>
      <point x="263" y="15"/>
    </contour>
    <contour>
      <point x="225" y="389" type="curve"/>
      <point x="152" y="435"/>
      <point x="136" y="479"/>
      <point x="136" y="538" type="curve" smooth="yes"/>
      <point x="136" y="616"/>
      <point x="186" y="699"/>
      <point x="281" y="699" type="curve" smooth="yes"/>
      <point x="351" y="699"/>
      <point x="389" y="647"/>
      <point x="389" y="586" type="curve" smooth="yes"/>
      <point x="389" y="499"/>
      <point x="334" y="439"/>
    </contour>
  </outline>
</glyph>
<glyph name="nine" format="2">
  <advance width="424"/>
  <unicode hex="0039"/>
  <outline>
    <contour>
      <point x="144" y="-10" type="curve" smooth="yes"/>
      <point x="289" y="-10"/>
      <point x="392" y="252"/>
      <point x="392" y="520" type="curve" smooth="yes"/>
      <point x="392" y="675"/>
      <point x="333" y="724"/>
      <point x="267" y="724" type="curve" smooth="yes"/>
      <point x="154" y="724"/>
      <point x="85" y="595"/>
      <point x="85" y="446" type="curve" smooth="yes"/>
      <point x="85" y="358"/>
      <point x="120" y="280"/>
      <point x="209" y="280" type="curve" smooth="yes"/>
      <point x="269" y="280"/>
      <point x="325" y="317"/>
      <point x="348" y="342" type="curve"/>
      <point x="317" y="164"/>
      <point x="238" y="15"/>
      <point x="145" y="15" type="curve" smooth="yes"/>
      <point x="79" y="15"/>
      <point x="67" y="62"/>
      <point x="67" y="123" type="curve"/>
      <point x="48" y="123"/>
      <point x="41" y="111"/>
      <point x="41" y="93" type="curve" smooth="yes"/>
      <point x="41" y="47"/>
      <point x="66" y="-10"/>
    </contour>
    <contour>
      <point x="209" y="305" type="curve" smooth="yes"/>
      <point x="144" y="305"/>
      <point x="113" y="369"/>
      <point x="113" y="447" type="curve" smooth="yes"/>
      <point x="113" y="583"/>
      <point x="174" y="699"/>
      <point x="266" y="699" type="curve" smooth="yes"/>
      <point x="321" y="699"/>
      <point x="364" y="649"/>
      <point x="364" y="519" type="curve" smooth="yes"/>
      <point x="364" y="483"/>
      <point x="361" y="437"/>
      <point x="354" y="379" type="curve"/>
      <point x="321" y="343"/>
      <point x="263" y="305"/>
    </contour>
  </outline>
</glyph>
<glyph name="colon" format="2">
  <advance width="158"/>
  <unicode hex="003A"/>
  <outline>
    <contour>
      <point x="123" y="464" type="curve" smooth="yes"/>
      <point x="139" y="464"/>
      <point x="155" y="480"/>
      <point x="155" y="511" type="curve" smooth="yes"/>
      <point x="155" y="533"/>
      <point x="144" y="542"/>
      <point x="130" y="542" type="curve" smooth="yes"/>
      <point x="111" y="542"/>
      <point x="96" y="524"/>
      <point x="96" y="496" type="curve" smooth="yes"/>
      <point x="96" y="474"/>
      <point x="106" y="464"/>
    </contour>
    <contour>
      <point x="20" y="-6" type="curve" smooth="yes"/>
      <point x="36" y="-6"/>
      <point x="52" y="10"/>
      <point x="52" y="41" type="curve" smooth="yes"/>
      <point x="52" y="63"/>
      <point x="41" y="72"/>
      <point x="27" y="72" type="curve" smooth="yes"/>
      <point x="8" y="72"/>
      <point x="-7" y="54"/>
      <point x="-7" y="26" type="curve" smooth="yes"/>
      <point x="-7" y="4"/>
      <point x="3" y="-6"/>
    </contour>
  </outline>
</glyph>
<glyph name="semicolon" format="2">
  <advance width="158"/>
  <unicode hex="003B"/>
  <outline>
    <contour>
      <point x="-46" y="-138" type="line"/>
      <point x="42" y="-113"/>
      <point x="61" y="-52"/>
      <point x="61" y="15" type="curve" smooth="yes"/>
      <point x="61" y="51"/>
      <point x="47" y="73"/>
      <point x="27" y="73" type="curve" smooth="yes"/>
      <point x="7" y="73"/>
      <point x="-3" y="59"/>
      <point x="-3" y="42" type="curve" smooth="yes"/>
      <point x="-3" y="11"/>
      <point x="32" y="12"/>
      <point x="32" y="-22" type="curve" smooth="yes"/>
      <point x="32" y="-60"/>
      <point x="9" y="-98"/>
      <point x="-47" y="-117" type="curve"/>
    </contour>
    <contour>
      <point x="123" y="464" type="curve" smooth="yes"/>
      <point x="139" y="464"/>
      <point x="155" y="480"/>
      <point x="155" y="511" type="curve" smooth="yes"/>
      <point x="155" y="533"/>
      <point x="144" y="542"/>
      <point x="130" y="542" type="curve" smooth="yes"/>
      <point x="111" y="542"/>
      <point x="96" y="524"/>
      <point x="96" y="496" type="curve" smooth="yes"/>
      <point x="96" y="474"/>
      <point x="106" y="464"/>
    </contour>
  </outline>
</glyph>
<glyph name="less" format="2">
  <advance width="425"/>
  <unicode hex="003C"/>
  <outline>
    <contour>
      <point x="391" y="117" type="line"/>
      <point x="391" y="153" type="line"/>
      <point x="97" y="357" type="line"/>
      <point x="391" y="563" type="line"/>
      <point x="391" y="599" type="line"/>
      <point x="66" y="371" type="line"/>
      <point x="66" y="344" type="line"/>
    </contour>
  </outline>
</glyph>
<glyph name="bracketleft" format="2">
  <advance width="232"/>
  <unicode hex="005B"/>
  <outline>
    <contour>
      <point x="-19" y="-128" type="line"/>
      <point x="110" y="-128" type="line"/>
      <point x="114" y="-108" type="line"/>
      <point x="69" y="-108" type="line" smooth="yes"/>
      <point x="36" y="-108"/>
      <point x="23" y="-103"/>
      <point x="23" y="-77" type="curve" smooth="yes"/>
      <point x="23" y="-64"/>
      <point x="26" y="-46"/>
      <point x="32" y="-20" type="curve" smooth="yes"/>
      <point x="174" y="652" type="line" smooth="yes"/>
      <point x="190" y="729"/>
      <point x="199" y="740"/>
      <point x="249" y="740" type="curve" smooth="yes"/>
      <point x="294" y="740" type="line"/>
      <point x="298" y="760" type="line"/>
      <point x="169" y="760" type="line"/>
    </contour>
  </outline>
</glyph>
<glyph name="backslash" format="2">
  <advance width="227"/>
  <unicode hex="005C"/>
  <outline>
    <contour>
      <point x="144" y="-121" type="line"/>
      <point x="172" y="-121" type="line"/>
      <point x="116" y="760" type="line"/>
      <point x="88" y="760" type="line"/>
    </contour>
  </outline>
</glyph>
<glyph name="braceleft" format="2">
  <advance width="324"/>
  <unicode hex="007B"/>
  <outline>
    <contour>
      <point x="150" y="-132" type="curve" smooth="yes"/>
      <point x="165" y="-132" type="line"/>
      <point x="171" y="-109" type="line"/>
      <point x="155" y="-109" type="line" smooth="yes"/>
      <point x="112" y="-109"/>
      <point x="99" y="-89"/>
      <point x="99" y="-54" type="curve" smooth="yes"/>
      <point x="99" y="-30"/>
      <point x="103" y="-11"/>
      <point x="108" y="13" type="curve" smooth="yes"/>
      <point x="144" y="179" type="line" smooth="yes"/>
      <point x="147" y="195"/>
      <point x="150" y="217"/>
      <point x="150" y="231" type="curve" smooth="yes"/>
      <point x="150" y="271"/>
      <point x="135" y="295"/>
      <point x="104" y="311" type="curve"/>
      <point x="104" y="313" type="line"/>
      <point x="149" y="326"/>
      <point x="182" y="351"/>
      <point x="197" y="422" type="curve" smooth="yes"/>
      <point x="240" y="623" type="line" smooth="yes"/>
      <point x="257" y="704"/>
      <point x="282" y="735"/>
      <point x="334" y="735" type="curve" smooth="yes"/>
      <point x="350" y="735" type="line"/>
      <point x="356" y="760" type="line"/>
      <point x="332" y="760" type="line" smooth="yes"/>
      <point x="271" y="760"/>
      <point x="234" y="725"/>
      <point x="213" y="625" type="curve" smooth="yes"/>
      <point x="170" y="424" type="line" smooth="yes"/>
      <point x="157" y="364"/>
      <point x="123" y="329"/>
      <point x="54" y="327" type="curve"/>
      <point x="49" y="303" type="line"/>
      <point x="102" y="300"/>
      <point x="123" y="275"/>
      <point x="123" y="233" type="curve" smooth="yes"/>
      <point x="123" y="219"/>
      <point x="121" y="200"/>
      <point x="118" y="185" type="curve" smooth="yes"/>
      <point x="81" y="13" type="line" smooth="yes"/>
      <point x="75" y="-15"/>
      <point x="73" y="-31"/>
      <point x="73" y="-54" type="curve" smooth="yes"/>
      <point x="73" y="-94"/>
      <point x="94" y="-132"/>
    </contour>
  </outline>
</glyph>
<glyph name="braceright" format="2">
  <advance width="324"/>
  <unicode hex="007D"/>
  <outline>
    <contour>
      <point x="-15" y="-132" type="line"/>
      <point x="9" y="-132" type="line" smooth="yes"/>
      <point x="71" y="-132"/>
      <point x="107" y="-96"/>
      <point x="128" y="3" type="curve" smooth="yes"/>
      <point x="171" y="204" type="line" smooth="yes"/>
      <point x="184" y="264"/>
      <point x="218" y="299"/>
      <point x="287" y="301" type="curve"/>
      <point x="292" y="325" type="line"/>
      <point x="239" y="328"/>
      <point x="218" y="353"/>
      <point x="218" y="395" type="curve" smooth="yes"/>
      <point x="218" y="409"/>
      <point x="220" y="428"/>
      <point x="223" y="443" type="curve" smooth="yes"/>
      <point x="260" y="615" type="line" smooth="yes"/>
      <point x="266" y="643"/>
      <point x="268" y="659"/>
      <point x="268" y="682" type="curve" smooth="yes"/>
      <point x="268" y="722"/>
      <point x="247" y="760"/>
      <point x="191" y="760" type="curve" smooth="yes"/>
      <point x="176" y="760" type="line"/>
      <point x="170" y="737" type="line"/>
      <point x="186" y="737" type="line" smooth="yes"/>
      <point x="229" y="737"/>
      <point x="242" y="717"/>
      <point x="242" y="682" type="curve" smooth="yes"/>
      <point x="242" y="658"/>
      <point x="238" y="639"/>
      <point x="233" y="615" type="curve" smooth="yes"/>
      <point x="197" y="449" type="line" smooth="yes"/>
      <point x="194" y="433"/>
      <point x="191" y="411"/>
      <point x="191" y="397" type="curve" smooth="yes"/>
      <point x="191" y="357"/>
      <point x="206" y="333"/>
      <point x="237" y="317" type="curve"/>
      <point x="237" y="315" type="line"/>
      <point x="192" y="302"/>
      <point x="159" y="277"/>
      <point x="144" y="206" type="curve" smooth="yes"/>
      <point x="101" y="5" type="line" smooth="yes"/>
      <point x="84" y="-75"/>
      <point x="60" y="-107"/>
      <point x="9" y="-107" type="curve" smooth="yes"/>
      <point x="-9" y="-107" type="line"/>
    </contour>
  </outline>
</glyph>
<glyph name="asciitilde" format="2">
  <advance width="425"/>
  <unicode hex="007E"/>
  <outline>
    <contour>
      <point x="63" y="277" type="curve"/>
      <point x="91" y="277" type="line"/>
      <point x="101" y="354"/>
      <point x="111" y="409"/>
      <point x="150" y="409" type="curve" smooth="yes"/>
      <point x="171" y="409"/>
      <point x="184" y="394"/>
      <point x="219" y="345" type="curve" smooth="yes"/>
      <point x="252" y="298"/>
      <point x="273" y="278"/>
      <point x="306" y="278" type="curve" smooth="yes"/>
      <point x="373" y="278"/>
      <point x="386" y="368"/>
      <point x="394" y="435" type="curve"/>
      <point x="366" y="435" type="line"/>
      <point x="356" y="358"/>
      <point x="345" y="305"/>
      <point x="306" y="305" type="curve" smooth="yes"/>
      <point x="285" y="305"/>
      <point x="271" y="318"/>
      <point x="237" y="367" type="curve" smooth="yes"/>
      <point x="204" y="415"/>
      <point x="183" y="436"/>
      <point x="150" y="436" type="curve" smooth="yes"/>
      <point x="83" y="436"/>
      <point x="71" y="344"/>
    </contour>
  </outline>
</glyph>
<glyph name="twosuperior" format="2">
  <advance width="315"/>
  <unicode hex="00B2"/>
  <outline>
    <contour>
      <point x="60" y="386" type="line"/>
      <point x="268" y="386" type="line"/>
      <point x="294" y="476" type="line"/>
      <point x="274" y="476" type="line"/>
      <point x="267" y="455" type="line" smooth="yes"/>
      <point x="253" y="414"/>
      <point x="251" y="410"/>
      <point x="220" y="410" type="curve" smooth="yes"/>
      <point x="104" y="410" type="line"/>
      <point x="197" y="506" type="line" smooth="yes"/>
      <point x="293" y="605"/>
      <point x="325" y="660"/>
      <point x="325" y="720" type="curve" smooth="yes"/>
      <point x="325" y="782"/>
      <point x="288" y="820"/>
      <point x="230" y="820" type="curve" smooth="yes"/>
      <point x="158" y="820"/>
      <point x="116" y="756"/>
      <point x="116" y="718" type="curve" smooth="yes"/>
      <point x="116" y="699"/>
      <point x="121" y="690"/>
      <point x="141" y="690" type="curve"/>
      <point x="141" y="750"/>
      <point x="176" y="796"/>
      <point x="229" y="796" type="curve" smooth="yes"/>
      <point x="267" y="796"/>
      <point x="298" y="775"/>
      <point x="298" y="721" type="curve" smooth="yes"/>
      <point x="298" y="657"/>
      <point x="257" y="601"/>
      <point x="171" y="511" type="curve" smooth="yes"/>
      <point x="64" y="399" type="line"/>
    </contour>
  </outline>
</glyph>
<glyph name="threesuperior" format="2">
  <advance width="315"/>
  <unicode hex="00B3"/>
  <outline>
    <contour>
      <point x="168" y="378" type="curve" smooth="yes"/>
      <point x="241" y="378"/>
      <point x="302" y="426"/>
      <point x="302" y="510" type="curve" smooth="yes"/>
      <point x="302" y="559"/>
      <point x="274" y="600"/>
      <point x="229" y="607" type="curve"/>
      <point x="228" y="608" type="line"/>
      <point x="297" y="621"/>
      <point x="335" y="661"/>
      <point x="335" y="725" type="curve" smooth="yes"/>
      <point x="335" y="784"/>
      <point x="295" y="820"/>
      <point x="237" y="820" type="curve" smooth="yes"/>
      <point x="163" y="820"/>
      <point x="118" y="772"/>
      <point x="118" y="725" type="curve" smooth="yes"/>
      <point x="118" y="704"/>
      <point x="124" y="699"/>
      <point x="143" y="699" type="curve"/>
      <point x="143" y="766"/>
      <point x="177" y="796"/>
      <point x="235" y="796" type="curve" smooth="yes"/>
      <point x="281" y="796"/>
      <point x="308" y="768"/>
      <point x="308" y="725" type="curve" smooth="yes"/>
      <point x="308" y="667"/>
      <point x="270" y="621"/>
      <point x="181" y="621" type="curve" smooth="yes"/>
      <point x="155" y="621" type="line"/>
      <point x="150" y="597" type="line"/>
      <point x="177" y="597" type="line" smooth="yes"/>
      <point x="244" y="597"/>
      <point x="275" y="563"/>
      <point x="275" y="510" type="curve" smooth="yes"/>
      <point x="275" y="438"/>
      <point x="228" y="402"/>
      <point x="169" y="402" type="curve" smooth="yes"/>
      <point x="109" y="402"/>
      <point x="89" y="426"/>
      <point x="91" y="500" type="curve"/>
      <point x="75" y="500"/>
      <point x="66" y="490"/>
      <point x="66" y="474" type="curve" smooth="yes"/>
      <point x="66" y="413"/>
      <point x="98" y="378"/>
    </contour>
  </outline>
</glyph>
<glyph name="multiply" format="2">
  <advance width="425"/>
  <unicode hex="00D7"/>
  <outline>
    <contour>
      <point x="93" y="150" type="line"/>
      <point x="235" y="340" type="line"/>
      <point x="377" y="150" type="line"/>
      <point x="400" y="168" type="line"/>
      <point x="253" y="363" type="line"/>
      <point x="400" y="560" type="line"/>
      <point x="378" y="577" type="line"/>
      <point x="235" y="387" type="line"/>
      <point x="92" y="577" type="line"/>
      <point x="70" y="560" type="line"/>
      <point x="217" y="363" type="line"/>
      <point x="70" y="168" type="line"/>
    </contour>
  </outline>
</glyph>
<glyph name="udatta-deva" format="2">
  <unicode hex="0951"/>
  <anchor x="56" y="542" name="_vedic"/>
  <outline>
    <contour>
      <point x="120" y="902" type="line"/>
      <point x="146" y="902" type="line"/>
      <point x="185" y="1086" type="line"/>
      <point x="159" y="1086" type="line"/>
    </contour>
  </outline>
</glyph>
<glyph name="anudatta-deva" format="2">
  <unicode hex="0952"/>
  <anchor x="-59" y="0" name="_bottom"/>
  <outline>
    <contour>
      <point x="-332" y="-438" type="line"/>
      <point x="28" y="-438" type="line"/>
      <point x="34" y="-414" type="line"/>
      <point x="-327" y="-414" type="line"/>
    </contour>
  </outline>
</glyph>
<glyph name="danda-deva" format="2">
  <advance width="241"/>
  <unicode hex="0964"/>
  <outline>
    <contour>
      <point x="49" y="0" type="line"/>
      <point x="77" y="0" type="line"/>
      <point x="193" y="542" type="line"/>
      <point x="164" y="542" type="line"/>
    </contour>
  </outline>
</glyph>
<glyph name="dbldanda-deva" format="2">
  <advance width="435"/>
  <unicode hex="0965"/>
  <outline>
    <contour>
      <point x="243" y="0" type="line"/>
      <point x="271" y="0" type="line"/>
      <point x="386" y="542" type="line"/>
      <point x="358" y="542" type="line"/>
    </contour>
    <contour>
      <point x="49" y="0" type="line"/>
      <point x="77" y="0" type="line"/>
      <point x="193" y="542" type="line"/>
      <point x="164" y="542" type="line"/>
    </contour>
  </outline>
</glyph>
<glyph name="a-tamil" format="2">
  <advance width="914"/>
  <unicode hex="0B85"/>
  <note>
uni0B85
</note>
  <anchor x="381" y="0" name="bottom"/>
  <anchor x="252" y="-75" name="nukta"/>
  <anchor x="501" y="542" name="top"/>
  <anchor x="502" y="542" name="vedic"/>
  <outline>
    <contour>
      <point x="707" y="-136" type="line"/>
      <point x="735" y="-136" type="line"/>
      <point x="880" y="542" type="line"/>
      <point x="851" y="542" type="line"/>
      <point x="771" y="164" type="line"/>
      <point x="51" y="164" type="line" smooth="yes"/>
      <point x="12" y="164"/>
      <point x="-5" y="135"/>
      <point x="-5" y="98" type="curve" smooth="yes"/>
      <point x="-5" y="26"/>
      <point x="85" y="-75"/>
      <point x="252" y="-75" type="curve" smooth="yes"/>
      <point x="499" y="-75"/>
      <point x="661" y="94"/>
      <point x="661" y="341" type="curve" smooth="yes"/>
      <point x="661" y="465"/>
      <point x="592" y="551"/>
      <point x="484" y="551" type="curve" smooth="yes"/>
      <point x="366" y="551"/>
      <point x="295" y="461"/>
      <point x="295" y="361" type="curve" smooth="yes"/>
      <point x="295" y="311"/>
      <point x="325" y="266"/>
      <point x="376" y="266" type="curve" smooth="yes"/>
      <point x="449" y="266"/>
      <point x="492" y="333"/>
      <point x="492" y="417" type="curve" smooth="yes"/>
      <point x="492" y="463"/>
      <point x="473" y="511"/>
      <point x="451" y="535" type="curve"/>
      <point x="425" y="531" type="line"/>
      <point x="449" y="501"/>
      <point x="464" y="459"/>
      <point x="464" y="420" type="curve" smooth="yes"/>
      <point x="464" y="356"/>
      <point x="438" y="291"/>
      <point x="377" y="291" type="curve" smooth="yes"/>
      <point x="342" y="291"/>
      <point x="323" y="326"/>
      <point x="323" y="365" type="curve" smooth="yes"/>
      <point x="323" y="446"/>
      <point x="376" y="527"/>
      <point x="480" y="527" type="curve" smooth="yes"/>
      <point x="577" y="527"/>
      <point x="632" y="447"/>
      <point x="632" y="340" type="curve" smooth="yes"/>
      <point x="632" y="117"/>
      <point x="485" y="-49"/>
      <point x="254" y="-49" type="curve" smooth="yes"/>
      <point x="109" y="-49"/>
      <point x="23" y="34"/>
      <point x="23" y="102" type="curve" smooth="yes"/>
      <point x="23" y="124"/>
      <point x="34" y="141"/>
      <point x="53" y="141" type="curve" smooth="yes"/>
      <point x="766" y="141" type="line"/>
    </contour>
  </outline>
</glyph>
<glyph name="aa-tamil" format="2">
  <advance width="981"/>
  <unicode hex="0B86"/>
  <note>
uni0B86
</note>
  <anchor x="429" y="0" name="bottom"/>
  <anchor x="238" y="-75" name="nukta"/>
  <anchor x="549" y="542" name="top"/>
  <anchor x="549" y="542" name="vedic"/>
  <outline>
    <contour>
      <point x="566" y="-375" type="curve" smooth="yes"/>
      <point x="703" y="-375"/>
      <point x="885" y="-249"/>
      <point x="885" y="-82" type="curve" smooth="yes"/>
      <point x="885" y="-27"/>
      <point x="856" y="1"/>
      <point x="817" y="1" type="curve" smooth="yes"/>
      <point x="779" y="1"/>
      <point x="749" y="-29"/>
      <point x="729" y="-97" type="curve"/>
      <point x="739" y="-107" type="line"/>
      <point x="754" y="-46"/>
      <point x="780" y="-26"/>
      <point x="812" y="-26" type="curve" smooth="yes"/>
      <point x="836" y="-26"/>
      <point x="856" y="-42"/>
      <point x="856" y="-83" type="curve" smooth="yes"/>
      <point x="856" y="-230"/>
      <point x="694" y="-347"/>
      <point x="568" y="-347" type="curve" smooth="yes"/>
      <point x="510" y="-347"/>
      <point x="469" y="-320"/>
      <point x="469" y="-268" type="curve" smooth="yes"/>
      <point x="469" y="-214"/>
      <point x="502" y="-184"/>
      <point x="556" y="-154" type="curve"/>
      <point x="546" y="-132" type="line"/>
      <point x="482" y="-167"/>
      <point x="441" y="-202"/>
      <point x="441" y="-269" type="curve" smooth="yes"/>
      <point x="441" y="-332"/>
      <point x="489" y="-375"/>
    </contour>
    <component base="a-tamil"/>
  </outline>
</glyph>
<glyph name="i-tamil" format="2">
  <advance width="698"/>
  <unicode hex="0B87"/>
  <note>
uni0B87
</note>
  <anchor x="280" y="0" name="bottom"/>
  <anchor x="227" y="-243" name="nukta"/>
  <anchor x="424" y="771" name="top"/>
  <anchor x="381" y="542" name="vedic"/>
  <outline>
    <contour>
      <point x="63" y="-278" type="curve" smooth="yes"/>
      <point x="277" y="-278"/>
      <point x="529" y="102"/>
      <point x="529" y="366" type="curve" smooth="yes"/>
      <point x="529" y="474"/>
      <point x="478" y="551"/>
      <point x="381" y="551" type="curve" smooth="yes"/>
      <point x="282" y="551"/>
      <point x="211" y="462"/>
      <point x="211" y="362" type="curve" smooth="yes"/>
      <point x="211" y="307"/>
      <point x="239" y="266"/>
      <point x="287" y="266" type="curve" smooth="yes"/>
      <point x="362" y="266"/>
      <point x="406" y="340"/>
      <point x="406" y="416" type="curve" smooth="yes"/>
      <point x="406" y="466"/>
      <point x="389" y="509"/>
      <point x="362" y="535" type="curve"/>
      <point x="339" y="530" type="line"/>
      <point x="366" y="499"/>
      <point x="379" y="464"/>
      <point x="379" y="421" type="curve" smooth="yes"/>
      <point x="379" y="358"/>
      <point x="346" y="291"/>
      <point x="288" y="291" type="curve" smooth="yes"/>
      <point x="258" y="291"/>
      <point x="237" y="324"/>
      <point x="237" y="363" type="curve" smooth="yes"/>
      <point x="237" y="446"/>
      <point x="294" y="527"/>
      <point x="377" y="527" type="curve" smooth="yes"/>
      <point x="462" y="527"/>
      <point x="500" y="457"/>
      <point x="500" y="360" type="curve" smooth="yes"/>
      <point x="500" y="119"/>
      <point x="260" y="-252"/>
      <point x="64" y="-252" type="curve" smooth="yes"/>
      <point x="8" y="-252"/>
      <point x="-19" y="-215"/>
      <point x="-19" y="-160" type="curve" smooth="yes"/>
      <point x="-19" y="-25"/>
      <point x="115" y="80"/>
      <point x="268" y="80" type="curve" smooth="yes"/>
      <point x="408" y="80"/>
      <point x="521" y="-1"/>
      <point x="521" y="-125" type="curve" smooth="yes"/>
      <point x="521" y="-204"/>
      <point x="470" y="-252"/>
      <point x="394" y="-252" type="curve" smooth="yes"/>
      <point x="256" y="-252"/>
      <point x="99" y="13"/>
      <point x="99" y="311" type="curve" smooth="yes"/>
      <point x="99" y="515"/>
      <point x="203" y="740"/>
      <point x="417" y="740" type="curve" smooth="yes"/>
      <point x="565" y="740"/>
      <point x="649" y="640"/>
      <point x="649" y="482" type="curve" smooth="yes"/>
      <point x="649" y="447"/>
      <point x="645" y="410"/>
      <point x="637" y="370" type="curve" smooth="yes"/>
      <point x="582" y="108" type="line"/>
      <point x="607" y="108" type="line"/>
      <point x="663" y="370" type="line" smooth="yes"/>
      <point x="672" y="413"/>
      <point x="677" y="453"/>
      <point x="677" y="490" type="curve" smooth="yes"/>
      <point x="677" y="663"/>
      <point x="580" y="771"/>
      <point x="424" y="771" type="curve" smooth="yes"/>
      <point x="186" y="771"/>
      <point x="73" y="536"/>
      <point x="73" y="312" type="curve" smooth="yes"/>
      <point x="73" y="4"/>
      <point x="234" y="-278"/>
      <point x="396" y="-278" type="curve" smooth="yes"/>
      <point x="486" y="-278"/>
      <point x="548" y="-219"/>
      <point x="548" y="-121" type="curve" smooth="yes"/>
      <point x="548" y="17"/>
      <point x="425" y="105"/>
      <point x="269" y="105" type="curve" smooth="yes"/>
      <point x="102" y="105"/>
      <point x="-47" y="-12"/>
      <point x="-47" y="-166" type="curve" smooth="yes"/>
      <point x="-47" y="-233"/>
      <point x="-4" y="-278"/>
    </contour>
  </outline>
</glyph>
<glyph name="u-tamil" format="2">
  <advance width="751"/>
  <unicode hex="0B89"/>
  <note>
uni0B89
</note>
  <anchor x="332" y="0" name="bottom"/>
  <anchor x="332" y="0" name="nukta"/>
  <anchor x="449" y="542" name="top"/>
  <anchor x="449" y="542" name="vedic"/>
  <outline>
    <contour>
      <point x="84" y="0" type="curve" smooth="yes"/>
      <point x="667" y="0" type="line"/>
      <point x="672" y="23" type="line"/>
      <point x="87" y="23" type="line" smooth="yes"/>
      <point x="50" y="23"/>
      <point x="29" y="48"/>
      <point x="29" y="82" type="curve" smooth="yes"/>
      <point x="29" y="121"/>
      <point x="58" y="146"/>
      <point x="99" y="146" type="curve" smooth="yes"/>
      <point x="256" y="146" type="line" smooth="yes"/>
      <point x="388" y="146"/>
      <point x="483" y="250"/>
      <point x="483" y="384" type="curve" smooth="yes"/>
      <point x="483" y="492"/>
      <point x="416" y="551"/>
      <point x="321" y="551" type="curve" smooth="yes"/>
      <point x="216" y="551"/>
      <point x="139" y="465"/>
      <point x="139" y="361" type="curve" smooth="yes"/>
      <point x="139" y="309"/>
      <point x="168" y="266"/>
      <point x="218" y="266" type="curve" smooth="yes"/>
      <point x="289" y="266"/>
      <point x="335" y="330"/>
      <point x="335" y="411" type="curve" smooth="yes"/>
      <point x="335" y="466"/>
      <point x="316" y="508"/>
      <point x="292" y="535" type="curve"/>
      <point x="267" y="530" type="line"/>
      <point x="294" y="497"/>
      <point x="308" y="459"/>
      <point x="308" y="412" type="curve" smooth="yes"/>
      <point x="308" y="348"/>
      <point x="274" y="291"/>
      <point x="218" y="291" type="curve" smooth="yes"/>
      <point x="184" y="291"/>
      <point x="165" y="324"/>
      <point x="165" y="363" type="curve" smooth="yes"/>
      <point x="165" y="452"/>
      <point x="227" y="527"/>
      <point x="319" y="527" type="curve" smooth="yes"/>
      <point x="400" y="527"/>
      <point x="453" y="475"/>
      <point x="453" y="385" type="curve" smooth="yes"/>
      <point x="453" y="267"/>
      <point x="375" y="170"/>
      <point x="255" y="170" type="curve" smooth="yes"/>
      <point x="101" y="170" type="line" smooth="yes"/>
      <point x="43" y="170"/>
      <point x="4" y="133"/>
      <point x="4" y="80" type="curve" smooth="yes"/>
      <point x="4" y="36"/>
      <point x="31" y="0"/>
    </contour>
  </outline>
</glyph>
<glyph name="uu-tamil" format="2">
  <advance width="1179"/>
  <unicode hex="0B8A"/>
  <note>
uni0B8A
</note>
  <anchor x="580" y="0" name="bottom"/>
  <anchor x="581" y="0" name="nukta"/>
  <anchor x="698" y="542" name="top"/>
  <anchor x="698" y="542" name="vedic"/>
  <outline>
    <contour>
      <point x="84" y="0" type="curve" smooth="yes"/>
      <point x="1100" y="0" type="line"/>
      <point x="1105" y="23" type="line"/>
      <point x="87" y="23" type="line" smooth="yes"/>
      <point x="50" y="23"/>
      <point x="29" y="48"/>
      <point x="29" y="82" type="curve" smooth="yes"/>
      <point x="29" y="121"/>
      <point x="58" y="146"/>
      <point x="99" y="146" type="curve" smooth="yes"/>
      <point x="256" y="146" type="line" smooth="yes"/>
      <point x="388" y="146"/>
      <point x="483" y="250"/>
      <point x="483" y="384" type="curve" smooth="yes"/>
      <point x="483" y="492"/>
      <point x="416" y="551"/>
      <point x="321" y="551" type="curve" smooth="yes"/>
      <point x="216" y="551"/>
      <point x="139" y="465"/>
      <point x="139" y="361" type="curve" smooth="yes"/>
      <point x="139" y="309"/>
      <point x="168" y="266"/>
      <point x="218" y="266" type="curve" smooth="yes"/>
      <point x="289" y="266"/>
      <point x="335" y="330"/>
      <point x="335" y="411" type="curve" smooth="yes"/>
      <point x="335" y="466"/>
      <point x="316" y="508"/>
      <point x="292" y="535" type="curve"/>
      <point x="267" y="530" type="line"/>
      <point x="294" y="497"/>
      <point x="308" y="459"/>
      <point x="308" y="412" type="curve" smooth="yes"/>
      <point x="308" y="348"/>
      <point x="274" y="291"/>
      <point x="218" y="291" type="curve" smooth="yes"/>
      <point x="184" y="291"/>
      <point x="165" y="324"/>
      <point x="165" y="363" type="curve" smooth="yes"/>
      <point x="165" y="452"/>
      <point x="227" y="527"/>
      <point x="319" y="527" type="curve" smooth="yes"/>
      <point x="400" y="527"/>
      <point x="453" y="475"/>
      <point x="453" y="385" type="curve" smooth="yes"/>
      <point x="453" y="267"/>
      <point x="375" y="170"/>
      <point x="255" y="170" type="curve" smooth="yes"/>
      <point x="101" y="170" type="line" smooth="yes"/>
      <point x="43" y="170"/>
      <point x="4" y="133"/>
      <point x="4" y="80" type="curve" smooth="yes"/>
      <point x="4" y="36"/>
      <point x="31" y="0"/>
    </contour>
    <contour>
      <point x="627" y="104" type="curve" smooth="yes"/>
      <point x="701" y="104"/>
      <point x="754" y="177"/>
      <point x="754" y="264" type="curve" smooth="yes"/>
      <point x="754" y="329"/>
      <point x="723" y="371"/>
      <point x="668" y="371" type="curve" smooth="yes"/>
      <point x="616" y="371"/>
      <point x="573" y="331"/>
      <point x="543" y="268" type="curve"/>
      <point x="547" y="241" type="line"/>
      <point x="580" y="307"/>
      <point x="618" y="347"/>
      <point x="664" y="347" type="curve" smooth="yes"/>
      <point x="706" y="347"/>
      <point x="727" y="317"/>
      <point x="727" y="264" type="curve" smooth="yes"/>
      <point x="727" y="196"/>
      <point x="689" y="129"/>
      <point x="627" y="129" type="curve" smooth="yes"/>
      <point x="575" y="129"/>
      <point x="553" y="184"/>
      <point x="553" y="243" type="curve" smooth="yes"/>
      <point x="553" y="378"/>
      <point x="631" y="527"/>
      <point x="754" y="527" type="curve" smooth="yes"/>
      <point x="850" y="527"/>
      <point x="888" y="448"/>
      <point x="866" y="343" type="curve"/>
      <point x="888" y="344" type="line"/>
      <point x="914" y="470"/>
      <point x="864" y="551"/>
      <point x="756" y="551" type="curve" smooth="yes"/>
      <point x="620" y="551"/>
      <point x="528" y="394"/>
      <point x="528" y="242" type="curve" smooth="yes"/>
      <point x="528" y="170"/>
      <point x="560" y="104"/>
    </contour>
    <contour>
      <point x="816" y="107" type="line"/>
      <point x="844" y="107" type="line"/>
      <point x="932" y="519" type="line"/>
      <point x="1086" y="519" type="line"/>
      <point x="999" y="107" type="line"/>
      <point x="1026" y="107" type="line"/>
      <point x="1114" y="519" type="line"/>
      <point x="1212" y="519" type="line"/>
      <point x="1217" y="542" type="line"/>
      <point x="909" y="542" type="line"/>
      <point x="882" y="416" type="line"/>
      <point x="877" y="395" type="line"/>
    </contour>
  </outline>
</glyph>
<glyph name="e-tamil" format="2">
  <advance width="619"/>
  <unicode hex="0B8E"/>
  <note>
uni0B8E
</note>
  <anchor x="262" y="0" name="bottom"/>
  <anchor x="263" y="0" name="nukta"/>
  <anchor x="379" y="542" name="top"/>
  <anchor x="380" y="542" name="vedic"/>
  <outline>
    <contour>
      <point x="146" y="-4" type="curve" smooth="yes"/>
      <point x="218" y="-4"/>
      <point x="277" y="66"/>
      <point x="277" y="165" type="curve" smooth="yes"/>
      <point x="277" y="244"/>
      <point x="236" y="283"/>
      <point x="182" y="283" type="curve" smooth="yes"/>
      <point x="120" y="283"/>
      <point x="73" y="234"/>
      <point x="45" y="177" type="curve"/>
      <point x="51" y="148" type="line"/>
      <point x="86" y="214"/>
      <point x="124" y="258"/>
      <point x="178" y="258" type="curve" smooth="yes"/>
      <point x="223" y="258"/>
      <point x="249" y="230"/>
      <point x="249" y="162" type="curve" smooth="yes"/>
      <point x="249" y="81"/>
      <point x="202" y="21"/>
      <point x="148" y="21" type="curve" smooth="yes"/>
      <point x="94" y="21"/>
      <point x="60" y="68"/>
      <point x="60" y="152" type="curve" smooth="yes"/>
      <point x="60" y="316"/>
      <point x="147" y="519"/>
      <point x="322" y="519" type="curve" smooth="yes"/>
      <point x="497" y="519" type="line"/>
      <point x="387" y="0" type="line"/>
      <point x="415" y="0" type="line"/>
      <point x="526" y="519" type="line"/>
      <point x="646" y="519" type="line"/>
      <point x="651" y="542" type="line"/>
      <point x="322" y="542" type="line" smooth="yes"/>
      <point x="127" y="542"/>
      <point x="34" y="328"/>
      <point x="34" y="151" type="curve" smooth="yes"/>
      <point x="34" y="54"/>
      <point x="76" y="-4"/>
    </contour>
  </outline>
</glyph>
<glyph name="ai-tamil" format="2">
  <advance width="691"/>
  <unicode hex="0B90"/>
  <note>
uni0B90
</note>
  <anchor x="299" y="0" name="bottom"/>
  <anchor x="239" y="-278" name="nukta"/>
  <anchor x="419" y="542" name="top"/>
  <anchor x="420" y="542" name="vedic"/>
  <outline>
    <contour>
      <point x="102" y="-278" type="curve" smooth="yes"/>
      <point x="182" y="-278"/>
      <point x="233" y="-227"/>
      <point x="268" y="-162" type="curve"/>
      <point x="275" y="-226"/>
      <point x="308" y="-278"/>
      <point x="384" y="-278" type="curve" smooth="yes"/>
      <point x="494" y="-278"/>
      <point x="569" y="-167"/>
      <point x="569" y="-50" type="curve" smooth="yes"/>
      <point x="569" y="2"/>
      <point x="560" y="41"/>
      <point x="545" y="77" type="curve"/>
      <point x="518" y="64" type="line"/>
      <point x="532" y="34"/>
      <point x="540" y="-3"/>
      <point x="540" y="-51" type="curve" smooth="yes"/>
      <point x="540" y="-153"/>
      <point x="477" y="-254"/>
      <point x="384" y="-254" type="curve" smooth="yes"/>
      <point x="302" y="-254"/>
      <point x="280" y="-184"/>
      <point x="300" y="-92" type="curve" smooth="yes"/>
      <point x="318" y="-8" type="line"/>
      <point x="290" y="-8" type="line"/>
      <point x="273" y="-89" type="line" smooth="yes"/>
      <point x="258" y="-159"/>
      <point x="196" y="-254"/>
      <point x="105" y="-254" type="curve" smooth="yes"/>
      <point x="42" y="-254"/>
      <point x="5" y="-209"/>
      <point x="5" y="-128" type="curve" smooth="yes"/>
      <point x="5" y="28"/>
      <point x="114" y="76"/>
      <point x="321" y="102" type="curve" smooth="yes"/>
      <point x="543" y="130"/>
      <point x="660" y="220"/>
      <point x="660" y="397" type="curve" smooth="yes"/>
      <point x="660" y="493"/>
      <point x="612" y="551"/>
      <point x="536" y="551" type="curve" smooth="yes"/>
      <point x="463" y="551"/>
      <point x="419" y="496"/>
      <point x="393" y="436" type="curve"/>
      <point x="384" y="498"/>
      <point x="342" y="551"/>
      <point x="261" y="551" type="curve" smooth="yes"/>
      <point x="134" y="551"/>
      <point x="60" y="418"/>
      <point x="60" y="295" type="curve" smooth="yes"/>
      <point x="60" y="212"/>
      <point x="93" y="164"/>
      <point x="146" y="164" type="curve" smooth="yes"/>
      <point x="212" y="164"/>
      <point x="258" y="229"/>
      <point x="258" y="304" type="curve" smooth="yes"/>
      <point x="258" y="364"/>
      <point x="229" y="398"/>
      <point x="183" y="398" type="curve" smooth="yes"/>
      <point x="135" y="398"/>
      <point x="96" y="357"/>
      <point x="71" y="290" type="curve"/>
      <point x="78" y="272" type="line"/>
      <point x="111" y="342"/>
      <point x="143" y="374"/>
      <point x="177" y="374" type="curve" smooth="yes"/>
      <point x="212" y="374"/>
      <point x="231" y="350"/>
      <point x="231" y="300" type="curve" smooth="yes"/>
      <point x="231" y="245"/>
      <point x="200" y="190"/>
      <point x="147" y="190" type="curve" smooth="yes"/>
      <point x="106" y="190"/>
      <point x="85" y="226"/>
      <point x="85" y="296" type="curve" smooth="yes"/>
      <point x="85" y="398"/>
      <point x="145" y="526"/>
      <point x="258" y="526" type="curve" smooth="yes"/>
      <point x="338" y="526"/>
      <point x="387" y="466"/>
      <point x="366" y="367" type="curve" smooth="yes"/>
      <point x="332" y="208" type="line"/>
      <point x="360" y="208" type="line"/>
      <point x="393" y="365" type="line" smooth="yes"/>
      <point x="408" y="435"/>
      <point x="450" y="527"/>
      <point x="533" y="527" type="curve" smooth="yes"/>
      <point x="597" y="527"/>
      <point x="631" y="477"/>
      <point x="631" y="395" type="curve" smooth="yes"/>
      <point x="631" y="225"/>
      <point x="516" y="148"/>
      <point x="310" y="123" type="curve" smooth="yes"/>
      <point x="90" y="96"/>
      <point x="-24" y="37"/>
      <point x="-24" y="-130" type="curve" smooth="yes"/>
      <point x="-24" y="-225"/>
      <point x="27" y="-278"/>
    </contour>
  </outline>
</glyph>
<glyph name="oo-tamil" format="2">
  <advance width="702"/>
  <unicode hex="0B93"/>
  <note>
uni0B93
</note>
  <anchor x="292" y="0" name="bottom"/>
  <anchor x="242" y="-227" name="nukta"/>
  <anchor x="400" y="542" name="top"/>
  <anchor x="400" y="542" name="vedic"/>
  <outline>
    <contour>
      <point x="161" y="-247" type="curve" smooth="yes"/>
      <point x="276" y="-247"/>
      <point x="334" y="-111"/>
      <point x="464" y="-111" type="curve" smooth="yes"/>
      <point x="473" y="-111" type="line"/>
      <point x="478" y="-87" type="line"/>
      <point x="460" y="-87" type="line" smooth="yes"/>
      <point x="376" y="-87"/>
      <point x="338" y="-41"/>
      <point x="338" y="25" type="curve" smooth="yes"/>
      <point x="338" y="80"/>
      <point x="365" y="150"/>
      <point x="414" y="217" type="curve"/>
      <point x="417" y="215" type="line"/>
      <point x="396" y="169"/>
      <point x="385" y="125"/>
      <point x="385" y="88" type="curve" smooth="yes"/>
      <point x="385" y="33"/>
      <point x="410" y="-5"/>
      <point x="467" y="-5" type="curve" smooth="yes"/>
      <point x="574" y="-5"/>
      <point x="643" y="126"/>
      <point x="643" y="263" type="curve" smooth="yes"/>
      <point x="643" y="444"/>
      <point x="535" y="551"/>
      <point x="378" y="551" type="curve" smooth="yes"/>
      <point x="187" y="551"/>
      <point x="34" y="359"/>
      <point x="34" y="164" type="curve" smooth="yes"/>
      <point x="34" y="53"/>
      <point x="76" y="-4"/>
      <point x="146" y="-4" type="curve" smooth="yes"/>
      <point x="218" y="-4"/>
      <point x="277" y="66"/>
      <point x="277" y="165" type="curve" smooth="yes"/>
      <point x="277" y="244"/>
      <point x="236" y="283"/>
      <point x="182" y="283" type="curve" smooth="yes"/>
      <point x="120" y="283"/>
      <point x="73" y="234"/>
      <point x="45" y="177" type="curve"/>
      <point x="51" y="148" type="line"/>
      <point x="86" y="214"/>
      <point x="124" y="258"/>
      <point x="178" y="258" type="curve" smooth="yes"/>
      <point x="223" y="258"/>
      <point x="249" y="230"/>
      <point x="249" y="162" type="curve" smooth="yes"/>
      <point x="249" y="81"/>
      <point x="202" y="21"/>
      <point x="148" y="21" type="curve" smooth="yes"/>
      <point x="94" y="21"/>
      <point x="60" y="67"/>
      <point x="60" y="165" type="curve" smooth="yes"/>
      <point x="60" y="339"/>
      <point x="203" y="527"/>
      <point x="375" y="527" type="curve" smooth="yes"/>
      <point x="517" y="527"/>
      <point x="613" y="425"/>
      <point x="613" y="258" type="curve" smooth="yes"/>
      <point x="613" y="145"/>
      <point x="558" y="21"/>
      <point x="470" y="21" type="curve" smooth="yes"/>
      <point x="429" y="21"/>
      <point x="411" y="52"/>
      <point x="411" y="96" type="curve" smooth="yes"/>
      <point x="411" y="138"/>
      <point x="427" y="193"/>
      <point x="455" y="244" type="curve"/>
      <point x="419" y="262" type="line"/>
      <point x="353" y="181"/>
      <point x="313" y="92"/>
      <point x="313" y="22" type="curve" smooth="yes"/>
      <point x="313" y="-35"/>
      <point x="339" y="-79"/>
      <point x="399" y="-98" type="curve"/>
      <point x="399" y="-102" type="line"/>
      <point x="307" y="-121"/>
      <point x="250" y="-220"/>
      <point x="163" y="-220" type="curve" smooth="yes"/>
      <point x="115" y="-220"/>
      <point x="90" y="-187"/>
      <point x="90" y="-151" type="curve" smooth="yes"/>
      <point x="90" y="-117"/>
      <point x="112" y="-88"/>
      <point x="151" y="-88" type="curve" smooth="yes"/>
      <point x="184" y="-88"/>
      <point x="199" y="-108"/>
      <point x="202" y="-129" type="curve"/>
      <point x="215" y="-123"/>
      <point x="227" y="-109"/>
      <point x="227" y="-92" type="curve" smooth="yes"/>
      <point x="227" y="-66"/>
      <point x="195" y="-51"/>
      <point x="164" y="-51" type="curve" smooth="yes"/>
      <point x="106" y="-51"/>
      <point x="66" y="-99"/>
      <point x="66" y="-155" type="curve" smooth="yes"/>
      <point x="66" y="-201"/>
      <point x="100" y="-247"/>
    </contour>
  </outline>
</glyph>
<glyph name="ca-tamil" format="2">
  <advance width="478"/>
  <unicode hex="0B9A"/>
  <note>
uni0B9A
</note>
  <anchor x="199" y="0" name="bottom"/>
  <anchor x="459" y="542" name="imatra"/>
  <anchor x="199" y="0" name="nukta"/>
  <anchor x="350" y="542" name="top"/>
  <anchor x="320" y="542" name="vedic"/>
  <outline>
    <contour>
      <point x="152" y="-4" type="curve" smooth="yes"/>
      <point x="221" y="-4"/>
      <point x="277" y="36"/>
      <point x="301" y="153" type="curve" smooth="yes"/>
      <point x="326" y="275" type="line"/>
      <point x="443" y="275" type="line"/>
      <point x="448" y="299" type="line"/>
      <point x="331" y="299" type="line"/>
      <point x="378" y="519" type="line"/>
      <point x="495" y="519" type="line"/>
      <point x="500" y="542" type="line"/>
      <point x="195" y="542" type="line"/>
      <point x="141" y="284" type="line"/>
      <point x="166" y="284" type="line"/>
      <point x="216" y="519" type="line"/>
      <point x="350" y="519" type="line"/>
      <point x="304" y="299" type="line"/>
      <point x="184" y="299" type="line" smooth="yes"/>
      <point x="83" y="299"/>
      <point x="27" y="218"/>
      <point x="27" y="135" type="curve" smooth="yes"/>
      <point x="27" y="63"/>
      <point x="74" y="-4"/>
    </contour>
    <contour>
      <point x="156" y="21" type="curve" smooth="yes"/>
      <point x="87" y="21"/>
      <point x="57" y="78"/>
      <point x="57" y="139" type="curve" smooth="yes"/>
      <point x="57" y="210"/>
      <point x="98" y="275"/>
      <point x="183" y="275" type="curve" smooth="yes"/>
      <point x="298" y="275" type="line"/>
      <point x="274" y="154" type="line" smooth="yes"/>
      <point x="255" y="56"/>
      <point x="209" y="21"/>
    </contour>
  </outline>
</glyph>
<glyph name="tta-tamil" format="2">
  <advance width="630"/>
  <unicode hex="0B9F"/>
  <note>
uni0B9F
</note>
  <anchor x="294" y="0" name="bottom"/>
  <anchor x="294" y="0" name="nukta"/>
  <anchor x="422" y="542" name="top"/>
  <anchor x="406" y="542" name="vedic"/>
  <outline>
    <contour>
      <point x="34" y="0" type="line"/>
      <point x="550" y="0" type="line"/>
      <point x="555" y="23" type="line"/>
      <point x="68" y="23" type="line"/>
      <point x="178" y="542" type="line"/>
      <point x="150" y="542" type="line"/>
    </contour>
  </outline>
</glyph>
<glyph name="nna-tamil" format="2">
  <advance width="1171"/>
  <unicode hex="0BA3"/>
  <note>
uni0BA3
</note>
  <anchor x="569" y="0" name="bottom"/>
  <anchor x="1134" y="542" name="imatra"/>
  <anchor x="569" y="0" name="nukta"/>
  <anchor x="683" y="542" name="top"/>
  <anchor x="659" y="542" name="vedic"/>
  <outline>
    <contour>
      <point x="425" y="-5" type="curve" smooth="yes"/>
      <point x="511" y="-5"/>
      <point x="583" y="101"/>
      <point x="583" y="247" type="curve" smooth="yes"/>
      <point x="583" y="441"/>
      <point x="487" y="552"/>
      <point x="340" y="552" type="curve" smooth="yes"/>
      <point x="159" y="552"/>
      <point x="33" y="346"/>
      <point x="33" y="151" type="curve" smooth="yes"/>
      <point x="33" y="54"/>
      <point x="75" y="-4"/>
      <point x="145" y="-4" type="curve" smooth="yes"/>
      <point x="217" y="-4"/>
      <point x="276" y="66"/>
      <point x="276" y="165" type="curve" smooth="yes"/>
      <point x="276" y="244"/>
      <point x="235" y="283"/>
      <point x="181" y="283" type="curve" smooth="yes"/>
      <point x="119" y="283"/>
      <point x="72" y="234"/>
      <point x="44" y="177" type="curve"/>
      <point x="50" y="148" type="line"/>
      <point x="85" y="214"/>
      <point x="123" y="258"/>
      <point x="177" y="258" type="curve" smooth="yes"/>
      <point x="222" y="258"/>
      <point x="248" y="230"/>
      <point x="248" y="162" type="curve" smooth="yes"/>
      <point x="248" y="81"/>
      <point x="201" y="21"/>
      <point x="147" y="21" type="curve" smooth="yes"/>
      <point x="93" y="21"/>
      <point x="59" y="68"/>
      <point x="59" y="152" type="curve" smooth="yes"/>
      <point x="59" y="326"/>
      <point x="172" y="528"/>
      <point x="337" y="528" type="curve" smooth="yes"/>
      <point x="477" y="528"/>
      <point x="554" y="425"/>
      <point x="554" y="242" type="curve" smooth="yes"/>
      <point x="554" y="114"/>
      <point x="495" y="21"/>
      <point x="425" y="21" type="curve" smooth="yes"/>
      <point x="384" y="21"/>
      <point x="360" y="59"/>
      <point x="360" y="136" type="curve" smooth="yes"/>
      <point x="360" y="325"/>
      <point x="495" y="528"/>
      <point x="661" y="528" type="curve" smooth="yes"/>
      <point x="802" y="528"/>
      <point x="856" y="406"/>
      <point x="856" y="253" type="curve" smooth="yes"/>
      <point x="856" y="121"/>
      <point x="795" y="21"/>
      <point x="725" y="21" type="curve" smooth="yes"/>
      <point x="684" y="21"/>
      <point x="662" y="59"/>
      <point x="662" y="133" type="curve" smooth="yes"/>
      <point x="662" y="322"/>
      <point x="808" y="519"/>
      <point x="988" y="519" type="curve" smooth="yes"/>
      <point x="1198" y="519" type="line"/>
      <point x="1203" y="542" type="line"/>
      <point x="990" y="542" type="line" smooth="yes"/>
      <point x="790" y="542"/>
      <point x="637" y="339"/>
      <point x="637" y="124" type="curve" smooth="yes"/>
      <point x="637" y="39"/>
      <point x="672" y="-5"/>
      <point x="725" y="-5" type="curve" smooth="yes"/>
      <point x="811" y="-5"/>
      <point x="885" y="108"/>
      <point x="885" y="258" type="curve" smooth="yes"/>
      <point x="885" y="422"/>
      <point x="819" y="552"/>
      <point x="663" y="552" type="curve" smooth="yes"/>
      <point x="477" y="552"/>
      <point x="335" y="342"/>
      <point x="335" y="127" type="curve" smooth="yes"/>
      <point x="335" y="39"/>
      <point x="372" y="-5"/>
    </contour>
    <contour>
      <point x="942" y="0" type="line"/>
      <point x="971" y="0" type="line"/>
      <point x="1083" y="528" type="line"/>
      <point x="1055" y="528" type="line"/>
    </contour>
  </outline>
</glyph>
<glyph name="na-tamil" format="2">
  <advance width="553"/>
  <unicode hex="0BA8"/>
  <note>
uni0BA8
</note>
  <anchor x="228" y="0" name="bottom"/>
  <anchor x="452" y="542" name="imatra"/>
  <anchor x="202" y="-151" name="nukta"/>
  <anchor x="358" y="542" name="top"/>
  <anchor x="353" y="542" name="vedic"/>
  <outline>
    <contour>
      <point x="30" y="-183" type="curve"/>
      <point x="38" y="-135"/>
      <point x="63" y="-113"/>
      <point x="106" y="-113" type="curve" smooth="yes"/>
      <point x="216" y="-113" type="line" smooth="yes"/>
      <point x="388" y="-113"/>
      <point x="501" y="24"/>
      <point x="501" y="211" type="curve" smooth="yes"/>
      <point x="501" y="281"/>
      <point x="468" y="328"/>
      <point x="410" y="328" type="curve" smooth="yes"/>
      <point x="369" y="328"/>
      <point x="341" y="302"/>
      <point x="318" y="268" type="curve"/>
      <point x="371" y="519" type="line"/>
      <point x="481" y="519" type="line"/>
      <point x="486" y="542" type="line"/>
      <point x="153" y="542" type="line"/>
      <point x="38" y="0" type="line"/>
      <point x="64" y="0" type="line"/>
      <point x="174" y="519" type="line"/>
      <point x="344" y="519" type="line"/>
      <point x="233" y="0" type="line"/>
      <point x="261" y="0" type="line"/>
      <point x="301" y="187" type="line" smooth="yes"/>
      <point x="312" y="240"/>
      <point x="350" y="304"/>
      <point x="407" y="304" type="curve" smooth="yes"/>
      <point x="451" y="304"/>
      <point x="471" y="267"/>
      <point x="471" y="209" type="curve" smooth="yes"/>
      <point x="471" y="36"/>
      <point x="375" y="-87"/>
      <point x="216" y="-87" type="curve" smooth="yes"/>
      <point x="93" y="-87" type="line" smooth="yes"/>
      <point x="43" y="-87"/>
      <point x="0" y="-112"/>
      <point x="0" y="-149" type="curve" smooth="yes"/>
      <point x="0" y="-171"/>
      <point x="14" y="-183"/>
    </contour>
  </outline>
</glyph>
<glyph name="ma-tamil" format="2">
  <advance width="645"/>
  <unicode hex="0BAE"/>
  <note>
uni0BAE
</note>
  <anchor x="270" y="0" name="bottom"/>
  <anchor x="635" y="542" name="imatra"/>
  <anchor x="270" y="0" name="nukta"/>
  <anchor x="403" y="542" name="top"/>
  <anchor x="399" y="542" name="vedic"/>
  <outline>
    <contour>
      <point x="34" y="0" type="line"/>
      <point x="414" y="0" type="line" smooth="yes"/>
      <point x="539" y="0"/>
      <point x="594" y="167"/>
      <point x="594" y="333" type="curve" smooth="yes"/>
      <point x="594" y="474"/>
      <point x="549" y="551"/>
      <point x="476" y="551" type="curve" smooth="yes"/>
      <point x="411" y="551"/>
      <point x="375" y="507"/>
      <point x="356" y="418" type="curve" smooth="yes"/>
      <point x="272" y="23" type="line"/>
      <point x="68" y="23" type="line"/>
      <point x="178" y="542" type="line"/>
      <point x="150" y="542" type="line"/>
    </contour>
    <contour>
      <point x="301" y="23" type="line"/>
      <point x="384" y="418" type="line" smooth="yes"/>
      <point x="401" y="499"/>
      <point x="426" y="526"/>
      <point x="474" y="526" type="curve" smooth="yes"/>
      <point x="533" y="526"/>
      <point x="567" y="455"/>
      <point x="567" y="326" type="curve" smooth="yes"/>
      <point x="567" y="181"/>
      <point x="511" y="23"/>
      <point x="413" y="23" type="curve" smooth="yes"/>
    </contour>
  </outline>
</glyph>
<glyph name="ra-tamil" format="2">
  <advance width="493"/>
  <unicode hex="0BB0"/>
  <note>
uni0BB0
</note>
  <anchor x="203" y="0" name="bottom"/>
  <anchor x="480" y="542" name="imatra"/>
  <anchor x="166" y="-165" name="nukta"/>
  <anchor x="331" y="542" name="top"/>
  <anchor x="334" y="542" name="vedic"/>
  <outline>
    <contour>
      <point x="94" y="-195" type="line"/>
      <point x="267" y="-1" type="line"/>
      <point x="378" y="519" type="line"/>
      <point x="520" y="519" type="line"/>
      <point x="525" y="542" type="line"/>
      <point x="150" y="542" type="line"/>
      <point x="34" y="0" type="line"/>
      <point x="60" y="0" type="line"/>
      <point x="170" y="519" type="line"/>
      <point x="350" y="519" type="line"/>
      <point x="241" y="8" type="line"/>
      <point x="75" y="-178" type="line"/>
    </contour>
  </outline>
</glyph>
<glyph name="rra-tamil" format="2">
  <advance width="616"/>
  <unicode hex="0BB1"/>
  <note>
uni0BB1
</note>
  <anchor x="246" y="0" name="bottom"/>
  <anchor x="227" y="-131" name="nukta"/>
  <anchor x="363" y="542" name="top"/>
  <anchor x="375" y="542" name="vedic"/>
  <outline>
    <contour>
      <point x="34" y="-183" type="curve"/>
      <point x="42" y="-135"/>
      <point x="68" y="-112"/>
      <point x="111" y="-112" type="curve" smooth="yes"/>
      <point x="213" y="-112" type="line" smooth="yes"/>
      <point x="431" y="-112"/>
      <point x="573" y="109"/>
      <point x="573" y="362" type="curve" smooth="yes"/>
      <point x="573" y="492"/>
      <point x="514" y="551"/>
      <point x="441" y="551" type="curve" smooth="yes"/>
      <point x="381" y="551"/>
      <point x="346" y="512"/>
      <point x="325" y="476" type="curve"/>
      <point x="317" y="515"/>
      <point x="292" y="551"/>
      <point x="239" y="551" type="curve" smooth="yes"/>
      <point x="183" y="551"/>
      <point x="142" y="507"/>
      <point x="125" y="427" type="curve" smooth="yes"/>
      <point x="34" y="0" type="line"/>
      <point x="60" y="0" type="line"/>
      <point x="150" y="426" type="line" smooth="yes"/>
      <point x="164" y="493"/>
      <point x="191" y="527"/>
      <point x="239" y="527" type="curve" smooth="yes"/>
      <point x="293" y="527"/>
      <point x="311" y="477"/>
      <point x="298" y="415" type="curve" smooth="yes"/>
      <point x="210" y="0" type="line"/>
      <point x="238" y="0" type="line"/>
      <point x="326" y="414" type="line" smooth="yes"/>
      <point x="342" y="487"/>
      <point x="387" y="527"/>
      <point x="439" y="527" type="curve" smooth="yes"/>
      <point x="493" y="527"/>
      <point x="543" y="491"/>
      <point x="543" y="358" type="curve" smooth="yes"/>
      <point x="543" y="123"/>
      <point x="411" y="-87"/>
      <point x="210" y="-87" type="curve" smooth="yes"/>
      <point x="97" y="-87" type="line" smooth="yes"/>
      <point x="47" y="-87"/>
      <point x="4" y="-112"/>
      <point x="4" y="-149" type="curve" smooth="yes"/>
      <point x="4" y="-171"/>
      <point x="18" y="-183"/>
    </contour>
  </outline>
</glyph>
<glyph name="la-tamil" format="2">
  <advance width="727"/>
  <unicode hex="0BB2"/>
  <note>
uni0BB2
</note>
  <anchor x="316" y="0" name="bottom"/>
  <anchor x="316" y="0" name="nukta"/>
  <anchor x="432" y="542" name="top"/>
  <anchor x="422" y="542" name="vedic"/>
  <outline>
    <contour>
      <point x="146" y="-4" type="curve" smooth="yes"/>
      <point x="218" y="-4"/>
      <point x="277" y="66"/>
      <point x="277" y="165" type="curve" smooth="yes"/>
      <point x="277" y="244"/>
      <point x="236" y="283"/>
      <point x="182" y="283" type="curve" smooth="yes"/>
      <point x="120" y="283"/>
      <point x="73" y="234"/>
      <point x="45" y="177" type="curve"/>
      <point x="51" y="148" type="line"/>
      <point x="86" y="214"/>
      <point x="124" y="258"/>
      <point x="178" y="258" type="curve" smooth="yes"/>
      <point x="223" y="258"/>
      <point x="249" y="230"/>
      <point x="249" y="162" type="curve" smooth="yes"/>
      <point x="249" y="81"/>
      <point x="202" y="21"/>
      <point x="148" y="21" type="curve" smooth="yes"/>
      <point x="94" y="21"/>
      <point x="60" y="68"/>
      <point x="60" y="152" type="curve" smooth="yes"/>
      <point x="60" y="326"/>
      <point x="158" y="527"/>
      <point x="320" y="527" type="curve" smooth="yes"/>
      <point x="418" y="527"/>
      <point x="443" y="449"/>
      <point x="420" y="347" type="curve" smooth="yes"/>
      <point x="373" y="140" type="line" smooth="yes"/>
      <point x="354" y="56"/>
      <point x="374" y="-4"/>
      <point x="451" y="-4" type="curve" smooth="yes"/>
      <point x="577" y="-4"/>
      <point x="685" y="167"/>
      <point x="685" y="366" type="curve" smooth="yes"/>
      <point x="685" y="443"/>
      <point x="671" y="491"/>
      <point x="649" y="547" type="curve"/>
      <point x="620" y="534" type="line"/>
      <point x="639" y="488"/>
      <point x="657" y="432"/>
      <point x="657" y="363" type="curve" smooth="yes"/>
      <point x="657" y="192"/>
      <point x="563" y="20"/>
      <point x="455" y="20" type="curve" smooth="yes"/>
      <point x="392" y="20"/>
      <point x="387" y="70"/>
      <point x="402" y="138" type="curve" smooth="yes"/>
      <point x="447" y="343" type="line" smooth="yes"/>
      <point x="474" y="466"/>
      <point x="434" y="551"/>
      <point x="323" y="551" type="curve" smooth="yes"/>
      <point x="145" y="551"/>
      <point x="34" y="346"/>
      <point x="34" y="151" type="curve" smooth="yes"/>
      <point x="34" y="54"/>
      <point x="76" y="-4"/>
    </contour>
  </outline>
</glyph>
<glyph name="llla-tamil" format="2">
  <advance width="645"/>
  <unicode hex="0BB4"/>
  <note>
uni0BB4
</note>
  <anchor x="260" y="0" name="bottom"/>
  <anchor x="221" y="-237" name="nukta"/>
  <anchor x="413" y="542" name="top"/>
  <anchor x="400" y="542" name="vedic"/>
  <anchor x="635" y="542" name="imatra"/>
  <outline>
    <contour>
      <point x="135" y="-262" type="curve" smooth="yes"/>
      <point x="239" y="-262"/>
      <point x="299" y="-125"/>
      <point x="417" y="-125" type="curve" smooth="yes"/>
      <point x="454" y="-125" type="line"/>
      <point x="459" y="-102" type="line"/>
      <point x="413" y="-102" type="line" smooth="yes"/>
      <point x="345" y="-102"/>
      <point x="283" y="-59"/>
      <point x="297" y="5" type="curve" smooth="yes"/>
      <point x="306" y="47" type="line"/>
      <point x="277" y="47" type="line"/>
      <point x="269" y="5" type="line" smooth="yes"/>
      <point x="258" y="-51"/>
      <point x="304" y="-99"/>
      <point x="363" y="-112" type="curve"/>
      <point x="362" y="-117" type="line"/>
      <point x="259" y="-143"/>
      <point x="221" y="-234"/>
      <point x="132" y="-234" type="curve" smooth="yes"/>
      <point x="91" y="-234"/>
      <point x="64" y="-204"/>
      <point x="64" y="-163" type="curve" smooth="yes"/>
      <point x="64" y="-119"/>
      <point x="92" y="-87"/>
      <point x="135" y="-87" type="curve" smooth="yes"/>
      <point x="163" y="-87"/>
      <point x="183" y="-101"/>
      <point x="204" y="-122" type="curve"/>
      <point x="223" y="-103" type="line"/>
      <point x="196" y="-74"/>
      <point x="167" y="-63"/>
      <point x="137" y="-63" type="curve" smooth="yes"/>
      <point x="79" y="-63"/>
      <point x="38" y="-108"/>
      <point x="38" y="-168" type="curve" smooth="yes"/>
      <point x="38" y="-222"/>
      <point x="79" y="-262"/>
    </contour>
    <component base="ma-tamil"/>
  </outline>
</glyph>
<glyph name="sha-tamil" format="2">
  <advance width="800"/>
  <unicode hex="0BB6"/>
  <note>
uni0BB6
</note>
  <anchor x="357" y="0" name="bottom"/>
  <anchor x="681" y="542" name="imatra"/>
  <anchor x="357" y="0" name="nukta"/>
  <anchor x="474" y="542" name="top"/>
  <anchor x="479" y="542" name="vedic"/>
  <outline>
    <contour>
      <point x="172" y="-9" type="curve" smooth="yes"/>
      <point x="241" y="-9"/>
      <point x="302" y="28"/>
      <point x="328" y="151" type="curve" smooth="yes"/>
      <point x="406" y="519" type="line"/>
      <point x="529" y="519" type="line"/>
      <point x="450" y="152" type="line" smooth="yes"/>
      <point x="429" y="55"/>
      <point x="450" y="-9"/>
      <point x="523" y="-9" type="curve" smooth="yes"/>
      <point x="668" y="-9"/>
      <point x="774" y="267"/>
      <point x="774" y="432" type="curve" smooth="yes"/>
      <point x="774" y="505"/>
      <point x="745" y="542"/>
      <point x="683" y="542" type="curve" smooth="yes"/>
      <point x="385" y="542" type="line"/>
      <point x="301" y="151" type="line" smooth="yes"/>
      <point x="278" y="44"/>
      <point x="227" y="15"/>
      <point x="172" y="15" type="curve" smooth="yes"/>
      <point x="97" y="15"/>
      <point x="78" y="80"/>
      <point x="97" y="167" type="curve" smooth="yes"/>
      <point x="177" y="542" type="line"/>
      <point x="149" y="542" type="line"/>
      <point x="68" y="167" type="line" smooth="yes"/>
      <point x="47" y="72"/>
      <point x="75" y="-9"/>
    </contour>
    <contour>
      <point x="524" y="15" type="curve" smooth="yes"/>
      <point x="467" y="15"/>
      <point x="461" y="73"/>
      <point x="478" y="151" type="curve" smooth="yes"/>
      <point x="557" y="519" type="line"/>
      <point x="676" y="519" type="line" smooth="yes"/>
      <point x="725" y="519"/>
      <point x="748" y="492"/>
      <point x="748" y="432" type="curve" smooth="yes"/>
      <point x="748" y="287"/>
      <point x="646" y="15"/>
    </contour>
  </outline>
</glyph>
<glyph name="ssa-tamil" format="2">
  <advance width="988"/>
  <unicode hex="0BB7"/>
  <note>
uni0BB7
</note>
  <anchor x="444" y="0" name="bottom"/>
  <anchor x="411" y="0" name="nukta"/>
  <anchor x="571" y="542" name="top"/>
  <anchor x="543" y="542" name="vedic"/>
  <outline>
    <contour>
      <point x="146" y="-4" type="curve" smooth="yes"/>
      <point x="218" y="-4"/>
      <point x="277" y="66"/>
      <point x="277" y="165" type="curve" smooth="yes"/>
      <point x="277" y="244"/>
      <point x="236" y="283"/>
      <point x="182" y="283" type="curve" smooth="yes"/>
      <point x="120" y="283"/>
      <point x="73" y="234"/>
      <point x="45" y="177" type="curve"/>
      <point x="51" y="148" type="line"/>
      <point x="86" y="214"/>
      <point x="124" y="258"/>
      <point x="178" y="258" type="curve" smooth="yes"/>
      <point x="223" y="258"/>
      <point x="249" y="230"/>
      <point x="249" y="162" type="curve" smooth="yes"/>
      <point x="249" y="81"/>
      <point x="202" y="21"/>
      <point x="148" y="21" type="curve" smooth="yes"/>
      <point x="94" y="21"/>
      <point x="60" y="68"/>
      <point x="60" y="152" type="curve" smooth="yes"/>
      <point x="60" y="326"/>
      <point x="165" y="528"/>
      <point x="332" y="528" type="curve" smooth="yes"/>
      <point x="434" y="528"/>
      <point x="492" y="464"/>
      <point x="492" y="339" type="curve" smooth="yes"/>
      <point x="492" y="226"/>
      <point x="439" y="112"/>
      <point x="356" y="19" type="curve"/>
      <point x="368" y="0" type="line"/>
      <point x="871" y="0" type="line"/>
      <point x="935" y="295" type="line"/>
      <point x="904" y="287" type="line"/>
      <point x="848" y="23" type="line"/>
      <point x="390" y="23" type="line"/>
      <point x="469" y="116"/>
      <point x="522" y="221"/>
      <point x="522" y="340" type="curve" smooth="yes"/>
      <point x="522" y="476"/>
      <point x="449" y="552"/>
      <point x="335" y="552" type="curve" smooth="yes"/>
      <point x="152" y="552"/>
      <point x="34" y="346"/>
      <point x="34" y="151" type="curve" smooth="yes"/>
      <point x="34" y="54"/>
      <point x="76" y="-4"/>
    </contour>
    <contour>
      <point x="628" y="-217" type="line"/>
      <point x="656" y="-217" type="line"/>
      <point x="794" y="433" type="line" smooth="yes"/>
      <point x="809" y="502"/>
      <point x="789" y="551"/>
      <point x="732" y="551" type="curve" smooth="yes"/>
      <point x="660" y="551"/>
      <point x="604" y="451"/>
      <point x="604" y="362" type="curve" smooth="yes"/>
      <point x="604" y="274"/>
      <point x="643" y="221"/>
      <point x="731" y="221" type="curve" smooth="yes"/>
      <point x="794" y="221"/>
      <point x="857" y="239"/>
      <point x="934" y="291" type="curve"/>
      <point x="936" y="300" type="line"/>
      <point x="924" y="315" type="line"/>
      <point x="850" y="264"/>
      <point x="786" y="245"/>
      <point x="733" y="245" type="curve" smooth="yes"/>
      <point x="661" y="245"/>
      <point x="629" y="287"/>
      <point x="629" y="363" type="curve" smooth="yes"/>
      <point x="629" y="424"/>
      <point x="669" y="527"/>
      <point x="730" y="527" type="curve" smooth="yes"/>
      <point x="770" y="527"/>
      <point x="779" y="494"/>
      <point x="767" y="438" type="curve" smooth="yes"/>
    </contour>
  </outline>
</glyph>
<glyph name="sa-tamil" format="2">
  <advance width="912"/>
  <unicode hex="0BB8"/>
  <note>
uni0BB8
</note>
  <anchor x="409" y="0" name="bottom"/>
  <anchor x="409" y="0" name="nukta"/>
  <anchor x="516" y="542" name="top"/>
  <anchor x="511" y="542" name="vedic"/>
  <outline>
    <contour>
      <point x="357" y="0" type="line"/>
      <point x="385" y="0" type="line"/>
      <point x="479" y="442" type="line" smooth="yes"/>
      <point x="491" y="498"/>
      <point x="524" y="527"/>
      <point x="566" y="527" type="curve" smooth="yes"/>
      <point x="614" y="527"/>
      <point x="633" y="487"/>
      <point x="619" y="421" type="curve" smooth="yes"/>
      <point x="558" y="139" type="line" smooth="yes"/>
      <point x="540" y="55"/>
      <point x="559" y="-4"/>
      <point x="636" y="-4" type="curve" smooth="yes"/>
      <point x="762" y="-4"/>
      <point x="870" y="167"/>
      <point x="870" y="366" type="curve" smooth="yes"/>
      <point x="870" y="443"/>
      <point x="856" y="491"/>
      <point x="834" y="547" type="curve"/>
      <point x="805" y="534" type="line"/>
      <point x="824" y="488"/>
      <point x="842" y="432"/>
      <point x="842" y="363" type="curve" smooth="yes"/>
      <point x="842" y="192"/>
      <point x="748" y="20"/>
      <point x="640" y="20" type="curve" smooth="yes"/>
      <point x="577" y="20"/>
      <point x="572" y="70"/>
      <point x="587" y="138" type="curve" smooth="yes"/>
      <point x="647" y="418" type="line" smooth="yes"/>
      <point x="663" y="493"/>
      <point x="634" y="551"/>
      <point x="567" y="551" type="curve" smooth="yes"/>
      <point x="514" y="551"/>
      <point x="470" y="507"/>
      <point x="457" y="448" type="curve" smooth="yes"/>
      <point x="445" y="392" type="line"/>
      <point x="440" y="392" type="line"/>
    </contour>
    <contour>
      <point x="144" y="-4" type="curve" smooth="yes"/>
      <point x="216" y="-4"/>
      <point x="277" y="66"/>
      <point x="277" y="165" type="curve" smooth="yes"/>
      <point x="277" y="244"/>
      <point x="236" y="283"/>
      <point x="182" y="283" type="curve" smooth="yes"/>
      <point x="120" y="283"/>
      <point x="73" y="234"/>
      <point x="45" y="177" type="curve"/>
      <point x="51" y="148" type="line"/>
      <point x="86" y="214"/>
      <point x="124" y="258"/>
      <point x="178" y="258" type="curve" smooth="yes"/>
      <point x="223" y="258"/>
      <point x="249" y="230"/>
      <point x="249" y="162" type="curve" smooth="yes"/>
      <point x="249" y="81"/>
      <point x="200" y="21"/>
      <point x="146" y="21" type="curve" smooth="yes"/>
      <point x="92" y="21"/>
      <point x="60" y="68"/>
      <point x="60" y="152" type="curve" smooth="yes"/>
      <point x="60" y="326"/>
      <point x="158" y="527"/>
      <point x="320" y="527" type="curve" smooth="yes"/>
      <point x="413" y="527"/>
      <point x="455" y="465"/>
      <point x="432" y="351" type="curve"/>
      <point x="456" y="350" type="line"/>
      <point x="480" y="475"/>
      <point x="433" y="551"/>
      <point x="323" y="551" type="curve" smooth="yes"/>
      <point x="145" y="551"/>
      <point x="34" y="346"/>
      <point x="34" y="151" type="curve" smooth="yes"/>
      <point x="34" y="54"/>
      <point x="74" y="-4"/>
    </contour>
  </outline>
</glyph>
<glyph name="aaMatra-tamil" format="2">
  <advance width="507"/>
  <unicode hex="0BBE"/>
  <note>
uni0BBE
</note>
  <anchor x="213" y="0" name="bottom"/>
  <anchor x="213" y="0" name="nukta"/>
  <anchor x="322" y="542" name="top"/>
  <anchor x="322" y="542" name="vedic"/>
  <outline>
    <contour>
      <point x="34" y="0" type="line"/>
      <point x="60" y="0" type="line"/>
      <point x="170" y="519" type="line"/>
      <point x="364" y="519" type="line"/>
      <point x="254" y="0" type="line"/>
      <point x="282" y="0" type="line"/>
      <point x="393" y="519" type="line"/>
      <point x="534" y="519" type="line"/>
      <point x="539" y="542" type="line"/>
      <point x="150" y="542" type="line"/>
    </contour>
  </outline>
</glyph>
<glyph name="iMatra-tamil" format="2">
  <advance width="168"/>
  <unicode hex="0BBF"/>
  <note>
uni0BBF
</note>
  <outline>
    <contour>
      <point x="2" y="0" type="line"/>
      <point x="28" y="0" type="line"/>
      <point x="148" y="563" type="line" smooth="yes"/>
      <point x="152" y="582"/>
      <point x="154" y="601"/>
      <point x="154" y="619" type="curve" smooth="yes"/>
      <point x="154" y="714"/>
      <point x="96" y="781"/>
      <point x="-9" y="781" type="curve" smooth="yes"/>
      <point x="-111" y="781"/>
      <point x="-174" y="705"/>
      <point x="-174" y="627" type="curve" smooth="yes"/>
      <point x="-174" y="561"/>
      <point x="-123" y="519"/>
      <point x="-70" y="519" type="curve" smooth="yes"/>
      <point x="-64" y="519" type="line"/>
      <point x="-59" y="542" type="line"/>
      <point x="-63" y="542" type="line" smooth="yes"/>
      <point x="-109" y="542"/>
      <point x="-147" y="576"/>
      <point x="-147" y="627" type="curve" smooth="yes"/>
      <point x="-147" y="684"/>
      <point x="-103" y="750"/>
      <point x="-10" y="750" type="curve" smooth="yes"/>
      <point x="80" y="750"/>
      <point x="125" y="692"/>
      <point x="125" y="609" type="curve" smooth="yes"/>
      <point x="125" y="591"/>
      <point x="123" y="572"/>
      <point x="119" y="552" type="curve" smooth="yes"/>
    </contour>
  </outline>
</glyph>
<glyph name="iiMatra-tamil" format="2">
  <unicode hex="0BC0"/>
  <note>
uni0BC0
</note>
  <anchor x="56" y="542" name="_imatra"/>
  <outline>
    <contour>
      <point x="44" y="521" type="curve" smooth="yes"/>
      <point x="52" y="521" type="line"/>
      <point x="56" y="542" type="line"/>
      <point x="51" y="542" type="line" smooth="yes"/>
      <point x="-10" y="542"/>
      <point x="-34" y="586"/>
      <point x="-34" y="666" type="curve" smooth="yes"/>
      <point x="-34" y="754"/>
      <point x="20" y="850"/>
      <point x="110" y="850" type="curve" smooth="yes"/>
      <point x="166" y="850"/>
      <point x="201" y="810"/>
      <point x="201" y="752" type="curve" smooth="yes"/>
      <point x="201" y="697"/>
      <point x="171" y="645"/>
      <point x="119" y="645" type="curve" smooth="yes"/>
      <point x="84" y="645"/>
      <point x="70" y="674"/>
      <point x="70" y="713" type="curve" smooth="yes"/>
      <point x="70" y="757"/>
      <point x="87" y="812"/>
      <point x="115" y="855" type="curve"/>
      <point x="94" y="859" type="line"/>
      <point x="63" y="813"/>
      <point x="45" y="757"/>
      <point x="45" y="712" type="curve" smooth="yes"/>
      <point x="45" y="661"/>
      <point x="68" y="622"/>
      <point x="119" y="622" type="curve" smooth="yes"/>
      <point x="183" y="622"/>
      <point x="230" y="681"/>
      <point x="230" y="750" type="curve" smooth="yes"/>
      <point x="230" y="823"/>
      <point x="185" y="872"/>
      <point x="112" y="872" type="curve" smooth="yes"/>
      <point x="7" y="872"/>
      <point x="-63" y="769"/>
      <point x="-63" y="665" type="curve" smooth="yes"/>
      <point x="-63" y="578"/>
      <point x="-28" y="521"/>
    </contour>
  </outline>
</glyph>
<glyph name="uMatra-tamil" format="2">
  <advance width="363"/>
  <unicode hex="0BC1"/>
  <note>
uni0BC1
</note>
  <outline>
    <contour>
      <point x="217" y="229" type="curve" smooth="yes"/>
      <point x="268" y="229"/>
      <point x="327" y="256"/>
      <point x="347" y="349" type="curve" smooth="yes"/>
      <point x="389" y="542" type="line"/>
      <point x="-132" y="542" type="line"/>
      <point x="-117" y="519" type="line"/>
      <point x="355" y="519" type="line"/>
      <point x="319" y="353" type="line" smooth="yes"/>
      <point x="303" y="278"/>
      <point x="259" y="255"/>
      <point x="216" y="255" type="curve" smooth="yes"/>
      <point x="158" y="255"/>
      <point x="132" y="300"/>
      <point x="148" y="379" type="curve" smooth="yes"/>
      <point x="179" y="529" type="line"/>
      <point x="154" y="529" type="line"/>
      <point x="123" y="382" type="line" smooth="yes"/>
      <point x="102" y="284"/>
      <point x="144" y="229"/>
    </contour>
  </outline>
</glyph>
<glyph name="eMatra-tamil" format="2">
  <advance width="589"/>
  <unicode hex="0BC6"/>
  <note>
uni0BC6
</note>
  <outline>
    <contour>
      <point x="167" y="-4" type="curve" smooth="yes"/>
      <point x="250" y="-4"/>
      <point x="316" y="68"/>
      <point x="316" y="167" type="curve" smooth="yes"/>
      <point x="316" y="246"/>
      <point x="269" y="290"/>
      <point x="209" y="290" type="curve" smooth="yes"/>
      <point x="143" y="290"/>
      <point x="91" y="233"/>
      <point x="55" y="159" type="curve"/>
      <point x="63" y="130" type="line"/>
      <point x="106" y="213"/>
      <point x="150" y="265"/>
      <point x="204" y="265" type="curve" smooth="yes"/>
      <point x="255" y="265"/>
      <point x="288" y="232"/>
      <point x="288" y="164" type="curve" smooth="yes"/>
      <point x="288" y="83"/>
      <point x="234" y="21"/>
      <point x="169" y="21" type="curve" smooth="yes"/>
      <point x="111" y="21"/>
      <point x="71" y="82"/>
      <point x="71" y="185" type="curve" smooth="yes"/>
      <point x="71" y="423"/>
      <point x="191" y="770"/>
      <point x="410" y="770" type="curve" smooth="yes"/>
      <point x="503" y="770"/>
      <point x="549" y="717"/>
      <point x="549" y="626" type="curve" smooth="yes"/>
      <point x="549" y="603"/>
      <point x="546" y="578"/>
      <point x="540" y="550" type="curve" smooth="yes"/>
      <point x="423" y="0" type="line"/>
      <point x="449" y="0" type="line"/>
      <point x="569" y="567" type="line" smooth="yes"/>
      <point x="574" y="589"/>
      <point x="576" y="611"/>
      <point x="576" y="631" type="curve" smooth="yes"/>
      <point x="576" y="731"/>
      <point x="519" y="800"/>
      <point x="414" y="800" type="curve" smooth="yes"/>
      <point x="174" y="800"/>
      <point x="45" y="447"/>
      <point x="45" y="182" type="curve" smooth="yes"/>
      <point x="45" y="66"/>
      <point x="93" y="-4"/>
    </contour>
  </outline>
</glyph>
<glyph name="eeMatra-tamil" format="2">
  <advance width="436"/>
  <unicode hex="0BC7"/>
  <note>
uni0BC7
</note>
  <outline>
    <contour>
      <point x="212" y="-4" type="curve" smooth="yes"/>
      <point x="292" y="-4"/>
      <point x="361" y="65"/>
      <point x="361" y="169" type="curve" smooth="yes"/>
      <point x="361" y="242"/>
      <point x="320" y="283"/>
      <point x="268" y="283" type="curve" smooth="yes"/>
      <point x="189" y="283"/>
      <point x="139" y="195"/>
      <point x="108" y="79" type="curve"/>
      <point x="123" y="54" type="line"/>
      <point x="160" y="177"/>
      <point x="200" y="258"/>
      <point x="264" y="258" type="curve" smooth="yes"/>
      <point x="307" y="258"/>
      <point x="333" y="228"/>
      <point x="333" y="166" type="curve" smooth="yes"/>
      <point x="333" y="80"/>
      <point x="278" y="21"/>
      <point x="214" y="21" type="curve" smooth="yes"/>
      <point x="104" y="21"/>
      <point x="87" y="186"/>
      <point x="87" y="270" type="curve" smooth="yes"/>
      <point x="87" y="474"/>
      <point x="208" y="755"/>
      <point x="360" y="755" type="curve" smooth="yes"/>
      <point x="412" y="755"/>
      <point x="448" y="729"/>
      <point x="448" y="660" type="curve" smooth="yes"/>
      <point x="448" y="591"/>
      <point x="403" y="519"/>
      <point x="345" y="519" type="curve" smooth="yes"/>
      <point x="271" y="519"/>
      <point x="271" y="635"/>
      <point x="286" y="747" type="curve"/>
      <point x="263" y="731" type="line"/>
      <point x="243" y="608"/>
      <point x="256" y="494"/>
      <point x="342" y="494" type="curve" smooth="yes"/>
      <point x="418" y="494"/>
      <point x="475" y="573"/>
      <point x="475" y="662" type="curve" smooth="yes"/>
      <point x="475" y="741"/>
      <point x="430" y="781"/>
      <point x="364" y="781" type="curve" smooth="yes"/>
      <point x="192" y="781"/>
      <point x="61" y="492"/>
      <point x="61" y="269" type="curve" smooth="yes"/>
      <point x="61" y="172"/>
      <point x="86" y="-4"/>
    </contour>
  </outline>
</glyph>
<glyph name="halant-tamil" format="2">
  <unicode hex="0BCD"/>
  <note>
uni0BCD
</note>
  <anchor x="56" y="542" name="_top"/>
  <anchor x="75" y="626" name="top"/>
  <outline>
    <contour>
      <point x="85" y="636" type="curve" smooth="yes"/>
      <point x="105" y="636"/>
      <point x="120" y="651"/>
      <point x="120" y="670" type="curve" smooth="yes"/>
      <point x="120" y="688"/>
      <point x="105" y="705"/>
      <point x="85" y="705" type="curve" smooth="yes"/>
      <point x="65" y="705"/>
      <point x="50" y="688"/>
      <point x="50" y="670" type="curve" smooth="yes"/>
      <point x="50" y="651"/>
      <point x="65" y="636"/>
    </contour>
  </outline>
</glyph>
<glyph name="om-tamil" format="2">
  <advance width="702"/>
  <unicode hex="0BD0"/>
  <note>
uni0BD0
</note>
  <outline>
    <contour>
      <point x="131" y="-279" type="curve" smooth="yes"/>
      <point x="281" y="-279"/>
      <point x="334" y="-111"/>
      <point x="464" y="-111" type="curve" smooth="yes"/>
      <point x="473" y="-111" type="line"/>
      <point x="478" y="-87" type="line"/>
      <point x="460" y="-87" type="line" smooth="yes"/>
      <point x="376" y="-87"/>
      <point x="338" y="-41"/>
      <point x="338" y="25" type="curve" smooth="yes"/>
      <point x="338" y="80"/>
      <point x="365" y="150"/>
      <point x="414" y="217" type="curve"/>
      <point x="417" y="215" type="line"/>
      <point x="396" y="169"/>
      <point x="385" y="125"/>
      <point x="385" y="88" type="curve" smooth="yes"/>
      <point x="385" y="33"/>
      <point x="410" y="-5"/>
      <point x="467" y="-5" type="curve" smooth="yes"/>
      <point x="574" y="-5"/>
      <point x="643" y="126"/>
      <point x="643" y="263" type="curve" smooth="yes"/>
      <point x="643" y="444"/>
      <point x="535" y="551"/>
      <point x="378" y="551" type="curve" smooth="yes"/>
      <point x="187" y="551"/>
      <point x="34" y="359"/>
      <point x="34" y="164" type="curve" smooth="yes"/>
      <point x="34" y="53"/>
      <point x="76" y="-4"/>
      <point x="146" y="-4" type="curve" smooth="yes"/>
      <point x="218" y="-4"/>
      <point x="277" y="66"/>
      <point x="277" y="165" type="curve" smooth="yes"/>
      <point x="277" y="244"/>
      <point x="236" y="283"/>
      <point x="182" y="283" type="curve" smooth="yes"/>
      <point x="120" y="283"/>
      <point x="73" y="234"/>
      <point x="45" y="177" type="curve"/>
      <point x="51" y="148" type="line"/>
      <point x="86" y="214"/>
      <point x="124" y="258"/>
      <point x="178" y="258" type="curve" smooth="yes"/>
      <point x="223" y="258"/>
      <point x="249" y="230"/>
      <point x="249" y="162" type="curve" smooth="yes"/>
      <point x="249" y="81"/>
      <point x="202" y="21"/>
      <point x="148" y="21" type="curve" smooth="yes"/>
      <point x="94" y="21"/>
      <point x="60" y="67"/>
      <point x="60" y="165" type="curve" smooth="yes"/>
      <point x="60" y="339"/>
      <point x="203" y="527"/>
      <point x="375" y="527" type="curve" smooth="yes"/>
      <point x="517" y="527"/>
      <point x="613" y="425"/>
      <point x="613" y="258" type="curve" smooth="yes"/>
      <point x="613" y="145"/>
      <point x="558" y="21"/>
      <point x="470" y="21" type="curve" smooth="yes"/>
      <point x="429" y="21"/>
      <point x="411" y="52"/>
      <point x="411" y="96" type="curve" smooth="yes"/>
      <point x="411" y="138"/>
      <point x="427" y="193"/>
      <point x="455" y="244" type="curve"/>
      <point x="419" y="262" type="line"/>
      <point x="353" y="181"/>
      <point x="313" y="92"/>
      <point x="313" y="22" type="curve" smooth="yes"/>
      <point x="313" y="-35"/>
      <point x="339" y="-79"/>
      <point x="399" y="-98" type="curve"/>
      <point x="399" y="-102" type="line"/>
      <point x="307" y="-121"/>
      <point x="256" y="-252"/>
      <point x="129" y="-252" type="curve" smooth="yes"/>
      <point x="69" y="-252"/>
      <point x="38" y="-217"/>
      <point x="38" y="-170" type="curve" smooth="yes"/>
      <point x="38" y="-158"/>
      <point x="41" y="-145"/>
      <point x="45" y="-131" type="curve"/>
      <point x="20" y="-128" type="line"/>
      <point x="14" y="-145"/>
      <point x="12" y="-161"/>
      <point x="12" y="-176" type="curve" smooth="yes"/>
      <point x="12" y="-235"/>
      <point x="53" y="-279"/>
    </contour>
    <contour>
      <point x="77" y="-202" type="line"/>
      <point x="99" y="-202" type="line"/>
      <point x="129" y="-64" type="line"/>
      <point x="106" y="-64" type="line"/>
    </contour>
    <contour>
      <point x="85" y="-202" type="line"/>
      <point x="211" y="-202" type="line"/>
      <point x="216" y="-181" type="line"/>
      <point x="89" y="-181" type="line"/>
    </contour>
    <contour>
      <point x="136" y="-202" type="line"/>
      <point x="158" y="-202" type="line"/>
      <point x="177" y="-109" type="line" smooth="yes"/>
      <point x="180" y="-93"/>
      <point x="189" y="-84"/>
      <point x="202" y="-84" type="curve" smooth="yes"/>
      <point x="217" y="-84"/>
      <point x="220" y="-98"/>
      <point x="217" y="-112" type="curve" smooth="yes"/>
      <point x="198" y="-202" type="line"/>
      <point x="221" y="-202" type="line"/>
      <point x="239" y="-116" type="line" smooth="yes"/>
      <point x="245" y="-82"/>
      <point x="233" y="-62"/>
      <point x="204" y="-62" type="curve" smooth="yes"/>
      <point x="180" y="-62"/>
      <point x="161" y="-78"/>
      <point x="155" y="-107" type="curve" smooth="yes"/>
    </contour>
    <contour>
      <point x="182" y="-51" type="curve" smooth="yes"/>
      <point x="192" y="-51"/>
      <point x="200" y="-43"/>
      <point x="200" y="-33" type="curve"/>
      <point x="200" y="-24"/>
      <point x="192" y="-15"/>
      <point x="182" y="-15" type="curve" smooth="yes"/>
      <point x="172" y="-15"/>
      <point x="163" y="-24"/>
      <point x="163" y="-33" type="curve" smooth="yes"/>
      <point x="163" y="-43"/>
      <point x="172" y="-51"/>
    </contour>
  </outline>
</glyph>
<glyph name="one-tamil" format="2">
  <advance width="577"/>
  <unicode hex="0BE7"/>
  <note>
uni0BE7
</note>
  <outline>
    <contour>
      <point x="152" y="-4" type="curve" smooth="yes"/>
      <point x="221" y="-4"/>
      <point x="277" y="36"/>
      <point x="301" y="153" type="curve" smooth="yes"/>
      <point x="326" y="275" type="line"/>
      <point x="360" y="275" type="line" smooth="yes"/>
      <point x="425" y="275"/>
      <point x="474" y="249"/>
      <point x="474" y="169" type="curve" smooth="yes"/>
      <point x="474" y="86"/>
      <point x="421" y="21"/>
      <point x="350" y="21" type="curve" smooth="yes"/>
      <point x="310" y="21"/>
      <point x="282" y="43"/>
      <point x="272" y="78" type="curve"/>
      <point x="250" y="62" type="line"/>
      <point x="264" y="25"/>
      <point x="298" y="-4"/>
      <point x="351" y="-4" type="curve" smooth="yes"/>
      <point x="438" y="-4"/>
      <point x="503" y="70"/>
      <point x="503" y="172" type="curve" smooth="yes"/>
      <point x="503" y="264"/>
      <point x="446" y="299"/>
      <point x="364" y="299" type="curve" smooth="yes"/>
      <point x="331" y="299" type="line"/>
      <point x="378" y="519" type="line"/>
      <point x="495" y="519" type="line"/>
      <point x="500" y="542" type="line"/>
      <point x="195" y="542" type="line"/>
      <point x="141" y="284" type="line"/>
      <point x="166" y="284" type="line"/>
      <point x="216" y="519" type="line"/>
      <point x="350" y="519" type="line"/>
      <point x="304" y="299" type="line"/>
      <point x="184" y="299" type="line" smooth="yes"/>
      <point x="83" y="299"/>
      <point x="27" y="218"/>
      <point x="27" y="135" type="curve" smooth="yes"/>
      <point x="27" y="63"/>
      <point x="74" y="-4"/>
    </contour>
    <contour>
      <point x="156" y="21" type="curve" smooth="yes"/>
      <point x="87" y="21"/>
      <point x="57" y="78"/>
      <point x="57" y="139" type="curve" smooth="yes"/>
      <point x="57" y="210"/>
      <point x="98" y="275"/>
      <point x="183" y="275" type="curve" smooth="yes"/>
      <point x="298" y="275" type="line"/>
      <point x="274" y="154" type="line" smooth="yes"/>
      <point x="255" y="56"/>
      <point x="209" y="21"/>
    </contour>
  </outline>
</glyph>
<glyph name="two-tamil" format="2">
  <advance width="660"/>
  <unicode hex="0BE8"/>
  <note>
uni0BE8
</note>
  <outline>
    <contour>
      <point x="84" y="0" type="curve" smooth="yes"/>
      <point x="576" y="0" type="line"/>
      <point x="581" y="23" type="line"/>
      <point x="87" y="23" type="line" smooth="yes"/>
      <point x="50" y="23"/>
      <point x="29" y="48"/>
      <point x="29" y="82" type="curve" smooth="yes"/>
      <point x="29" y="121"/>
      <point x="58" y="146"/>
      <point x="99" y="146" type="curve" smooth="yes"/>
      <point x="262" y="146" type="line" smooth="yes"/>
      <point x="398" y="146"/>
      <point x="482" y="243"/>
      <point x="482" y="377" type="curve" smooth="yes"/>
      <point x="482" y="484"/>
      <point x="414" y="551"/>
      <point x="317" y="551" type="curve" smooth="yes"/>
      <point x="192" y="551"/>
      <point x="111" y="443"/>
      <point x="111" y="322" type="curve" smooth="yes"/>
      <point x="111" y="219"/>
      <point x="170" y="150"/>
      <point x="257" y="150" type="curve"/>
      <point x="262" y="170" type="line"/>
      <point x="185" y="170"/>
      <point x="136" y="231"/>
      <point x="136" y="323" type="curve" smooth="yes"/>
      <point x="136" y="428"/>
      <point x="205" y="527"/>
      <point x="315" y="527" type="curve" smooth="yes"/>
      <point x="402" y="527"/>
      <point x="453" y="468"/>
      <point x="453" y="374" type="curve" smooth="yes"/>
      <point x="453" y="256"/>
      <point x="383" y="170"/>
      <point x="263" y="170" type="curve" smooth="yes"/>
      <point x="101" y="170" type="line" smooth="yes"/>
      <point x="43" y="170"/>
      <point x="4" y="133"/>
      <point x="4" y="80" type="curve" smooth="yes"/>
      <point x="4" y="36"/>
      <point x="31" y="0"/>
    </contour>
  </outline>
</glyph>
<glyph name="three-tamil" format="2">
  <advance width="653"/>
  <unicode hex="0BE9"/>
  <note>
uni0BE9
</note>
  <outline>
    <contour>
      <point x="34" y="0" type="line"/>
      <point x="60" y="0" type="line"/>
      <point x="170" y="519" type="line"/>
      <point x="323" y="519" type="line"/>
      <point x="253" y="188" type="line"/>
      <point x="281" y="188" type="line"/>
      <point x="287" y="219" type="line" smooth="yes"/>
      <point x="297" y="271"/>
      <point x="339" y="332"/>
      <point x="394" y="332" type="curve" smooth="yes"/>
      <point x="432" y="332"/>
      <point x="455" y="300"/>
      <point x="455" y="246" type="curve" smooth="yes"/>
      <point x="455" y="139"/>
      <point x="368" y="23"/>
      <point x="263" y="23" type="curve" smooth="yes"/>
      <point x="218" y="23" type="line"/>
      <point x="213" y="0" type="line"/>
      <point x="568" y="0" type="line"/>
      <point x="573" y="23" type="line"/>
      <point x="338" y="23" type="line"/>
      <point x="425" y="63"/>
      <point x="485" y="149"/>
      <point x="485" y="249" type="curve" smooth="yes"/>
      <point x="485" y="313"/>
      <point x="452" y="355"/>
      <point x="399" y="355" type="curve" smooth="yes"/>
      <point x="359" y="355"/>
      <point x="324" y="330"/>
      <point x="303" y="296" type="curve"/>
      <point x="351" y="519" type="line"/>
      <point x="480" y="519" type="line"/>
      <point x="484" y="542" type="line"/>
      <point x="150" y="542" type="line"/>
    </contour>
  </outline>
</glyph>
<glyph name="four-tamil" format="2">
  <advance width="597"/>
  <unicode hex="0BEA"/>
  <note>
uni0BEA
</note>
  <outline>
    <contour>
      <point x="152" y="-4" type="curve" smooth="yes"/>
      <point x="221" y="-4"/>
      <point x="277" y="36"/>
      <point x="301" y="153" type="curve" smooth="yes"/>
      <point x="326" y="275" type="line"/>
      <point x="552" y="275" type="line"/>
      <point x="609" y="542" type="line"/>
      <point x="584" y="542" type="line"/>
      <point x="532" y="299" type="line"/>
      <point x="331" y="299" type="line"/>
      <point x="378" y="519" type="line"/>
      <point x="495" y="519" type="line"/>
      <point x="500" y="542" type="line"/>
      <point x="195" y="542" type="line"/>
      <point x="141" y="284" type="line"/>
      <point x="166" y="284" type="line"/>
      <point x="216" y="519" type="line"/>
      <point x="350" y="519" type="line"/>
      <point x="304" y="299" type="line"/>
      <point x="184" y="299" type="line" smooth="yes"/>
      <point x="83" y="299"/>
      <point x="27" y="218"/>
      <point x="27" y="135" type="curve" smooth="yes"/>
      <point x="27" y="63"/>
      <point x="74" y="-4"/>
    </contour>
    <contour>
      <point x="156" y="21" type="curve" smooth="yes"/>
      <point x="87" y="21"/>
      <point x="57" y="78"/>
      <point x="57" y="139" type="curve" smooth="yes"/>
      <point x="57" y="210"/>
      <point x="98" y="275"/>
      <point x="183" y="275" type="curve" smooth="yes"/>
      <point x="298" y="275" type="line"/>
      <point x="274" y="154" type="line" smooth="yes"/>
      <point x="255" y="56"/>
      <point x="209" y="21"/>
    </contour>
  </outline>
</glyph>
<glyph name="five-tamil" format="2">
  <advance width="756"/>
  <unicode hex="0BEB"/>
  <note>
uni0BEB
</note>
  <outline>
    <contour>
      <point x="259" y="-278" type="curve" smooth="yes"/>
      <point x="472" y="-278"/>
      <point x="624" y="-58"/>
      <point x="624" y="184" type="curve" smooth="yes"/>
      <point x="624" y="285"/>
      <point x="583" y="328"/>
      <point x="528" y="328" type="curve" smooth="yes"/>
      <point x="466" y="328"/>
      <point x="424" y="271"/>
      <point x="407" y="189" type="curve" smooth="yes"/>
      <point x="402" y="165" type="line"/>
      <point x="414" y="165" type="line"/>
      <point x="418" y="185" type="line" smooth="yes"/>
      <point x="428" y="237"/>
      <point x="466" y="304"/>
      <point x="522" y="304" type="curve" smooth="yes"/>
      <point x="566" y="304"/>
      <point x="594" y="270"/>
      <point x="594" y="186" type="curve" smooth="yes"/>
      <point x="594" y="-41"/>
      <point x="453" y="-252"/>
      <point x="260" y="-252" type="curve" smooth="yes"/>
      <point x="109" y="-252"/>
      <point x="42" y="-112"/>
      <point x="42" y="111" type="curve" smooth="yes"/>
      <point x="42" y="392"/>
      <point x="192" y="761"/>
      <point x="450" y="761" type="curve" smooth="yes"/>
      <point x="627" y="761"/>
      <point x="714" y="612"/>
      <point x="698" y="407" type="curve"/>
      <point x="724" y="407" type="line"/>
      <point x="750" y="623"/>
      <point x="647" y="792"/>
      <point x="456" y="792" type="curve" smooth="yes"/>
      <point x="176" y="792"/>
      <point x="14" y="414"/>
      <point x="14" y="111" type="curve" smooth="yes"/>
      <point x="14" y="-123"/>
      <point x="88" y="-278"/>
    </contour>
    <contour>
      <point x="165" y="0" type="line"/>
      <point x="190" y="0" type="line"/>
      <point x="300" y="519" type="line"/>
      <point x="461" y="519" type="line"/>
      <point x="351" y="0" type="line"/>
      <point x="379" y="0" type="line"/>
      <point x="490" y="519" type="line"/>
      <point x="604" y="519" type="line"/>
      <point x="609" y="542" type="line"/>
      <point x="280" y="542" type="line"/>
    </contour>
  </outline>
</glyph>
<glyph name="six-tamil" format="2">
  <advance width="735"/>
  <unicode hex="0BEC"/>
  <note>
uni0BEC
</note>
  <outline>
    <contour>
      <point x="152" y="-4" type="curve" smooth="yes"/>
      <point x="221" y="-4"/>
      <point x="277" y="36"/>
      <point x="301" y="153" type="curve" smooth="yes"/>
      <point x="326" y="275" type="line"/>
      <point x="400" y="275" type="line" smooth="yes"/>
      <point x="426" y="275"/>
      <point x="442" y="260"/>
      <point x="436" y="233" type="curve" smooth="yes"/>
      <point x="386" y="0" type="line"/>
      <point x="413" y="0" type="line"/>
      <point x="461" y="228" type="line" smooth="yes"/>
      <point x="467" y="255"/>
      <point x="484" y="275"/>
      <point x="510" y="275" type="curve" smooth="yes"/>
      <point x="688" y="275" type="line"/>
      <point x="693" y="299" type="line"/>
      <point x="514" y="299" type="line" smooth="yes"/>
      <point x="487" y="299"/>
      <point x="468" y="289"/>
      <point x="454" y="264" type="curve"/>
      <point x="449" y="288"/>
      <point x="430" y="299"/>
      <point x="404" y="299" type="curve" smooth="yes"/>
      <point x="331" y="299" type="line"/>
      <point x="378" y="519" type="line"/>
      <point x="495" y="519" type="line"/>
      <point x="500" y="542" type="line"/>
      <point x="195" y="542" type="line"/>
      <point x="141" y="284" type="line"/>
      <point x="166" y="284" type="line"/>
      <point x="216" y="519" type="line"/>
      <point x="350" y="519" type="line"/>
      <point x="304" y="299" type="line"/>
      <point x="184" y="299" type="line" smooth="yes"/>
      <point x="83" y="299"/>
      <point x="27" y="218"/>
      <point x="27" y="135" type="curve" smooth="yes"/>
      <point x="27" y="63"/>
      <point x="74" y="-4"/>
    </contour>
    <contour>
      <point x="156" y="21" type="curve" smooth="yes"/>
      <point x="87" y="21"/>
      <point x="57" y="78"/>
      <point x="57" y="139" type="curve" smooth="yes"/>
      <point x="57" y="210"/>
      <point x="98" y="275"/>
      <point x="183" y="275" type="curve" smooth="yes"/>
      <point x="298" y="275" type="line"/>
      <point x="274" y="154" type="line" smooth="yes"/>
      <point x="255" y="56"/>
      <point x="209" y="21"/>
    </contour>
    <contour>
      <point x="538" y="0" type="line"/>
      <point x="563" y="0" type="line"/>
      <point x="625" y="288" type="line"/>
      <point x="599" y="288" type="line"/>
    </contour>
  </outline>
</glyph>
<glyph name="eight-tamil" format="2">
  <advance width="914"/>
  <unicode hex="0BEE"/>
  <note>
uni0BEE
</note>
  <outline>
    <contour>
      <point x="707" y="-136" type="line"/>
      <point x="735" y="-136" type="line"/>
      <point x="880" y="542" type="line"/>
      <point x="851" y="542" type="line"/>
      <point x="771" y="164" type="line"/>
      <point x="51" y="164" type="line" smooth="yes"/>
      <point x="12" y="164"/>
      <point x="-5" y="135"/>
      <point x="-5" y="98" type="curve" smooth="yes"/>
      <point x="-5" y="26"/>
      <point x="85" y="-75"/>
      <point x="252" y="-75" type="curve" smooth="yes"/>
      <point x="499" y="-75"/>
      <point x="661" y="97"/>
      <point x="661" y="344" type="curve" smooth="yes"/>
      <point x="661" y="459"/>
      <point x="605" y="551"/>
      <point x="497" y="551" type="curve" smooth="yes"/>
      <point x="366" y="551"/>
      <point x="285" y="411"/>
      <point x="285" y="289" type="curve" smooth="yes"/>
      <point x="285" y="232"/>
      <point x="296" y="175"/>
      <point x="310" y="148" type="curve"/>
      <point x="336" y="148" type="line"/>
      <point x="320" y="177"/>
      <point x="309" y="235"/>
      <point x="309" y="289" type="curve" smooth="yes"/>
      <point x="309" y="391"/>
      <point x="380" y="527"/>
      <point x="493" y="527" type="curve" smooth="yes"/>
      <point x="592" y="527"/>
      <point x="632" y="441"/>
      <point x="632" y="343" type="curve" smooth="yes"/>
      <point x="632" y="120"/>
      <point x="485" y="-49"/>
      <point x="254" y="-49" type="curve" smooth="yes"/>
      <point x="109" y="-49"/>
      <point x="23" y="34"/>
      <point x="23" y="102" type="curve" smooth="yes"/>
      <point x="23" y="124"/>
      <point x="34" y="141"/>
      <point x="53" y="141" type="curve" smooth="yes"/>
      <point x="766" y="141" type="line"/>
    </contour>
  </outline>
</glyph>
<glyph name="nine-tamil" format="2">
  <advance width="871"/>
  <unicode hex="0BEF"/>
  <note>
uni0BEF
</note>
  <outline>
    <contour>
      <point x="689" y="-8" type="line"/>
      <point x="760" y="62"/>
      <point x="810" y="139"/>
      <point x="810" y="243" type="curve" smooth="yes"/>
      <point x="810" y="348"/>
      <point x="743" y="414"/>
      <point x="642" y="414" type="curve" smooth="yes"/>
      <point x="494" y="414"/>
      <point x="398" y="260"/>
      <point x="398" y="122" type="curve" smooth="yes"/>
      <point x="398" y="42"/>
      <point x="431" y="-4"/>
      <point x="489" y="-4" type="curve" smooth="yes"/>
      <point x="565" y="-4"/>
      <point x="620" y="70"/>
      <point x="620" y="157" type="curve" smooth="yes"/>
      <point x="620" y="252"/>
      <point x="560" y="299"/>
      <point x="479" y="299" type="curve" smooth="yes"/>
      <point x="331" y="299" type="line"/>
      <point x="378" y="519" type="line"/>
      <point x="495" y="519" type="line"/>
      <point x="500" y="542" type="line"/>
      <point x="195" y="542" type="line"/>
      <point x="141" y="284" type="line"/>
      <point x="166" y="284" type="line"/>
      <point x="216" y="519" type="line"/>
      <point x="350" y="519" type="line"/>
      <point x="304" y="299" type="line"/>
      <point x="184" y="299" type="line" smooth="yes"/>
      <point x="83" y="299"/>
      <point x="27" y="218"/>
      <point x="27" y="135" type="curve" smooth="yes"/>
      <point x="27" y="63"/>
      <point x="74" y="-4"/>
      <point x="152" y="-4" type="curve" smooth="yes"/>
      <point x="221" y="-4"/>
      <point x="277" y="36"/>
      <point x="301" y="153" type="curve" smooth="yes"/>
      <point x="326" y="275" type="line"/>
      <point x="474" y="275" type="line" smooth="yes"/>
      <point x="538" y="275"/>
      <point x="590" y="241"/>
      <point x="590" y="154" type="curve" smooth="yes"/>
      <point x="590" y="91"/>
      <point x="554" y="21"/>
      <point x="490" y="21" type="curve" smooth="yes"/>
      <point x="447" y="21"/>
      <point x="426" y="59"/>
      <point x="426" y="125" type="curve" smooth="yes"/>
      <point x="426" y="246"/>
      <point x="507" y="390"/>
      <point x="639" y="390" type="curve" smooth="yes"/>
      <point x="725" y="390"/>
      <point x="781" y="331"/>
      <point x="781" y="240" type="curve" smooth="yes"/>
      <point x="781" y="149"/>
      <point x="738" y="74"/>
      <point x="673" y="9" type="curve"/>
    </contour>
    <contour>
      <point x="156" y="21" type="curve" smooth="yes"/>
      <point x="87" y="21"/>
      <point x="57" y="78"/>
      <point x="57" y="139" type="curve" smooth="yes"/>
      <point x="57" y="210"/>
      <point x="98" y="275"/>
      <point x="183" y="275" type="curve" smooth="yes"/>
      <point x="298" y="275" type="line"/>
      <point x="274" y="154" type="line" smooth="yes"/>
      <point x="255" y="56"/>
      <point x="209" y="21"/>
    </contour>
  </outline>
</glyph>
<glyph name="onehundred-tamil" format="2">
  <advance width="662"/>
  <unicode hex="0BF1"/>
  <note>
uni0BF1
</note>
  <outline>
    <contour>
      <point x="188" y="0" type="line"/>
      <point x="215" y="0" type="line"/>
      <point x="325" y="519" type="line"/>
      <point x="520" y="519" type="line"/>
      <point x="410" y="0" type="line"/>
      <point x="437" y="0" type="line"/>
      <point x="547" y="519" type="line"/>
      <point x="684" y="519" type="line"/>
      <point x="688" y="542" type="line"/>
      <point x="303" y="542" type="line"/>
    </contour>
    <contour>
      <point x="17" y="0" type="line"/>
      <point x="42" y="0" type="line"/>
      <point x="136" y="439" type="line" smooth="yes"/>
      <point x="146" y="486"/>
      <point x="171" y="521"/>
      <point x="217" y="521" type="curve" smooth="yes"/>
      <point x="266" y="521"/>
      <point x="290" y="481"/>
      <point x="276" y="416" type="curve"/>
      <point x="295" y="416" type="line"/>
      <point x="313" y="503"/>
      <point x="272" y="547"/>
      <point x="216" y="547" type="curve" smooth="yes"/>
      <point x="161" y="547"/>
      <point x="125" y="503"/>
      <point x="110" y="434" type="curve" smooth="yes"/>
    </contour>
  </outline>
</glyph>
<glyph name="day-tamil" format="2">
  <advance width="712"/>
  <unicode hex="0BF3"/>
  <note>
uni0BF3
</note>
  <outline>
    <contour>
      <point x="146" y="-4" type="curve" smooth="yes"/>
      <point x="218" y="-4"/>
      <point x="277" y="66"/>
      <point x="277" y="165" type="curve" smooth="yes"/>
      <point x="277" y="244"/>
      <point x="236" y="283"/>
      <point x="182" y="283" type="curve" smooth="yes"/>
      <point x="120" y="283"/>
      <point x="73" y="234"/>
      <point x="45" y="177" type="curve"/>
      <point x="51" y="148" type="line"/>
      <point x="86" y="214"/>
      <point x="124" y="258"/>
      <point x="178" y="258" type="curve" smooth="yes"/>
      <point x="223" y="258"/>
      <point x="249" y="230"/>
      <point x="249" y="162" type="curve" smooth="yes"/>
      <point x="249" y="81"/>
      <point x="202" y="21"/>
      <point x="148" y="21" type="curve" smooth="yes"/>
      <point x="94" y="21"/>
      <point x="60" y="68"/>
      <point x="60" y="152" type="curve" smooth="yes"/>
      <point x="60" y="326"/>
      <point x="165" y="528"/>
      <point x="332" y="528" type="curve" smooth="yes"/>
      <point x="434" y="528"/>
      <point x="492" y="464"/>
      <point x="492" y="339" type="curve" smooth="yes"/>
      <point x="492" y="226"/>
      <point x="439" y="112"/>
      <point x="356" y="19" type="curve"/>
      <point x="368" y="0" type="line"/>
      <point x="627" y="0" type="line"/>
      <point x="632" y="23" type="line"/>
      <point x="390" y="23" type="line"/>
      <point x="469" y="116"/>
      <point x="522" y="221"/>
      <point x="522" y="340" type="curve" smooth="yes"/>
      <point x="522" y="476"/>
      <point x="449" y="552"/>
      <point x="335" y="552" type="curve" smooth="yes"/>
      <point x="152" y="552"/>
      <point x="34" y="346"/>
      <point x="34" y="151" type="curve" smooth="yes"/>
      <point x="34" y="54"/>
      <point x="76" y="-4"/>
    </contour>
  </outline>
</glyph>
<glyph name="month-tamil" format="2">
  <advance width="774"/>
  <unicode hex="0BF4"/>
  <note>
uni0BF4
</note>
  <anchor x="270" y="0" name="bottom"/>
  <anchor x="635" y="542" name="imatra"/>
  <anchor x="270" y="0" name="nukta"/>
  <anchor x="403" y="542" name="top"/>
  <anchor x="399" y="542" name="vedic"/>
  <outline>
    <contour>
      <point x="553" y="471" type="curve"/>
      <point x="568" y="482" type="line"/>
      <point x="556" y="509"/>
      <point x="548" y="551"/>
      <point x="548" y="588" type="curve" smooth="yes"/>
      <point x="548" y="682"/>
      <point x="589" y="778"/>
      <point x="675" y="778" type="curve" smooth="yes"/>
      <point x="718" y="778"/>
      <point x="750" y="738"/>
      <point x="750" y="681" type="curve" smooth="yes"/>
      <point x="750" y="629"/>
      <point x="726" y="581"/>
      <point x="684" y="581" type="curve" smooth="yes"/>
      <point x="659" y="581"/>
      <point x="644" y="605"/>
      <point x="644" y="654" type="curve" smooth="yes"/>
      <point x="644" y="745"/>
      <point x="705" y="852"/>
      <point x="781" y="852" type="curve" smooth="yes"/>
      <point x="836" y="852"/>
      <point x="865" y="815"/>
      <point x="853" y="761" type="curve" smooth="yes"/>
      <point x="810" y="563" type="line"/>
      <point x="839" y="563" type="line"/>
      <point x="879" y="756" type="line" smooth="yes"/>
      <point x="892" y="818"/>
      <point x="915" y="855"/>
      <point x="966" y="849" type="curve"/>
      <point x="973" y="875" type="line"/>
      <point x="925" y="880"/>
      <point x="891" y="850"/>
      <point x="876" y="814" type="curve"/>
      <point x="873" y="814" type="line"/>
      <point x="863" y="850"/>
      <point x="832" y="874"/>
      <point x="788" y="874" type="curve" smooth="yes"/>
      <point x="694" y="874"/>
      <point x="621" y="758"/>
      <point x="621" y="649" type="curve" smooth="yes"/>
      <point x="621" y="590"/>
      <point x="644" y="560"/>
      <point x="684" y="560" type="curve" smooth="yes"/>
      <point x="743" y="560"/>
      <point x="777" y="619"/>
      <point x="777" y="685" type="curve" smooth="yes"/>
      <point x="777" y="753"/>
      <point x="736" y="799"/>
      <point x="676" y="799" type="curve" smooth="yes"/>
      <point x="577" y="799"/>
      <point x="524" y="696"/>
      <point x="524" y="591" type="curve" smooth="yes"/>
      <point x="524" y="555"/>
      <point x="533" y="510"/>
    </contour>
    <component base="ma-tamil"/>
  </outline>
</glyph>
<glyph name="year-tamil" format="2">
  <advance width="1510"/>
  <unicode hex="0BF5"/>
  <note>
uni0BF5
</note>
  <anchor x="540" y="0" name="bottom"/>
  <anchor x="1010" y="542" name="imatra"/>
  <anchor x="540" y="0" name="nukta"/>
  <anchor x="676" y="542" name="top"/>
  <anchor x="661" y="542" name="vedic"/>
  <outline>
    <contour>
      <point x="496" y="-250" type="curve" smooth="yes"/>
      <point x="781" y="-250"/>
      <point x="1044" y="-85"/>
      <point x="1044" y="209" type="curve" smooth="yes"/>
      <point x="1044" y="285"/>
      <point x="1005" y="328"/>
      <point x="945" y="328" type="curve" smooth="yes"/>
      <point x="879" y="328"/>
      <point x="839" y="276"/>
      <point x="821" y="184" type="curve" smooth="yes"/>
      <point x="818" y="169" type="line"/>
      <point x="832" y="169" type="line"/>
      <point x="834" y="182" type="line" smooth="yes"/>
      <point x="845" y="256"/>
      <point x="886" y="304"/>
      <point x="941" y="304" type="curve" smooth="yes"/>
      <point x="984" y="304"/>
      <point x="1013" y="273"/>
      <point x="1013" y="210" type="curve" smooth="yes"/>
      <point x="1013" y="-66"/>
      <point x="765" y="-224"/>
      <point x="497" y="-224" type="curve" smooth="yes"/>
      <point x="242" y="-224"/>
      <point x="69" y="-78"/>
      <point x="69" y="171" type="curve" smooth="yes"/>
      <point x="69" y="533"/>
      <point x="336" y="765"/>
      <point x="712" y="765" type="curve" smooth="yes"/>
      <point x="1042" y="765"/>
      <point x="1254" y="588"/>
      <point x="1196" y="333" type="curve" smooth="yes"/>
      <point x="1152" y="139" type="line" smooth="yes"/>
      <point x="1133" y="55"/>
      <point x="1153" y="-4"/>
      <point x="1230" y="-4" type="curve" smooth="yes"/>
      <point x="1356" y="-4"/>
      <point x="1464" y="167"/>
      <point x="1464" y="366" type="curve" smooth="yes"/>
      <point x="1464" y="443"/>
      <point x="1450" y="491"/>
      <point x="1428" y="547" type="curve"/>
      <point x="1399" y="534" type="line"/>
      <point x="1418" y="488"/>
      <point x="1436" y="432"/>
      <point x="1436" y="363" type="curve" smooth="yes"/>
      <point x="1436" y="192"/>
      <point x="1342" y="20"/>
      <point x="1234" y="20" type="curve" smooth="yes"/>
      <point x="1171" y="20"/>
      <point x="1166" y="70"/>
      <point x="1181" y="138" type="curve" smooth="yes"/>
      <point x="1224" y="332" type="line" smooth="yes"/>
      <point x="1284" y="601"/>
      <point x="1068" y="791"/>
      <point x="715" y="791" type="curve" smooth="yes"/>
      <point x="327" y="791"/>
      <point x="40" y="546"/>
      <point x="40" y="168" type="curve" smooth="yes"/>
      <point x="40" y="-91"/>
      <point x="228" y="-250"/>
    </contour>
    <component base="lla-tamil" xOffset="156"/>
  </outline>
</glyph>
<glyph name="debit-tamil" format="2">
  <advance width="818"/>
  <unicode hex="0BF6"/>
  <note>
uni0BF6
</note>
  <outline>
    <contour>
      <point x="181" y="-250" type="curve" smooth="yes"/>
      <point x="307" y="-250"/>
      <point x="440" y="-191"/>
      <point x="476" y="-21" type="curve" smooth="yes"/>
      <point x="596" y="542" type="line"/>
      <point x="568" y="542" type="line"/>
      <point x="449" y="-18" type="line" smooth="yes"/>
      <point x="417" y="-168"/>
      <point x="298" y="-224"/>
      <point x="179" y="-224" type="curve" smooth="yes"/>
      <point x="73" y="-224"/>
      <point x="15" y="-169"/>
      <point x="15" y="-121" type="curve" smooth="yes"/>
      <point x="15" y="-102"/>
      <point x="25" y="-92"/>
      <point x="46" y="-92" type="curve" smooth="yes"/>
      <point x="649" y="-92" type="line"/>
      <point x="784" y="542" type="line"/>
      <point x="755" y="542" type="line"/>
      <point x="625" y="-68" type="line"/>
      <point x="49" y="-68" type="line" smooth="yes"/>
      <point x="6" y="-68"/>
      <point x="-11" y="-92"/>
      <point x="-11" y="-123" type="curve" smooth="yes"/>
      <point x="-11" y="-177"/>
      <point x="50" y="-250"/>
    </contour>
    <contour>
      <point x="38" y="11" type="line"/>
      <point x="468" y="11" type="line"/>
      <point x="473" y="35" type="line"/>
      <point x="71" y="35" type="line"/>
      <point x="179" y="542" type="line"/>
      <point x="150" y="542" type="line"/>
    </contour>
  </outline>
</glyph>
<glyph name="asabove-tamil" format="2">
  <advance width="1300"/>
  <unicode hex="0BF8"/>
  <note>
uni0BF8
</note>
  <outline>
    <contour>
      <point x="438" y="-5" type="curve" smooth="yes"/>
      <point x="560" y="-5"/>
      <point x="624" y="184"/>
      <point x="624" y="336" type="curve" smooth="yes"/>
      <point x="624" y="514"/>
      <point x="532" y="635"/>
      <point x="385" y="635" type="curve" smooth="yes"/>
      <point x="195" y="635"/>
      <point x="36" y="396"/>
      <point x="36" y="151" type="curve" smooth="yes"/>
      <point x="36" y="59"/>
      <point x="74" y="-4"/>
      <point x="144" y="-4" type="curve" smooth="yes"/>
      <point x="219" y="-4"/>
      <point x="279" y="66"/>
      <point x="279" y="165" type="curve" smooth="yes"/>
      <point x="279" y="244"/>
      <point x="238" y="283"/>
      <point x="184" y="283" type="curve" smooth="yes"/>
      <point x="122" y="283"/>
      <point x="75" y="234"/>
      <point x="47" y="177" type="curve"/>
      <point x="53" y="148" type="line"/>
      <point x="88" y="214"/>
      <point x="126" y="258"/>
      <point x="180" y="258" type="curve" smooth="yes"/>
      <point x="225" y="258"/>
      <point x="251" y="230"/>
      <point x="251" y="162" type="curve" smooth="yes"/>
      <point x="251" y="81"/>
      <point x="203" y="21"/>
      <point x="146" y="21" type="curve" smooth="yes"/>
      <point x="92" y="21"/>
      <point x="62" y="73"/>
      <point x="62" y="152" type="curve" smooth="yes"/>
      <point x="62" y="376"/>
      <point x="208" y="611"/>
      <point x="382" y="611" type="curve" smooth="yes"/>
      <point x="519" y="611"/>
      <point x="594" y="501"/>
      <point x="594" y="337" type="curve" smooth="yes"/>
      <point x="594" y="207"/>
      <point x="544" y="21"/>
      <point x="437" y="21" type="curve" smooth="yes"/>
      <point x="397" y="21"/>
      <point x="376" y="62"/>
      <point x="376" y="132" type="curve" smooth="yes"/>
      <point x="376" y="299"/>
      <point x="503" y="528"/>
      <point x="658" y="528" type="curve" smooth="yes"/>
      <point x="760" y="528"/>
      <point x="819" y="464"/>
      <point x="819" y="339" type="curve" smooth="yes"/>
      <point x="819" y="226"/>
      <point x="767" y="112"/>
      <point x="683" y="19" type="curve"/>
      <point x="695" y="0" type="line"/>
      <point x="1217" y="0" type="line"/>
      <point x="1222" y="23" type="line"/>
      <point x="717" y="23" type="line"/>
      <point x="797" y="116"/>
      <point x="849" y="221"/>
      <point x="849" y="340" type="curve" smooth="yes"/>
      <point x="849" y="476"/>
      <point x="775" y="552"/>
      <point x="661" y="552" type="curve" smooth="yes"/>
      <point x="488" y="552"/>
      <point x="349" y="316"/>
      <point x="349" y="128" type="curve" smooth="yes"/>
      <point x="349" y="43"/>
      <point x="381" y="-5"/>
    </contour>
    <contour>
      <point x="1033" y="-217" type="line"/>
      <point x="1062" y="-217" type="line"/>
      <point x="1198" y="424" type="line" smooth="yes"/>
      <point x="1213" y="495"/>
      <point x="1189" y="551"/>
      <point x="1119" y="551" type="curve" smooth="yes"/>
      <point x="995" y="551"/>
      <point x="926" y="343"/>
      <point x="926" y="203" type="curve" smooth="yes"/>
      <point x="926" y="83"/>
      <point x="977" y="4"/>
      <point x="1079" y="4" type="curve"/>
      <point x="1083" y="23" type="line"/>
      <point x="995" y="23"/>
      <point x="953" y="96"/>
      <point x="953" y="204" type="curve" smooth="yes"/>
      <point x="953" y="326"/>
      <point x="1013" y="527"/>
      <point x="1117" y="527" type="curve" smooth="yes"/>
      <point x="1171" y="527"/>
      <point x="1181" y="477"/>
      <point x="1170" y="424" type="curve" smooth="yes"/>
    </contour>
  </outline>
</glyph>
<glyph name="number-tamil" format="2">
  <advance width="620"/>
  <unicode hex="0BFA"/>
  <note>
uni0BFA
</note>
  <anchor x="228" y="0" name="bottom"/>
  <anchor x="452" y="542" name="imatra"/>
  <anchor x="202" y="-151" name="nukta"/>
  <anchor x="358" y="542" name="top"/>
  <anchor x="353" y="542" name="vedic"/>
  <outline>
    <contour>
      <point x="582" y="519" type="line"/>
      <point x="700" y="519" type="line"/>
      <point x="705" y="542" type="line"/>
      <point x="603" y="542" type="line"/>
      <point x="602" y="529" type="line"/>
      <point x="676" y="597"/>
      <point x="719" y="677"/>
      <point x="719" y="771" type="curve" smooth="yes"/>
      <point x="719" y="845"/>
      <point x="679" y="898"/>
      <point x="613" y="898" type="curve" smooth="yes"/>
      <point x="515" y="898"/>
      <point x="454" y="766"/>
      <point x="454" y="674" type="curve" smooth="yes"/>
      <point x="454" y="618"/>
      <point x="475" y="584"/>
      <point x="515" y="584" type="curve" smooth="yes"/>
      <point x="571" y="584"/>
      <point x="610" y="641"/>
      <point x="610" y="712" type="curve" smooth="yes"/>
      <point x="610" y="776"/>
      <point x="570" y="824"/>
      <point x="504" y="824" type="curve" smooth="yes"/>
      <point x="419" y="824"/>
      <point x="363" y="728"/>
      <point x="363" y="649" type="curve" smooth="yes"/>
      <point x="363" y="584"/>
      <point x="388" y="525"/>
      <point x="446" y="525" type="curve"/>
      <point x="453" y="542" type="line"/>
      <point x="407" y="542"/>
      <point x="388" y="592"/>
      <point x="388" y="648" type="curve" smooth="yes"/>
      <point x="388" y="715"/>
      <point x="429" y="803"/>
      <point x="502" y="803" type="curve" smooth="yes"/>
      <point x="556" y="803"/>
      <point x="582" y="763"/>
      <point x="582" y="708" type="curve" smooth="yes"/>
      <point x="582" y="656"/>
      <point x="556" y="605"/>
      <point x="514" y="605" type="curve" smooth="yes"/>
      <point x="488" y="605"/>
      <point x="476" y="632"/>
      <point x="476" y="675" type="curve" smooth="yes"/>
      <point x="476" y="752"/>
      <point x="525" y="876"/>
      <point x="610" y="876" type="curve" smooth="yes"/>
      <point x="665" y="876"/>
      <point x="690" y="832"/>
      <point x="690" y="769" type="curve" smooth="yes"/>
      <point x="690" y="676"/>
      <point x="652" y="600"/>
      <point x="575" y="532" type="curve"/>
    </contour>
    <component base="na-tamil"/>
  </outline>
</glyph>
<glyph name="doubleSvarita-vedic" format="2">
  <unicode hex="1CDA"/>
  <note>
uni1CDA
</note>
  <anchor x="56" y="542" name="_vedic"/>
  <outline>
    <contour>
      <point x="72" y="902" type="line"/>
      <point x="100" y="902" type="line"/>
      <point x="139" y="1086" type="line"/>
      <point x="111" y="1086" type="line"/>
    </contour>
    <contour>
      <point x="167" y="902" type="line"/>
      <point x="195" y="902" type="line"/>
      <point x="234" y="1086" type="line"/>
      <point x="206" y="1086" type="line"/>
    </contour>
  </outline>
</glyph>
<glyph name="endash" format="2">
  <advance width="500"/>
  <unicode hex="2013"/>
  <outline>
    <contour>
      <point x="-8" y="256" type="line"/>
      <point x="503" y="256" type="line"/>
      <point x="508" y="281" type="line"/>
      <point x="-3" y="281" type="line"/>
    </contour>
  </outline>
</glyph>
<glyph name="quoteleft" format="2">
  <advance width="169"/>
  <unicode hex="2018"/>
  <outline>
    <contour>
      <point x="139" y="525" type="curve" smooth="yes"/>
      <point x="159" y="525"/>
      <point x="169" y="539"/>
      <point x="169" y="556" type="curve" smooth="yes"/>
      <point x="169" y="587"/>
      <point x="134" y="586"/>
      <point x="134" y="620" type="curve" smooth="yes"/>
      <point x="134" y="654"/>
      <point x="151" y="681"/>
      <point x="195" y="699" type="curve"/>
      <point x="197" y="722" type="line"/>
      <point x="125" y="696"/>
      <point x="105" y="647"/>
      <point x="105" y="583" type="curve" smooth="yes"/>
      <point x="105" y="547"/>
      <point x="119" y="525"/>
    </contour>
  </outline>
</glyph>
<glyph name="quoteright" format="2">
  <advance width="169"/>
  <unicode hex="2019"/>
  <outline>
    <contour>
      <point x="105" y="525" type="line"/>
      <point x="177" y="551"/>
      <point x="197" y="600"/>
      <point x="197" y="664" type="curve" smooth="yes"/>
      <point x="197" y="700"/>
      <point x="183" y="722"/>
      <point x="163" y="722" type="curve" smooth="yes"/>
      <point x="143" y="722"/>
      <point x="133" y="708"/>
      <point x="133" y="691" type="curve" smooth="yes"/>
      <point x="133" y="660"/>
      <point x="168" y="661"/>
      <point x="168" y="627" type="curve" smooth="yes"/>
      <point x="168" y="593"/>
      <point x="151" y="566"/>
      <point x="107" y="548" type="curve"/>
    </contour>
  </outline>
</glyph>
<glyph name="quotedblleft" format="2">
  <advance width="319"/>
  <unicode hex="201C"/>
  <outline>
    <contour>
      <point x="283" y="525" type="curve" smooth="yes"/>
      <point x="303" y="525"/>
      <point x="313" y="539"/>
      <point x="313" y="556" type="curve" smooth="yes"/>
      <point x="313" y="587"/>
      <point x="278" y="586"/>
      <point x="278" y="620" type="curve" smooth="yes"/>
      <point x="278" y="654"/>
      <point x="295" y="681"/>
      <point x="339" y="699" type="curve"/>
      <point x="341" y="722" type="line"/>
      <point x="269" y="696"/>
      <point x="249" y="647"/>
      <point x="249" y="583" type="curve" smooth="yes"/>
      <point x="249" y="547"/>
      <point x="263" y="525"/>
    </contour>
    <contour>
      <point x="139" y="525" type="curve" smooth="yes"/>
      <point x="159" y="525"/>
      <point x="169" y="539"/>
      <point x="169" y="556" type="curve" smooth="yes"/>
      <point x="169" y="587"/>
      <point x="134" y="586"/>
      <point x="134" y="620" type="curve" smooth="yes"/>
      <point x="134" y="654"/>
      <point x="151" y="681"/>
      <point x="195" y="699" type="curve"/>
      <point x="197" y="722" type="line"/>
      <point x="125" y="696"/>
      <point x="105" y="647"/>
      <point x="105" y="583" type="curve" smooth="yes"/>
      <point x="105" y="547"/>
      <point x="119" y="525"/>
    </contour>
  </outline>
</glyph>
<glyph name="quotedblright" format="2">
  <advance width="319"/>
  <unicode hex="201D"/>
  <outline>
    <contour>
      <point x="255" y="525" type="line"/>
      <point x="327" y="551"/>
      <point x="347" y="600"/>
      <point x="347" y="664" type="curve" smooth="yes"/>
      <point x="347" y="700"/>
      <point x="333" y="722"/>
      <point x="313" y="722" type="curve" smooth="yes"/>
      <point x="293" y="722"/>
      <point x="283" y="708"/>
      <point x="283" y="691" type="curve" smooth="yes"/>
      <point x="283" y="660"/>
      <point x="318" y="661"/>
      <point x="318" y="627" type="curve" smooth="yes"/>
      <point x="318" y="593"/>
      <point x="301" y="566"/>
      <point x="257" y="548" type="curve"/>
    </contour>
    <contour>
      <point x="105" y="525" type="line"/>
      <point x="177" y="551"/>
      <point x="197" y="600"/>
      <point x="197" y="664" type="curve" smooth="yes"/>
      <point x="197" y="700"/>
      <point x="183" y="722"/>
      <point x="163" y="722" type="curve" smooth="yes"/>
      <point x="143" y="722"/>
      <point x="133" y="708"/>
      <point x="133" y="691" type="curve" smooth="yes"/>
      <point x="133" y="660"/>
      <point x="168" y="661"/>
      <point x="168" y="627" type="curve" smooth="yes"/>
      <point x="168" y="593"/>
      <point x="151" y="566"/>
      <point x="107" y="548" type="curve"/>
    </contour>
  </outline>
</glyph>
<glyph name="ellipsis" format="2">
  <advance width="623"/>
  <unicode hex="2026"/>
  <outline>
    <contour>
      <point x="481" y="-5" type="curve" smooth="yes"/>
      <point x="496" y="-5"/>
      <point x="511" y="7"/>
      <point x="511" y="38" type="curve" smooth="yes"/>
      <point x="511" y="62"/>
      <point x="498" y="73"/>
      <point x="482" y="73" type="curve" smooth="yes"/>
      <point x="463" y="73"/>
      <point x="452" y="56"/>
      <point x="452" y="30" type="curve" smooth="yes"/>
      <point x="452" y="6"/>
      <point x="464" y="-5"/>
    </contour>
    <contour>
      <point x="67" y="-5" type="curve" smooth="yes"/>
      <point x="82" y="-5"/>
      <point x="97" y="7"/>
      <point x="97" y="38" type="curve" smooth="yes"/>
      <point x="97" y="62"/>
      <point x="84" y="73"/>
      <point x="68" y="73" type="curve" smooth="yes"/>
      <point x="49" y="73"/>
      <point x="38" y="56"/>
      <point x="38" y="30" type="curve" smooth="yes"/>
      <point x="38" y="6"/>
      <point x="50" y="-5"/>
    </contour>
    <contour>
      <point x="274" y="-5" type="curve" smooth="yes"/>
      <point x="289" y="-5"/>
      <point x="304" y="7"/>
      <point x="304" y="38" type="curve" smooth="yes"/>
      <point x="304" y="62"/>
      <point x="291" y="73"/>
      <point x="275" y="73" type="curve" smooth="yes"/>
      <point x="256" y="73"/>
      <point x="245" y="56"/>
      <point x="245" y="30" type="curve" smooth="yes"/>
      <point x="245" y="6"/>
      <point x="257" y="-5"/>
    </contour>
  </outline>
</glyph>
<glyph name="foursuperior" format="2">
  <advance width="315"/>
  <unicode hex="2074"/>
  <outline>
    <contour>
      <point x="137" y="386" type="line"/>
      <point x="278" y="386" type="line"/>
      <point x="283" y="406" type="line"/>
      <point x="258" y="406" type="line" smooth="yes"/>
      <point x="243" y="406"/>
      <point x="235" y="408"/>
      <point x="235" y="422" type="curve" smooth="yes"/>
      <point x="235" y="430"/>
      <point x="238" y="446"/>
      <point x="242" y="466" type="curve" smooth="yes"/>
      <point x="255" y="526" type="line"/>
      <point x="329" y="526" type="line"/>
      <point x="334" y="550" type="line"/>
      <point x="260" y="550" type="line"/>
      <point x="315" y="814" type="line"/>
      <point x="274" y="814" type="line"/>
      <point x="65" y="547" type="line"/>
      <point x="62" y="526" type="line"/>
      <point x="228" y="526" type="line"/>
      <point x="211" y="446" type="line" smooth="yes"/>
      <point x="204" y="411"/>
      <point x="198" y="406"/>
      <point x="163" y="406" type="curve" smooth="yes"/>
      <point x="141" y="406" type="line"/>
    </contour>
    <contour>
      <point x="98" y="550" type="line"/>
      <point x="250" y="743" type="line" smooth="yes"/>
      <point x="268" y="765"/>
      <point x="280" y="784"/>
      <point x="285" y="792" type="curve"/>
      <point x="279" y="768"/>
      <point x="274" y="747"/>
      <point x="268" y="718" type="curve" smooth="yes"/>
      <point x="233" y="550" type="line"/>
    </contour>
  </outline>
</glyph>
<glyph name="rupeeIndian" format="2">
  <advance width="409"/>
  <unicode hex="20B9"/>
  <outline>
    <contour>
      <point x="224" y="0" type="curve" smooth="yes"/>
      <point x="240" y="0" type="line"/>
      <point x="246" y="28" type="line"/>
      <point x="231" y="28" type="line" smooth="yes"/>
      <point x="196" y="28"/>
      <point x="180" y="57"/>
      <point x="168" y="108" type="curve" smooth="yes"/>
      <point x="117" y="326" type="line"/>
      <point x="251" y="326"/>
      <point x="314" y="412"/>
      <point x="338" y="511" type="curve"/>
      <point x="407" y="511" type="line"/>
      <point x="412" y="536" type="line"/>
      <point x="343" y="536" type="line"/>
      <point x="354" y="597"/>
      <point x="348" y="672"/>
      <point x="312" y="689" type="curve"/>
      <point x="444" y="689" type="line"/>
      <point x="450" y="714" type="line"/>
      <point x="155" y="714" type="line"/>
      <point x="149" y="689" type="line"/>
      <point x="218" y="689" type="line" smooth="yes"/>
      <point x="321" y="689"/>
      <point x="322" y="596"/>
      <point x="313" y="536" type="curve"/>
      <point x="117" y="536" type="line"/>
      <point x="112" y="511" type="line"/>
      <point x="309" y="511" type="line"/>
      <point x="288" y="423"/>
      <point x="227" y="351"/>
      <point x="123" y="351" type="curve" smooth="yes"/>
      <point x="80" y="351" type="line"/>
      <point x="79" y="346" type="line"/>
      <point x="137" y="96" type="line" smooth="yes"/>
      <point x="150" y="41"/>
      <point x="170" y="0"/>
    </contour>
  </outline>
</glyph>
<glyph name="minus" format="2">
  <advance width="425"/>
  <unicode hex="2212"/>
  <outline>
    <contour>
      <point x="66" y="344" type="line"/>
      <point x="391" y="344" type="line"/>
      <point x="391" y="372" type="line"/>
      <point x="66" y="372" type="line"/>
    </contour>
  </outline>
</glyph>
<glyph name="dottedCircle" format="2">
  <advance width="594"/>
  <unicode hex="25CC"/>
  <anchor x="299" y="300" name="bottom"/>
  <anchor x="350" y="554" name="imatra"/>
  <anchor x="233" y="0" name="nukta"/>
  <anchor x="340" y="554" name="top"/>
  <anchor x="289" y="304" name="vedic"/>
  <outline>
    <contour>
      <point x="385" y="472" type="curve" smooth="yes"/>
      <point x="398" y="472"/>
      <point x="410" y="483"/>
      <point x="410" y="496" type="curve" smooth="yes"/>
      <point x="410" y="509"/>
      <point x="398" y="521"/>
      <point x="385" y="521" type="curve" smooth="yes"/>
      <point x="372" y="521"/>
      <point x="360" y="509"/>
      <point x="360" y="496" type="curve" smooth="yes"/>
      <point x="360" y="483"/>
      <point x="372" y="472"/>
    </contour>
    <contour>
      <point x="143" y="108" type="curve" smooth="yes"/>
      <point x="156" y="108"/>
      <point x="168" y="120"/>
      <point x="168" y="133" type="curve" smooth="yes"/>
      <point x="168" y="146"/>
      <point x="156" y="158"/>
      <point x="143" y="158" type="curve" smooth="yes"/>
      <point x="130" y="158"/>
      <point x="118" y="146"/>
      <point x="118" y="133" type="curve" smooth="yes"/>
      <point x="118" y="120"/>
      <point x="130" y="108"/>
    </contour>
    <contour>
      <point x="96" y="183" type="curve" smooth="yes"/>
      <point x="109" y="183"/>
      <point x="121" y="194"/>
      <point x="121" y="207" type="curve" smooth="yes"/>
      <point x="121" y="220"/>
      <point x="109" y="231"/>
      <point x="96" y="231" type="curve" smooth="yes"/>
      <point x="83" y="231"/>
      <point x="71" y="220"/>
      <point x="71" y="207" type="curve" smooth="yes"/>
      <point x="71" y="194"/>
      <point x="83" y="183"/>
    </contour>
    <contour>
      <point x="217" y="62" type="curve" smooth="yes"/>
      <point x="230" y="62"/>
      <point x="242" y="73"/>
      <point x="242" y="86" type="curve" smooth="yes"/>
      <point x="242" y="99"/>
      <point x="230" y="110"/>
      <point x="217" y="110" type="curve" smooth="yes"/>
      <point x="204" y="110"/>
      <point x="192" y="99"/>
      <point x="192" y="86" type="curve" smooth="yes"/>
      <point x="192" y="73"/>
      <point x="204" y="62"/>
    </contour>
    <contour>
      <point x="78" y="267" type="curve" smooth="yes"/>
      <point x="91" y="267"/>
      <point x="103" y="278"/>
      <point x="103" y="291" type="curve" smooth="yes"/>
      <point x="103" y="304"/>
      <point x="91" y="315"/>
      <point x="78" y="315" type="curve" smooth="yes"/>
      <point x="65" y="315"/>
      <point x="53" y="304"/>
      <point x="53" y="291" type="curve" smooth="yes"/>
      <point x="53" y="278"/>
      <point x="65" y="267"/>
    </contour>
    <contour>
      <point x="301" y="43" type="curve" smooth="yes"/>
      <point x="314" y="43"/>
      <point x="326" y="55"/>
      <point x="326" y="68" type="curve" smooth="yes"/>
      <point x="326" y="81"/>
      <point x="314" y="93"/>
      <point x="301" y="93" type="curve" smooth="yes"/>
      <point x="288" y="93"/>
      <point x="276" y="81"/>
      <point x="276" y="68" type="curve" smooth="yes"/>
      <point x="276" y="55"/>
      <point x="288" y="43"/>
    </contour>
    <contour>
      <point x="96" y="351" type="curve" smooth="yes"/>
      <point x="109" y="351"/>
      <point x="121" y="362"/>
      <point x="121" y="375" type="curve" smooth="yes"/>
      <point x="121" y="388"/>
      <point x="109" y="399"/>
      <point x="96" y="399" type="curve" smooth="yes"/>
      <point x="83" y="399"/>
      <point x="71" y="388"/>
      <point x="71" y="375" type="curve" smooth="yes"/>
      <point x="71" y="362"/>
      <point x="83" y="351"/>
    </contour>
    <contour>
      <point x="385" y="62" type="curve" smooth="yes"/>
      <point x="398" y="62"/>
      <point x="410" y="73"/>
      <point x="410" y="86" type="curve" smooth="yes"/>
      <point x="410" y="99"/>
      <point x="398" y="110"/>
      <point x="385" y="110" type="curve" smooth="yes"/>
      <point x="372" y="110"/>
      <point x="360" y="99"/>
      <point x="360" y="86" type="curve" smooth="yes"/>
      <point x="360" y="73"/>
      <point x="372" y="62"/>
    </contour>
    <contour>
      <point x="459" y="108" type="curve" smooth="yes"/>
      <point x="472" y="108"/>
      <point x="484" y="120"/>
      <point x="484" y="133" type="curve" smooth="yes"/>
      <point x="484" y="146"/>
      <point x="472" y="158"/>
      <point x="459" y="158" type="curve" smooth="yes"/>
      <point x="446" y="158"/>
      <point x="434" y="146"/>
      <point x="434" y="133" type="curve" smooth="yes"/>
      <point x="434" y="120"/>
      <point x="446" y="108"/>
    </contour>
    <contour>
      <point x="143" y="424" type="curve" smooth="yes"/>
      <point x="156" y="424"/>
      <point x="168" y="436"/>
      <point x="168" y="449" type="curve" smooth="yes"/>
      <point x="168" y="462"/>
      <point x="156" y="474"/>
      <point x="143" y="474" type="curve" smooth="yes"/>
      <point x="130" y="474"/>
      <point x="118" y="462"/>
      <point x="118" y="449" type="curve" smooth="yes"/>
      <point x="118" y="436"/>
      <point x="130" y="424"/>
    </contour>
    <contour>
      <point x="217" y="472" type="curve" smooth="yes"/>
      <point x="230" y="472"/>
      <point x="242" y="483"/>
      <point x="242" y="496" type="curve" smooth="yes"/>
      <point x="242" y="509"/>
      <point x="230" y="521"/>
      <point x="217" y="521" type="curve" smooth="yes"/>
      <point x="204" y="521"/>
      <point x="192" y="509"/>
      <point x="192" y="496" type="curve" smooth="yes"/>
      <point x="192" y="483"/>
      <point x="204" y="472"/>
    </contour>
    <contour>
      <point x="506" y="183" type="curve" smooth="yes"/>
      <point x="519" y="183"/>
      <point x="531" y="194"/>
      <point x="531" y="207" type="curve" smooth="yes"/>
      <point x="531" y="220"/>
      <point x="519" y="231"/>
      <point x="506" y="231" type="curve" smooth="yes"/>
      <point x="493" y="231"/>
      <point x="481" y="220"/>
      <point x="481" y="207" type="curve" smooth="yes"/>
      <point x="481" y="194"/>
      <point x="493" y="183"/>
    </contour>
    <contour>
      <point x="301" y="489" type="curve" smooth="yes"/>
      <point x="314" y="489"/>
      <point x="326" y="501"/>
      <point x="326" y="514" type="curve" smooth="yes"/>
      <point x="326" y="527"/>
      <point x="314" y="539"/>
      <point x="301" y="539" type="curve" smooth="yes"/>
      <point x="288" y="539"/>
      <point x="276" y="527"/>
      <point x="276" y="514" type="curve" smooth="yes"/>
      <point x="276" y="501"/>
      <point x="288" y="489"/>
    </contour>
    <contour>
      <point x="524" y="267" type="curve" smooth="yes"/>
      <point x="537" y="267"/>
      <point x="549" y="278"/>
      <point x="549" y="291" type="curve" smooth="yes"/>
      <point x="549" y="304"/>
      <point x="537" y="315"/>
      <point x="524" y="315" type="curve" smooth="yes"/>
      <point x="511" y="315"/>
      <point x="499" y="304"/>
      <point x="499" y="291" type="curve" smooth="yes"/>
      <point x="499" y="278"/>
      <point x="511" y="267"/>
    </contour>
    <contour>
      <point x="506" y="351" type="curve" smooth="yes"/>
      <point x="519" y="351"/>
      <point x="531" y="362"/>
      <point x="531" y="375" type="curve" smooth="yes"/>
      <point x="531" y="388"/>
      <point x="519" y="399"/>
      <point x="506" y="399" type="curve" smooth="yes"/>
      <point x="493" y="399"/>
      <point x="481" y="388"/>
      <point x="481" y="375" type="curve" smooth="yes"/>
      <point x="481" y="362"/>
      <point x="493" y="351"/>
    </contour>
    <contour>
      <point x="459" y="424" type="curve" smooth="yes"/>
      <point x="472" y="424"/>
      <point x="484" y="436"/>
      <point x="484" y="449" type="curve" smooth="yes"/>
      <point x="484" y="462"/>
      <point x="472" y="474"/>
      <point x="459" y="474" type="curve" smooth="yes"/>
      <point x="446" y="474"/>
      <point x="434" y="462"/>
      <point x="434" y="449" type="curve" smooth="yes"/>
      <point x="434" y="436"/>
      <point x="446" y="424"/>
    </contour>
  </outline>
</glyph>
<glyph name="candrabinduhalant-deva" format="2">
  <advance width="356"/>
  <unicode hex="A8F3"/>
  <note>
uniA8F3
</note>
  <outline>
    <contour>
      <point x="202" y="362" type="curve" smooth="yes"/>
      <point x="272" y="362"/>
      <point x="328" y="414"/>
      <point x="366" y="539" type="curve"/>
      <point x="331" y="548" type="line"/>
      <point x="299" y="445"/>
      <point x="253" y="412"/>
      <point x="204" y="412" type="curve" smooth="yes"/>
      <point x="148" y="412"/>
      <point x="133" y="463"/>
      <point x="131" y="542" type="curve"/>
      <point x="101" y="537" type="line"/>
      <point x="96" y="423"/>
      <point x="131" y="362"/>
    </contour>
    <contour>
      <point x="222" y="501" type="curve" smooth="yes"/>
      <point x="245" y="501"/>
      <point x="256" y="517"/>
      <point x="256" y="539" type="curve" smooth="yes"/>
      <point x="256" y="555"/>
      <point x="245" y="563"/>
      <point x="232" y="563" type="curve" smooth="yes"/>
      <point x="209" y="563"/>
      <point x="198" y="548"/>
      <point x="198" y="526" type="curve" smooth="yes"/>
      <point x="198" y="510"/>
      <point x="209" y="501"/>
    </contour>
    <contour>
      <point x="240" y="71" type="curve"/>
      <point x="268" y="82" type="line"/>
      <point x="214" y="254"/>
      <point x="193" y="279"/>
      <point x="135" y="279" type="curve" smooth="yes"/>
      <point x="119" y="279"/>
      <point x="101" y="274"/>
      <point x="92" y="271" type="curve"/>
      <point x="94" y="213" type="line"/>
      <point x="107" y="218"/>
      <point x="123" y="221"/>
      <point x="138" y="221" type="curve" smooth="yes"/>
      <point x="171" y="221"/>
      <point x="191" y="204"/>
    </contour>
  </outline>
</glyph>
<glyph name="u11301" format="2">
  <unicode hex="11301"/>
  <anchor x="58" y="542" name="_vedic"/>
  <outline>
    <contour>
      <point x="140" y="908" type="curve" smooth="yes"/>
      <point x="240" y="908"/>
      <point x="282" y="983"/>
      <point x="282" y="1043" type="curve" smooth="yes"/>
      <point x="282" y="1068"/>
      <point x="274" y="1079"/>
      <point x="263" y="1079" type="curve" smooth="yes"/>
      <point x="260" y="1079"/>
      <point x="257" y="1078"/>
      <point x="254" y="1077" type="curve"/>
      <point x="256" y="1070"/>
      <point x="257" y="1063"/>
      <point x="257" y="1046" type="curve" smooth="yes"/>
      <point x="257" y="989"/>
      <point x="217" y="932"/>
      <point x="140" y="932" type="curve" smooth="yes"/>
      <point x="87" y="932"/>
      <point x="63" y="957"/>
      <point x="63" y="1004" type="curve" smooth="yes"/>
      <point x="63" y="1030"/>
      <point x="72" y="1056"/>
      <point x="86" y="1077" type="curve"/>
      <point x="83" y="1078"/>
      <point x="80" y="1079"/>
      <point x="77" y="1079" type="curve" smooth="yes"/>
      <point x="52" y="1079"/>
      <point x="34" y="1039"/>
      <point x="34" y="1002" type="curve" smooth="yes"/>
      <point x="34" y="951"/>
      <point x="63" y="908"/>
    </contour>
    <contour>
      <point x="164" y="1018" type="curve" smooth="yes"/>
      <point x="187" y="1018"/>
      <point x="190" y="1032"/>
      <point x="190" y="1049" type="curve" smooth="yes"/>
      <point x="190" y="1065"/>
      <point x="187" y="1080"/>
      <point x="164" y="1080" type="curve" smooth="yes"/>
      <point x="143" y="1080"/>
      <point x="138" y="1065"/>
      <point x="138" y="1049" type="curve" smooth="yes"/>
      <point x="138" y="1032"/>
      <point x="143" y="1018"/>
    </contour>
  </outline>
</glyph>
<glyph name="visarga-grantha" format="2">
  <advance width="235"/>
  <unicode hex="11303"/>
  <outline>
    <contour>
      <point x="80" y="-4" type="curve" smooth="yes"/>
      <point x="135" y="-4"/>
      <point x="173" y="36"/>
      <point x="173" y="90" type="curve" smooth="yes"/>
      <point x="173" y="144"/>
      <point x="135" y="185"/>
      <point x="80" y="185" type="curve" smooth="yes"/>
      <point x="24" y="185"/>
      <point x="-14" y="144"/>
      <point x="-14" y="90" type="curve" smooth="yes"/>
      <point x="-14" y="36"/>
      <point x="24" y="-4"/>
    </contour>
    <contour>
      <point x="80" y="18" type="curve" smooth="yes"/>
      <point x="39" y="18"/>
      <point x="12" y="49"/>
      <point x="12" y="90" type="curve" smooth="yes"/>
      <point x="12" y="131"/>
      <point x="39" y="163"/>
      <point x="80" y="163" type="curve" smooth="yes"/>
      <point x="121" y="163"/>
      <point x="147" y="131"/>
      <point x="147" y="90" type="curve" smooth="yes"/>
      <point x="147" y="49"/>
      <point x="121" y="18"/>
    </contour>
    <contour>
      <point x="157" y="362" type="curve" smooth="yes"/>
      <point x="212" y="362"/>
      <point x="250" y="402"/>
      <point x="250" y="456" type="curve" smooth="yes"/>
      <point x="250" y="510"/>
      <point x="212" y="551"/>
      <point x="157" y="551" type="curve" smooth="yes"/>
      <point x="101" y="551"/>
      <point x="63" y="510"/>
      <point x="63" y="456" type="curve" smooth="yes"/>
      <point x="63" y="402"/>
      <point x="101" y="362"/>
    </contour>
    <contour>
      <point x="157" y="384" type="curve" smooth="yes"/>
      <point x="116" y="384"/>
      <point x="89" y="416"/>
      <point x="89" y="456" type="curve" smooth="yes"/>
      <point x="89" y="497"/>
      <point x="116" y="529"/>
      <point x="157" y="529" type="curve" smooth="yes"/>
      <point x="198" y="529"/>
      <point x="224" y="497"/>
      <point x="224" y="456" type="curve" smooth="yes"/>
      <point x="224" y="416"/>
      <point x="198" y="384"/>
    </contour>
  </outline>
</glyph>
<glyph name="u1133B" format="2">
  <unicode hex="1133B"/>
  <anchor x="-59" y="0" name="_nukta"/>
  <outline>
    <contour>
      <point x="-76" y="-131" type="curve" smooth="yes"/>
      <point x="-56" y="-131"/>
      <point x="-41" y="-116"/>
      <point x="-41" y="-97" type="curve" smooth="yes"/>
      <point x="-41" y="-79"/>
      <point x="-56" y="-62"/>
      <point x="-76" y="-62" type="curve" smooth="yes"/>
      <point x="-96" y="-62"/>
      <point x="-111" y="-79"/>
      <point x="-111" y="-97" type="curve" smooth="yes"/>
      <point x="-111" y="-116"/>
      <point x="-96" y="-131"/>
    </contour>
  </outline>
</glyph>
<glyph name="nukta-grantha" format="2">
  <unicode hex="1133C"/>
  <anchor x="-59" y="0" name="_nukta"/>
  <outline>
    <contour>
      <point x="-149" y="-131" type="curve" smooth="yes"/>
      <point x="-129" y="-131"/>
      <point x="-114" y="-116"/>
      <point x="-114" y="-97" type="curve" smooth="yes"/>
      <point x="-114" y="-79"/>
      <point x="-129" y="-62"/>
      <point x="-149" y="-62" type="curve" smooth="yes"/>
      <point x="-169" y="-62"/>
      <point x="-184" y="-79"/>
      <point x="-184" y="-97" type="curve" smooth="yes"/>
      <point x="-184" y="-116"/>
      <point x="-169" y="-131"/>
    </contour>
    <contour>
      <point x="-3" y="-131" type="curve" smooth="yes"/>
      <point x="17" y="-131"/>
      <point x="32" y="-116"/>
      <point x="32" y="-97" type="curve" smooth="yes"/>
      <point x="32" y="-79"/>
      <point x="17" y="-62"/>
      <point x="-3" y="-62" type="curve" smooth="yes"/>
      <point x="-23" y="-62"/>
      <point x="-38" y="-79"/>
      <point x="-38" y="-97" type="curve" smooth="yes"/>
      <point x="-38" y="-116"/>
      <point x="-23" y="-131"/>
    </contour>
  </outline>
</glyph>
<glyph name="anusvara-tamil.alt" format="2">
  <note>
uni0B82
</note>
  <anchor x="31" y="412" name="_top"/>
  <outline>
    <contour>
      <point x="100" y="650" type="curve" smooth="yes"/>
      <point x="152" y="650"/>
      <point x="187" y="688"/>
      <point x="187" y="738" type="curve" smooth="yes"/>
      <point x="187" y="788"/>
      <point x="152" y="827"/>
      <point x="100" y="827" type="curve" smooth="yes"/>
      <point x="48" y="827"/>
      <point x="13" y="788"/>
      <point x="13" y="738" type="curve" smooth="yes"/>
      <point x="13" y="688"/>
      <point x="48" y="650"/>
    </contour>
    <contour>
      <point x="100" y="675" type="curve" smooth="yes"/>
      <point x="64" y="675"/>
      <point x="39" y="702"/>
      <point x="39" y="738" type="curve" smooth="yes"/>
      <point x="39" y="774"/>
      <point x="64" y="802"/>
      <point x="100" y="802" type="curve" smooth="yes"/>
      <point x="136" y="802"/>
      <point x="161" y="774"/>
      <point x="161" y="738" type="curve" smooth="yes"/>
      <point x="161" y="702"/>
      <point x="136" y="675"/>
    </contour>
  </outline>
</glyph>
<glyph name="cu-tamil" format="2">
  <advance width="605"/>
  <note>
g106
</note>
  <anchor x="255" y="0" name="bottom"/>
  <anchor x="255" y="0" name="nukta"/>
  <anchor x="386" y="542" name="top"/>
  <anchor x="381" y="542" name="vedic"/>
  <outline>
    <contour>
      <point x="152" y="-4" type="curve" smooth="yes"/>
      <point x="221" y="-4"/>
      <point x="277" y="36"/>
      <point x="301" y="153" type="curve" smooth="yes"/>
      <point x="326" y="275" type="line"/>
      <point x="446" y="275" type="line"/>
      <point x="387" y="0" type="line"/>
      <point x="415" y="0" type="line"/>
      <point x="473" y="275" type="line"/>
      <point x="577" y="275" type="line"/>
      <point x="582" y="299" type="line"/>
      <point x="331" y="299" type="line"/>
      <point x="378" y="519" type="line"/>
      <point x="495" y="519" type="line"/>
      <point x="500" y="542" type="line"/>
      <point x="195" y="542" type="line"/>
      <point x="141" y="284" type="line"/>
      <point x="166" y="284" type="line"/>
      <point x="216" y="519" type="line"/>
      <point x="350" y="519" type="line"/>
      <point x="304" y="299" type="line"/>
      <point x="184" y="299" type="line" smooth="yes"/>
      <point x="83" y="299"/>
      <point x="27" y="218"/>
      <point x="27" y="135" type="curve" smooth="yes"/>
      <point x="27" y="63"/>
      <point x="74" y="-4"/>
    </contour>
    <contour>
      <point x="156" y="21" type="curve" smooth="yes"/>
      <point x="87" y="21"/>
      <point x="57" y="78"/>
      <point x="57" y="139" type="curve" smooth="yes"/>
      <point x="57" y="210"/>
      <point x="98" y="275"/>
      <point x="183" y="275" type="curve" smooth="yes"/>
      <point x="298" y="275" type="line"/>
      <point x="274" y="154" type="line" smooth="yes"/>
      <point x="255" y="56"/>
      <point x="209" y="21"/>
    </contour>
  </outline>
</glyph>
<glyph name="cuu-tamil" format="2">
  <advance width="781"/>
  <note>
g107
</note>
  <anchor x="365" y="-2" name="bottom"/>
  <anchor x="350" y="-217" name="nukta"/>
  <anchor x="514" y="542" name="top"/>
  <anchor x="495" y="542" name="vedic"/>
  <outline>
    <contour>
      <point x="281" y="-4" type="curve" smooth="yes"/>
      <point x="350" y="-4"/>
      <point x="406" y="36"/>
      <point x="430" y="153" type="curve" smooth="yes"/>
      <point x="455" y="275" type="line"/>
      <point x="703" y="275" type="line"/>
      <point x="708" y="299" type="line"/>
      <point x="460" y="299" type="line"/>
      <point x="507" y="519" type="line"/>
      <point x="624" y="519" type="line"/>
      <point x="629" y="542" type="line"/>
      <point x="324" y="542" type="line"/>
      <point x="270" y="284" type="line"/>
      <point x="295" y="284" type="line"/>
      <point x="345" y="519" type="line"/>
      <point x="479" y="519" type="line"/>
      <point x="433" y="299" type="line"/>
      <point x="313" y="299" type="line" smooth="yes"/>
      <point x="212" y="299"/>
      <point x="156" y="218"/>
      <point x="156" y="135" type="curve" smooth="yes"/>
      <point x="156" y="63"/>
      <point x="203" y="-4"/>
    </contour>
    <contour>
      <point x="285" y="21" type="curve" smooth="yes"/>
      <point x="216" y="21"/>
      <point x="186" y="78"/>
      <point x="186" y="139" type="curve" smooth="yes"/>
      <point x="186" y="210"/>
      <point x="227" y="275"/>
      <point x="312" y="275" type="curve" smooth="yes"/>
      <point x="427" y="275" type="line"/>
      <point x="403" y="154" type="line" smooth="yes"/>
      <point x="384" y="56"/>
      <point x="338" y="21"/>
    </contour>
    <contour>
      <point x="513" y="0" type="line"/>
      <point x="541" y="0" type="line"/>
      <point x="600" y="285" type="line"/>
      <point x="573" y="285" type="line"/>
    </contour>
    <contour>
      <point x="350" y="-217" type="curve" smooth="yes"/>
      <point x="532" y="-217"/>
      <point x="705" y="-106"/>
      <point x="705" y="85" type="curve" smooth="yes"/>
      <point x="705" y="139"/>
      <point x="677" y="170"/>
      <point x="633" y="170" type="curve" smooth="yes"/>
      <point x="585" y="170"/>
      <point x="554" y="127"/>
      <point x="540" y="62" type="curve" smooth="yes"/>
      <point x="536" y="43" type="line"/>
      <point x="550" y="43" type="line"/>
      <point x="553" y="57" type="line" smooth="yes"/>
      <point x="567" y="121"/>
      <point x="594" y="146"/>
      <point x="629" y="146" type="curve" smooth="yes"/>
      <point x="661" y="146"/>
      <point x="676" y="122"/>
      <point x="676" y="82" type="curve" smooth="yes"/>
      <point x="676" y="-89"/>
      <point x="514" y="-191"/>
      <point x="348" y="-191" type="curve" smooth="yes"/>
      <point x="161" y="-191"/>
      <point x="55" y="-60"/>
      <point x="55" y="120" type="curve" smooth="yes"/>
      <point x="55" y="259"/>
      <point x="109" y="358"/>
      <point x="206" y="478" type="curve"/>
      <point x="185" y="494" type="line"/>
      <point x="87" y="371"/>
      <point x="26" y="271"/>
      <point x="26" y="118" type="curve" smooth="yes"/>
      <point x="26" y="-77"/>
      <point x="149" y="-217"/>
    </contour>
  </outline>
</glyph>
<glyph name="hii-tamil" format="2">
  <advance width="1142"/>
  <note>
uni0BB9
</note>
  <anchor x="516" y="0" name="bottom"/>
  <anchor x="487" y="-139" name="nukta"/>
  <anchor x="1120" y="872" name="top"/>
  <anchor x="630" y="542" name="vedic"/>
  <outline>
    <contour>
      <point x="47" y="-183" type="curve"/>
      <point x="55" y="-135"/>
      <point x="81" y="-112"/>
      <point x="124" y="-112" type="curve" smooth="yes"/>
      <point x="685" y="-112" type="line" smooth="yes"/>
      <point x="963" y="-112"/>
      <point x="1095" y="109"/>
      <point x="1095" y="362" type="curve" smooth="yes"/>
      <point x="1095" y="492"/>
      <point x="1036" y="551"/>
      <point x="963" y="551" type="curve" smooth="yes"/>
      <point x="903" y="551"/>
      <point x="868" y="512"/>
      <point x="847" y="476" type="curve"/>
      <point x="839" y="515"/>
      <point x="811" y="551"/>
      <point x="761" y="551" type="curve" smooth="yes"/>
      <point x="705" y="551"/>
      <point x="664" y="507"/>
      <point x="647" y="427" type="curve" smooth="yes"/>
      <point x="561" y="23" type="line"/>
      <point x="390" y="23" type="line"/>
      <point x="469" y="116"/>
      <point x="522" y="221"/>
      <point x="522" y="340" type="curve" smooth="yes"/>
      <point x="522" y="476"/>
      <point x="449" y="552"/>
      <point x="335" y="552" type="curve" smooth="yes"/>
      <point x="152" y="552"/>
      <point x="34" y="346"/>
      <point x="34" y="151" type="curve" smooth="yes"/>
      <point x="34" y="54"/>
      <point x="76" y="-4"/>
      <point x="146" y="-4" type="curve" smooth="yes"/>
      <point x="218" y="-4"/>
      <point x="277" y="66"/>
      <point x="277" y="165" type="curve" smooth="yes"/>
      <point x="277" y="244"/>
      <point x="236" y="283"/>
      <point x="182" y="283" type="curve" smooth="yes"/>
      <point x="120" y="283"/>
      <point x="73" y="234"/>
      <point x="45" y="177" type="curve"/>
      <point x="51" y="148" type="line"/>
      <point x="86" y="214"/>
      <point x="124" y="258"/>
      <point x="178" y="258" type="curve" smooth="yes"/>
      <point x="223" y="258"/>
      <point x="249" y="230"/>
      <point x="249" y="162" type="curve" smooth="yes"/>
      <point x="249" y="81"/>
      <point x="202" y="21"/>
      <point x="148" y="21" type="curve" smooth="yes"/>
      <point x="94" y="21"/>
      <point x="60" y="68"/>
      <point x="60" y="152" type="curve" smooth="yes"/>
      <point x="60" y="326"/>
      <point x="165" y="528"/>
      <point x="332" y="528" type="curve" smooth="yes"/>
      <point x="434" y="528"/>
      <point x="492" y="464"/>
      <point x="492" y="339" type="curve" smooth="yes"/>
      <point x="492" y="226"/>
      <point x="439" y="112"/>
      <point x="356" y="19" type="curve"/>
      <point x="368" y="0" type="line"/>
      <point x="582" y="0" type="line"/>
      <point x="672" y="426" type="line" smooth="yes"/>
      <point x="686" y="493"/>
      <point x="713" y="527"/>
      <point x="761" y="527" type="curve" smooth="yes"/>
      <point x="815" y="527"/>
      <point x="833" y="477"/>
      <point x="820" y="415" type="curve" smooth="yes"/>
      <point x="732" y="0" type="line"/>
      <point x="760" y="0" type="line"/>
      <point x="848" y="414" type="line" smooth="yes"/>
      <point x="864" y="487"/>
      <point x="909" y="527"/>
      <point x="961" y="527" type="curve" smooth="yes"/>
      <point x="1015" y="527"/>
      <point x="1065" y="491"/>
      <point x="1065" y="358" type="curve" smooth="yes"/>
      <point x="1065" y="123"/>
      <point x="943" y="-87"/>
      <point x="682" y="-87" type="curve" smooth="yes"/>
      <point x="110" y="-87" type="line" smooth="yes"/>
      <point x="60" y="-87"/>
      <point x="17" y="-112"/>
      <point x="17" y="-149" type="curve" smooth="yes"/>
      <point x="17" y="-171"/>
      <point x="31" y="-183"/>
    </contour>
    <component base="iiMatra-tamil.alt01" xOffset="1140"/>
  </outline>
</glyph>
<glyph name="iMatra-tamil.alt01" format="2">
  <advance width="185"/>
  <note>
uni0BBF
</note>
  <anchor x="8" y="781" name="top"/>
  <outline>
    <contour>
      <point x="19" y="0" type="line"/>
      <point x="45" y="0" type="line"/>
      <point x="166" y="568" type="line" smooth="yes"/>
      <point x="194" y="701"/>
      <point x="120" y="781"/>
      <point x="8" y="781" type="curve" smooth="yes"/>
      <point x="-96" y="781"/>
      <point x="-165" y="700"/>
      <point x="-165" y="608" type="curve" smooth="yes"/>
      <point x="-165" y="572"/>
      <point x="-153" y="548"/>
      <point x="-142" y="530" type="curve"/>
      <point x="-119" y="534" type="line"/>
      <point x="-132" y="553"/>
      <point x="-139" y="574"/>
      <point x="-139" y="601" type="curve" smooth="yes"/>
      <point x="-139" y="682"/>
      <point x="-88" y="750"/>
      <point x="5" y="750" type="curve" smooth="yes"/>
      <point x="102" y="750"/>
      <point x="164" y="681"/>
      <point x="137" y="556" type="curve" smooth="yes"/>
    </contour>
  </outline>
</glyph>
<glyph name="iMatra-tamil.alt02" format="2">
  <advance width="170"/>
  <note>
uni0BBF
</note>
  <anchor x="-43" y="781" name="top"/>
  <outline>
    <contour>
      <point x="4" y="0" type="line"/>
      <point x="30" y="0" type="line"/>
      <point x="135" y="490" type="line" smooth="yes"/>
      <point x="171" y="656"/>
      <point x="107" y="781"/>
      <point x="-43" y="781" type="curve" smooth="yes"/>
      <point x="-162" y="781"/>
      <point x="-238" y="698"/>
      <point x="-238" y="592" type="curve" smooth="yes"/>
      <point x="-238" y="560"/>
      <point x="-228" y="530"/>
      <point x="-215" y="505" type="curve"/>
      <point x="-199" y="514" type="line"/>
      <point x="-208" y="533"/>
      <point x="-213" y="565"/>
      <point x="-213" y="583" type="curve" smooth="yes"/>
      <point x="-213" y="675"/>
      <point x="-157" y="750"/>
      <point x="-47" y="750" type="curve" smooth="yes"/>
      <point x="91" y="750"/>
      <point x="140" y="638"/>
      <point x="106" y="478" type="curve" smooth="yes"/>
    </contour>
  </outline>
</glyph>
<glyph name="iiMatra-tamil.alt01" format="2">
  <note>
uni0BC0
</note>
  <outline>
    <contour>
      <point x="-134" y="521" type="curve"/>
      <point x="-125" y="539" type="line"/>
      <point x="-150" y="571"/>
      <point x="-164" y="607"/>
      <point x="-164" y="666" type="curve" smooth="yes"/>
      <point x="-164" y="749"/>
      <point x="-112" y="850"/>
      <point x="-22" y="850" type="curve" smooth="yes"/>
      <point x="38" y="850"/>
      <point x="75" y="810"/>
      <point x="75" y="752" type="curve" smooth="yes"/>
      <point x="75" y="697"/>
      <point x="45" y="645"/>
      <point x="-7" y="645" type="curve" smooth="yes"/>
      <point x="-42" y="645"/>
      <point x="-56" y="674"/>
      <point x="-56" y="713" type="curve" smooth="yes"/>
      <point x="-56" y="757"/>
      <point x="-39" y="812"/>
      <point x="-11" y="855" type="curve"/>
      <point x="-32" y="859" type="line"/>
      <point x="-63" y="813"/>
      <point x="-81" y="757"/>
      <point x="-81" y="712" type="curve" smooth="yes"/>
      <point x="-81" y="661"/>
      <point x="-58" y="622"/>
      <point x="-7" y="622" type="curve" smooth="yes"/>
      <point x="57" y="622"/>
      <point x="104" y="681"/>
      <point x="104" y="750" type="curve" smooth="yes"/>
      <point x="104" y="823"/>
      <point x="57" y="872"/>
      <point x="-20" y="872" type="curve" smooth="yes"/>
      <point x="-125" y="872"/>
      <point x="-193" y="765"/>
      <point x="-193" y="668" type="curve" smooth="yes"/>
      <point x="-193" y="605"/>
      <point x="-171" y="557"/>
    </contour>
  </outline>
</glyph>
<glyph name="iiMatra-tamil.alt02" format="2">
  <note>
uni0BC0
</note>
  <outline>
    <contour>
      <point x="-248" y="526" type="curve"/>
      <point x="-242" y="547" type="line"/>
      <point x="-266" y="579"/>
      <point x="-284" y="621"/>
      <point x="-284" y="682" type="curve" smooth="yes"/>
      <point x="-284" y="761"/>
      <point x="-238" y="850"/>
      <point x="-147" y="850" type="curve" smooth="yes"/>
      <point x="-93" y="850"/>
      <point x="-50" y="819"/>
      <point x="-50" y="749" type="curve" smooth="yes"/>
      <point x="-50" y="699"/>
      <point x="-80" y="645"/>
      <point x="-130" y="645" type="curve" smooth="yes"/>
      <point x="-164" y="645"/>
      <point x="-179" y="672"/>
      <point x="-179" y="711" type="curve" smooth="yes"/>
      <point x="-179" y="753"/>
      <point x="-163" y="807"/>
      <point x="-136" y="855" type="curve"/>
      <point x="-156" y="859" type="line"/>
      <point x="-186" y="812"/>
      <point x="-204" y="755"/>
      <point x="-204" y="710" type="curve" smooth="yes"/>
      <point x="-204" y="660"/>
      <point x="-183" y="622"/>
      <point x="-131" y="622" type="curve" smooth="yes"/>
      <point x="-69" y="622"/>
      <point x="-22" y="678"/>
      <point x="-22" y="753" type="curve" smooth="yes"/>
      <point x="-22" y="832"/>
      <point x="-76" y="872"/>
      <point x="-146" y="872" type="curve" smooth="yes"/>
      <point x="-256" y="872"/>
      <point x="-313" y="767"/>
      <point x="-313" y="683" type="curve" smooth="yes"/>
      <point x="-313" y="613"/>
      <point x="-282" y="560"/>
    </contour>
  </outline>
</glyph>
<glyph name="kii-tamil" format="2">
  <advance width="577"/>
  <note>
uni0B95
</note>
  <anchor x="236" y="0" name="bottom"/>
  <anchor x="241" y="0" name="nukta"/>
  <anchor x="502" y="872" name="top"/>
  <anchor x="367" y="542" name="vedic"/>
  <outline>
    <contour>
      <point x="152" y="-4" type="curve" smooth="yes"/>
      <point x="221" y="-4"/>
      <point x="277" y="36"/>
      <point x="301" y="153" type="curve" smooth="yes"/>
      <point x="326" y="275" type="line"/>
      <point x="360" y="275" type="line" smooth="yes"/>
      <point x="425" y="275"/>
      <point x="474" y="249"/>
      <point x="474" y="169" type="curve" smooth="yes"/>
      <point x="474" y="86"/>
      <point x="423" y="21"/>
      <point x="342" y="21" type="curve" smooth="yes"/>
      <point x="317" y="21" type="line"/>
      <point x="312" y="-2" type="line"/>
      <point x="343" y="-2" type="line" smooth="yes"/>
      <point x="440" y="-2"/>
      <point x="503" y="70"/>
      <point x="503" y="172" type="curve" smooth="yes"/>
      <point x="503" y="264"/>
      <point x="446" y="299"/>
      <point x="364" y="299" type="curve" smooth="yes"/>
      <point x="331" y="299" type="line"/>
      <point x="378" y="519" type="line"/>
      <point x="495" y="519" type="line"/>
      <point x="500" y="542" type="line"/>
      <point x="195" y="542" type="line"/>
      <point x="141" y="284" type="line"/>
      <point x="166" y="284" type="line"/>
      <point x="216" y="519" type="line"/>
      <point x="350" y="519" type="line"/>
      <point x="304" y="299" type="line"/>
      <point x="184" y="299" type="line" smooth="yes"/>
      <point x="83" y="299"/>
      <point x="27" y="218"/>
      <point x="27" y="135" type="curve" smooth="yes"/>
      <point x="27" y="63"/>
      <point x="74" y="-4"/>
    </contour>
    <contour>
      <point x="156" y="21" type="curve" smooth="yes"/>
      <point x="87" y="21"/>
      <point x="57" y="78"/>
      <point x="57" y="139" type="curve" smooth="yes"/>
      <point x="57" y="210"/>
      <point x="98" y="275"/>
      <point x="183" y="275" type="curve" smooth="yes"/>
      <point x="298" y="275" type="line"/>
      <point x="274" y="154" type="line" smooth="yes"/>
      <point x="255" y="56"/>
      <point x="209" y="21"/>
    </contour>
    <component base="iiMatra-tamil" xOffset="390"/>
  </outline>
</glyph>
<glyph name="kssa-tamil" format="2">
  <advance width="1291"/>
  <note>
g76
</note>
  <anchor x="593" y="0" name="bottom"/>
  <anchor x="555" y="0" name="nukta"/>
  <anchor x="714" y="542" name="top"/>
  <anchor x="709" y="542" name="vedic"/>
  <outline>
    <contour>
      <point x="488" y="-4" type="curve" smooth="yes"/>
      <point x="561" y="-4"/>
      <point x="620" y="68"/>
      <point x="620" y="161" type="curve" smooth="yes"/>
      <point x="620" y="256"/>
      <point x="566" y="299"/>
      <point x="475" y="299" type="curve" smooth="yes"/>
      <point x="331" y="299" type="line"/>
      <point x="378" y="519" type="line"/>
      <point x="495" y="519" type="line"/>
      <point x="500" y="542" type="line"/>
      <point x="195" y="542" type="line"/>
      <point x="141" y="284" type="line"/>
      <point x="166" y="284" type="line"/>
      <point x="216" y="519" type="line"/>
      <point x="350" y="519" type="line"/>
      <point x="304" y="299" type="line"/>
      <point x="184" y="299" type="line" smooth="yes"/>
      <point x="83" y="299"/>
      <point x="27" y="218"/>
      <point x="27" y="135" type="curve" smooth="yes"/>
      <point x="27" y="63"/>
      <point x="74" y="-4"/>
      <point x="152" y="-4" type="curve" smooth="yes"/>
      <point x="221" y="-4"/>
      <point x="277" y="36"/>
      <point x="301" y="153" type="curve" smooth="yes"/>
      <point x="326" y="275" type="line"/>
      <point x="470" y="275" type="line" smooth="yes"/>
      <point x="548" y="275"/>
      <point x="590" y="245"/>
      <point x="590" y="158" type="curve" smooth="yes"/>
      <point x="590" y="89"/>
      <point x="550" y="21"/>
      <point x="489" y="21" type="curve" smooth="yes"/>
      <point x="446" y="21"/>
      <point x="426" y="59"/>
      <point x="426" y="125" type="curve" smooth="yes"/>
      <point x="426" y="246"/>
      <point x="507" y="390"/>
      <point x="639" y="390" type="curve" smooth="yes"/>
      <point x="728" y="390"/>
      <point x="781" y="333"/>
      <point x="781" y="242" type="curve" smooth="yes"/>
      <point x="781" y="151"/>
      <point x="740" y="80"/>
      <point x="682" y="19" type="curve"/>
      <point x="695" y="0" type="line"/>
      <point x="1174" y="0" type="line"/>
      <point x="1238" y="295" type="line"/>
      <point x="1207" y="287" type="line"/>
      <point x="1151" y="23" type="line"/>
      <point x="693" y="23" type="line"/>
      <point x="703" y="8" type="line"/>
      <point x="764" y="73"/>
      <point x="810" y="149"/>
      <point x="810" y="245" type="curve" smooth="yes"/>
      <point x="810" y="350"/>
      <point x="746" y="414"/>
      <point x="642" y="414" type="curve" smooth="yes"/>
      <point x="494" y="414"/>
      <point x="398" y="256"/>
      <point x="398" y="122" type="curve" smooth="yes"/>
      <point x="398" y="42"/>
      <point x="430" y="-4"/>
    </contour>
    <contour>
      <point x="156" y="21" type="curve" smooth="yes"/>
      <point x="87" y="21"/>
      <point x="57" y="78"/>
      <point x="57" y="139" type="curve" smooth="yes"/>
      <point x="57" y="210"/>
      <point x="98" y="275"/>
      <point x="183" y="275" type="curve" smooth="yes"/>
      <point x="298" y="275" type="line"/>
      <point x="274" y="154" type="line" smooth="yes"/>
      <point x="255" y="56"/>
      <point x="209" y="21"/>
    </contour>
    <contour>
      <point x="931" y="-217" type="line"/>
      <point x="959" y="-217" type="line"/>
      <point x="1097" y="433" type="line" smooth="yes"/>
      <point x="1112" y="502"/>
      <point x="1092" y="551"/>
      <point x="1035" y="551" type="curve" smooth="yes"/>
      <point x="963" y="551"/>
      <point x="907" y="451"/>
      <point x="907" y="362" type="curve" smooth="yes"/>
      <point x="907" y="274"/>
      <point x="946" y="221"/>
      <point x="1034" y="221" type="curve" smooth="yes"/>
      <point x="1097" y="221"/>
      <point x="1158" y="238"/>
      <point x="1237" y="291" type="curve"/>
      <point x="1239" y="300" type="line"/>
      <point x="1227" y="315" type="line"/>
      <point x="1153" y="264"/>
      <point x="1089" y="245"/>
      <point x="1036" y="245" type="curve" smooth="yes"/>
      <point x="964" y="245"/>
      <point x="932" y="287"/>
      <point x="932" y="363" type="curve" smooth="yes"/>
      <point x="932" y="424"/>
      <point x="972" y="527"/>
      <point x="1033" y="527" type="curve" smooth="yes"/>
      <point x="1073" y="527"/>
      <point x="1082" y="494"/>
      <point x="1070" y="438" type="curve" smooth="yes"/>
    </contour>
  </outline>
</glyph>
<glyph name="ku-tamil" format="2">
  <advance width="715"/>
  <note>
g101
</note>
  <anchor x="329" y="0" name="bottom"/>
  <anchor x="296" y="-217" name="nukta"/>
  <anchor x="486" y="542" name="top"/>
  <anchor x="486" y="542" name="vedic"/>
  <outline>
    <contour>
      <point x="296" y="-217" type="curve" smooth="yes"/>
      <point x="492" y="-217"/>
      <point x="636" y="-69"/>
      <point x="636" y="129" type="curve" smooth="yes"/>
      <point x="636" y="230"/>
      <point x="589" y="299"/>
      <point x="475" y="299" type="curve" smooth="yes"/>
      <point x="314" y="299" type="line" smooth="yes"/>
      <point x="213" y="299"/>
      <point x="157" y="218"/>
      <point x="157" y="135" type="curve" smooth="yes"/>
      <point x="157" y="63"/>
      <point x="204" y="-4"/>
      <point x="282" y="-4" type="curve" smooth="yes"/>
      <point x="351" y="-4"/>
      <point x="406" y="36"/>
      <point x="431" y="153" type="curve" smooth="yes"/>
      <point x="508" y="519" type="line"/>
      <point x="625" y="519" type="line"/>
      <point x="630" y="542" type="line"/>
      <point x="325" y="542" type="line"/>
      <point x="271" y="284" type="line"/>
      <point x="296" y="284" type="line"/>
      <point x="346" y="519" type="line"/>
      <point x="480" y="519" type="line"/>
      <point x="404" y="154" type="line" smooth="yes"/>
      <point x="384" y="58"/>
      <point x="339" y="21"/>
      <point x="286" y="21" type="curve" smooth="yes"/>
      <point x="217" y="21"/>
      <point x="187" y="78"/>
      <point x="187" y="139" type="curve" smooth="yes"/>
      <point x="187" y="210"/>
      <point x="228" y="275"/>
      <point x="313" y="275" type="curve" smooth="yes"/>
      <point x="470" y="275" type="line" smooth="yes"/>
      <point x="572" y="275"/>
      <point x="607" y="212"/>
      <point x="607" y="124" type="curve" smooth="yes"/>
      <point x="607" y="-51"/>
      <point x="472" y="-191"/>
      <point x="296" y="-191" type="curve" smooth="yes"/>
      <point x="127" y="-191"/>
      <point x="50" y="-55"/>
      <point x="50" y="106" type="curve" smooth="yes"/>
      <point x="50" y="243"/>
      <point x="116" y="369"/>
      <point x="211" y="490" type="curve"/>
      <point x="191" y="506" type="line"/>
      <point x="91" y="378"/>
      <point x="21" y="249"/>
      <point x="21" y="101" type="curve" smooth="yes"/>
      <point x="21" y="-69"/>
      <point x="112" y="-217"/>
    </contour>
  </outline>
</glyph>
<glyph name="kuu-tamil" format="2">
  <advance width="948"/>
  <note>
g102
</note>
  <anchor x="414" y="0" name="bottom"/>
  <anchor x="414" y="0" name="nukta"/>
  <anchor x="369" y="542" name="top"/>
  <anchor x="545" y="542" name="vedic"/>
  <outline>
    <contour>
      <point x="491" y="-4" type="curve" smooth="yes"/>
      <point x="567" y="-4"/>
      <point x="620" y="64"/>
      <point x="620" y="154" type="curve" smooth="yes"/>
      <point x="620" y="242"/>
      <point x="572" y="299"/>
      <point x="475" y="299" type="curve" smooth="yes"/>
      <point x="331" y="299" type="line"/>
      <point x="378" y="519" type="line"/>
      <point x="495" y="519" type="line"/>
      <point x="500" y="542" type="line"/>
      <point x="195" y="542" type="line"/>
      <point x="141" y="284" type="line"/>
      <point x="166" y="284" type="line"/>
      <point x="216" y="519" type="line"/>
      <point x="350" y="519" type="line"/>
      <point x="304" y="299" type="line"/>
      <point x="184" y="299" type="line" smooth="yes"/>
      <point x="83" y="299"/>
      <point x="27" y="218"/>
      <point x="27" y="135" type="curve" smooth="yes"/>
      <point x="27" y="63"/>
      <point x="74" y="-4"/>
      <point x="152" y="-4" type="curve" smooth="yes"/>
      <point x="221" y="-4"/>
      <point x="277" y="36"/>
      <point x="301" y="153" type="curve" smooth="yes"/>
      <point x="326" y="275" type="line"/>
      <point x="470" y="275" type="line" smooth="yes"/>
      <point x="550" y="275"/>
      <point x="590" y="234"/>
      <point x="590" y="151" type="curve" smooth="yes"/>
      <point x="590" y="85"/>
      <point x="556" y="21"/>
      <point x="492" y="21" type="curve" smooth="yes"/>
      <point x="449" y="21"/>
      <point x="426" y="59"/>
      <point x="426" y="125" type="curve" smooth="yes"/>
      <point x="426" y="246"/>
      <point x="507" y="390"/>
      <point x="639" y="390" type="curve" smooth="yes"/>
      <point x="725" y="390"/>
      <point x="781" y="331"/>
      <point x="781" y="240" type="curve" smooth="yes"/>
      <point x="781" y="149"/>
      <point x="740" y="80"/>
      <point x="682" y="19" type="curve"/>
      <point x="695" y="0" type="line"/>
      <point x="866" y="0" type="line"/>
      <point x="870" y="23" type="line"/>
      <point x="693" y="23" type="line"/>
      <point x="703" y="8" type="line"/>
      <point x="764" y="73"/>
      <point x="810" y="147"/>
      <point x="810" y="243" type="curve" smooth="yes"/>
      <point x="810" y="348"/>
      <point x="743" y="414"/>
      <point x="642" y="414" type="curve" smooth="yes"/>
      <point x="494" y="414"/>
      <point x="398" y="260"/>
      <point x="398" y="122" type="curve" smooth="yes"/>
      <point x="398" y="42"/>
      <point x="433" y="-4"/>
    </contour>
    <contour>
      <point x="156" y="21" type="curve" smooth="yes"/>
      <point x="87" y="21"/>
      <point x="57" y="78"/>
      <point x="57" y="139" type="curve" smooth="yes"/>
      <point x="57" y="210"/>
      <point x="98" y="275"/>
      <point x="183" y="275" type="curve" smooth="yes"/>
      <point x="298" y="275" type="line"/>
      <point x="274" y="154" type="line" smooth="yes"/>
      <point x="255" y="56"/>
      <point x="209" y="21"/>
    </contour>
  </outline>
</glyph>
<glyph name="li-tamil" format="2">
  <advance width="886"/>
  <note>
g134
</note>
  <anchor x="387" y="0" name="bottom"/>
  <anchor x="387" y="0" name="nukta"/>
  <anchor x="753" y="800" name="top"/>
  <anchor x="487" y="542" name="vedic"/>
  <outline>
    <contour>
      <point x="146" y="-4" type="curve" smooth="yes"/>
      <point x="218" y="-4"/>
      <point x="277" y="66"/>
      <point x="277" y="165" type="curve" smooth="yes"/>
      <point x="277" y="244"/>
      <point x="236" y="283"/>
      <point x="182" y="283" type="curve" smooth="yes"/>
      <point x="120" y="283"/>
      <point x="73" y="234"/>
      <point x="45" y="177" type="curve"/>
      <point x="51" y="148" type="line"/>
      <point x="86" y="214"/>
      <point x="124" y="258"/>
      <point x="178" y="258" type="curve" smooth="yes"/>
      <point x="223" y="258"/>
      <point x="249" y="230"/>
      <point x="249" y="162" type="curve" smooth="yes"/>
      <point x="249" y="81"/>
      <point x="202" y="21"/>
      <point x="148" y="21" type="curve" smooth="yes"/>
      <point x="94" y="21"/>
      <point x="60" y="68"/>
      <point x="60" y="152" type="curve" smooth="yes"/>
      <point x="60" y="326"/>
      <point x="158" y="527"/>
      <point x="320" y="527" type="curve" smooth="yes"/>
      <point x="418" y="527"/>
      <point x="443" y="449"/>
      <point x="420" y="347" type="curve" smooth="yes"/>
      <point x="373" y="139" type="line" smooth="yes"/>
      <point x="354" y="55"/>
      <point x="380" y="-4"/>
      <point x="457" y="-4" type="curve" smooth="yes"/>
      <point x="562" y="-4"/>
      <point x="656" y="106"/>
      <point x="656" y="257" type="curve" smooth="yes"/>
      <point x="656" y="403"/>
      <point x="632" y="438"/>
      <point x="632" y="608" type="curve" smooth="yes"/>
      <point x="632" y="701"/>
      <point x="670" y="769"/>
      <point x="752" y="769" type="curve" smooth="yes"/>
      <point x="835" y="769"/>
      <point x="867" y="703"/>
      <point x="845" y="596" type="curve" smooth="yes"/>
      <point x="720" y="0" type="line"/>
      <point x="746" y="0" type="line"/>
      <point x="874" y="607" type="line" smooth="yes"/>
      <point x="899" y="725"/>
      <point x="850" y="800"/>
      <point x="753" y="800" type="curve" smooth="yes"/>
      <point x="658" y="800"/>
      <point x="605" y="723"/>
      <point x="605" y="608" type="curve" smooth="yes"/>
      <point x="605" y="434"/>
      <point x="628" y="393"/>
      <point x="628" y="254" type="curve" smooth="yes"/>
      <point x="628" y="125"/>
      <point x="545" y="20"/>
      <point x="458" y="20" type="curve" smooth="yes"/>
      <point x="395" y="20"/>
      <point x="387" y="70"/>
      <point x="402" y="138" type="curve" smooth="yes"/>
      <point x="447" y="342" type="line" smooth="yes"/>
      <point x="475" y="468"/>
      <point x="434" y="551"/>
      <point x="323" y="551" type="curve" smooth="yes"/>
      <point x="145" y="551"/>
      <point x="34" y="346"/>
      <point x="34" y="151" type="curve" smooth="yes"/>
      <point x="34" y="54"/>
      <point x="76" y="-4"/>
    </contour>
  </outline>
</glyph>
<glyph name="lii-tamil" format="2">
  <advance width="721"/>
  <note>
g135
</note>
  <anchor x="310" y="0" name="bottom"/>
  <anchor x="310" y="0" name="nukta"/>
  <anchor x="698" y="861" name="top"/>
  <anchor x="461" y="542" name="vedic"/>
  <outline>
    <contour>
      <point x="146" y="-4" type="curve" smooth="yes"/>
      <point x="218" y="-4"/>
      <point x="277" y="66"/>
      <point x="277" y="165" type="curve" smooth="yes"/>
      <point x="277" y="244"/>
      <point x="236" y="283"/>
      <point x="182" y="283" type="curve" smooth="yes"/>
      <point x="120" y="283"/>
      <point x="73" y="234"/>
      <point x="45" y="177" type="curve"/>
      <point x="51" y="148" type="line"/>
      <point x="86" y="214"/>
      <point x="124" y="258"/>
      <point x="178" y="258" type="curve" smooth="yes"/>
      <point x="223" y="258"/>
      <point x="249" y="230"/>
      <point x="249" y="162" type="curve" smooth="yes"/>
      <point x="249" y="81"/>
      <point x="202" y="21"/>
      <point x="148" y="21" type="curve" smooth="yes"/>
      <point x="94" y="21"/>
      <point x="60" y="68"/>
      <point x="60" y="152" type="curve" smooth="yes"/>
      <point x="60" y="326"/>
      <point x="158" y="527"/>
      <point x="320" y="527" type="curve" smooth="yes"/>
      <point x="396" y="527"/>
      <point x="428" y="480"/>
      <point x="428" y="412" type="curve" smooth="yes"/>
      <point x="428" y="392"/>
      <point x="425" y="370"/>
      <point x="420" y="347" type="curve" smooth="yes"/>
      <point x="373" y="139" type="line" smooth="yes"/>
      <point x="369" y="122"/>
      <point x="367" y="105"/>
      <point x="367" y="90" type="curve" smooth="yes"/>
      <point x="367" y="33"/>
      <point x="396" y="-4"/>
      <point x="457" y="-4" type="curve" smooth="yes"/>
      <point x="562" y="-4"/>
      <point x="656" y="101"/>
      <point x="656" y="252" type="curve" smooth="yes"/>
      <point x="656" y="408"/>
      <point x="561" y="499"/>
      <point x="561" y="658" type="curve" smooth="yes"/>
      <point x="561" y="736"/>
      <point x="605" y="839"/>
      <point x="696" y="839" type="curve" smooth="yes"/>
      <point x="752" y="839"/>
      <point x="787" y="799"/>
      <point x="787" y="741" type="curve" smooth="yes"/>
      <point x="787" y="686"/>
      <point x="757" y="634"/>
      <point x="705" y="634" type="curve" smooth="yes"/>
      <point x="670" y="634"/>
      <point x="656" y="663"/>
      <point x="656" y="702" type="curve" smooth="yes"/>
      <point x="656" y="746"/>
      <point x="673" y="801"/>
      <point x="701" y="844" type="curve"/>
      <point x="680" y="848" type="line"/>
      <point x="649" y="802"/>
      <point x="631" y="746"/>
      <point x="631" y="701" type="curve" smooth="yes"/>
      <point x="631" y="650"/>
      <point x="654" y="611"/>
      <point x="705" y="611" type="curve" smooth="yes"/>
      <point x="769" y="611"/>
      <point x="816" y="670"/>
      <point x="816" y="739" type="curve" smooth="yes"/>
      <point x="816" y="812"/>
      <point x="771" y="861"/>
      <point x="698" y="861" type="curve" smooth="yes"/>
      <point x="592" y="861"/>
      <point x="532" y="751"/>
      <point x="532" y="657" type="curve" smooth="yes"/>
      <point x="532" y="494"/>
      <point x="628" y="398"/>
      <point x="628" y="249" type="curve" smooth="yes"/>
      <point x="628" y="120"/>
      <point x="545" y="20"/>
      <point x="458" y="20" type="curve" smooth="yes"/>
      <point x="412" y="20"/>
      <point x="396" y="46"/>
      <point x="396" y="87" type="curve" smooth="yes"/>
      <point x="396" y="102"/>
      <point x="398" y="119"/>
      <point x="402" y="138" type="curve" smooth="yes"/>
      <point x="447" y="343" type="line" smooth="yes"/>
      <point x="452" y="368"/>
      <point x="455" y="391"/>
      <point x="455" y="413" type="curve" smooth="yes"/>
      <point x="455" y="498"/>
      <point x="412" y="551"/>
      <point x="323" y="551" type="curve" smooth="yes"/>
      <point x="145" y="551"/>
      <point x="34" y="346"/>
      <point x="34" y="151" type="curve" smooth="yes"/>
      <point x="34" y="54"/>
      <point x="76" y="-4"/>
    </contour>
  </outline>
</glyph>
